<?xml version="1.0" encoding="UTF-8" standalone="no"?>
<!DOCTYPE svg PUBLIC "-//W3C//DTD SVG 1.1//EN"
 "http://www.w3.org/Graphics/SVG/1.1/DTD/svg11.dtd">
<!-- Generated by graphviz version 2.40.1 (20161225.0304)
 -->
<!-- Title: demo Pages: 1 -->
<svg width="530pt" height="345pt"
 viewBox="0.00 0.00 529.64 345.31" xmlns="http://www.w3.org/2000/svg" xmlns:xlink="http://www.w3.org/1999/xlink">
<g id="graph0" class="graph" transform="scale(1 1) rotate(0) translate(4 341.3061)">
<title>demo</title>
<polygon fill="#ffffff" stroke="transparent" points="-4,4 -4,-341.3061 525.6426,-341.3061 525.6426,4 -4,4"/>
<g id="clust1" class="cluster">
<title>cluster_ZT8Struct_AE</title>
<polygon fill="none" stroke="#000000" stroke-width="2" points="8,-8 8,-253 169.8486,-253 169.8486,-8 8,-8"/>
</g>
<!-- _ZN19undeclared_functionE -->
<g id="node1" class="node">
<title>_ZN19undeclared_functionE</title>
<polygon fill="none" stroke="#000000" points="381.2559,-267 381.2559,-303 521.6426,-303 521.6426,-267 381.2559,-267"/>
<text text-anchor="start" x="389.2559" y="-281.8" font-family="Times,serif" font-weight="bold" font-size="14.00" fill="#000000">undeclared_function()</text>
</g>
<!-- _ZN19ordinary_function_1E -->
<g id="node2" class="node">
<title>_ZN19ordinary_function_1E</title>
<polygon fill="none" stroke="#000000" points="197.8486,-252 197.8486,-318 345.2559,-318 345.2559,-252 197.8486,-252"/>
<text text-anchor="start" x="205.8486" y="-303.8" font-family="Times,serif" font-weight="bold" font-size="14.00" fill="#000000"> ordinary_function_1() </text>
<polyline fill="none" stroke="#000000" points="197.8486,-296 345.2559,-296 "/>
<text text-anchor="start" x="269.8022" y="-280.8" font-family="Times,serif" font-size="14.00" fill="#000000"> </text>
<polyline fill="none" stroke="#000000" points="197.8486,-274 345.2559,-274 "/>
<text text-anchor="start" x="244.4614" y="-258.8" font-family="Times,serif" font-size="14.00" fill="#000000">args_type</text>
</g>
<!-- _ZN19ordinary_function_1E&#45;&gt;_ZN19undeclared_functionE -->
<g id="edge7" class="edge">
<title>_ZN19ordinary_function_1E&#45;&gt;_ZN19undeclared_functionE</title>
<path fill="none" stroke="#000000" d="M345.502,-285C353.8386,-285 362.3646,-285 370.781,-285"/>
<polygon fill="#000000" stroke="#000000" points="370.9729,-288.5001 380.9728,-285 370.9728,-281.5001 370.9729,-288.5001"/>
</g>
<!-- _ZN19ordinary_function_2E -->
<g id="node3" class="node">
<title>_ZN19ordinary_function_2E</title>
<polygon fill="none" stroke="#000000" points="197.8486,-189 197.8486,-233 345.2559,-233 345.2559,-189 197.8486,-189"/>
<text text-anchor="start" x="205.8486" y="-218.8" font-family="Times,serif" font-weight="bold" font-size="14.00" fill="#000000"> ordinary_function_2() </text>
<polyline fill="none" stroke="#000000" points="197.8486,-211 345.2559,-211 "/>
<text text-anchor="start" x="239.2866" y="-195.8" font-family="Times,serif" font-size="14.00" fill="#000000">return_type</text>
</g>
<!-- _ZN19ordinary_function_2E&#45;&gt;_ZN19undeclared_functionE -->
<g id="edge1" class="edge">
<title>_ZN19ordinary_function_2E&#45;&gt;_ZN19undeclared_functionE</title>
<path fill="none" stroke="#000000" d="M325.0402,-233.0021C348.1618,-242.5131 375.1525,-253.6156 398.2425,-263.1136"/>
<polygon fill="#000000" stroke="#000000" points="396.9643,-266.3723 407.544,-266.9397 399.6273,-259.8986 396.9643,-266.3723"/>
</g>
<!-- _ZN8Struct_A17member_function_2E -->
<g id="node4" class="node">
<title>_ZN8Struct_A17member_function_2E</title>
<polygon fill="none" stroke="#000000" points="16,-178 16,-244 161.8486,-244 161.8486,-178 16,-178"/>
<text text-anchor="start" x="24" y="-229.8" font-family="Times,serif" font-weight="bold" font-size="14.00" fill="#000000"> member_function_2() </text>
<polyline fill="none" stroke="#000000" points="16,-222 161.8486,-222 "/>
<text text-anchor="start" x="56.6587" y="-206.8" font-family="Times,serif" font-size="14.00" fill="#000000">return_type</text>
<polyline fill="none" stroke="#000000" points="16,-200 161.8486,-200 "/>
<text text-anchor="start" x="61.8335" y="-184.8" font-family="Times,serif" font-size="14.00" fill="#000000">args_type</text>
</g>
<!-- _ZN8Struct_A17member_function_2E&#45;&gt;_ZN19ordinary_function_2E -->
<g id="edge6" class="edge">
<title>_ZN8Struct_A17member_function_2E&#45;&gt;_ZN19ordinary_function_2E</title>
<path fill="none" stroke="#000000" d="M161.8911,-211C170.3889,-211 179.1078,-211 187.7369,-211"/>
<polygon fill="#000000" stroke="#000000" points="187.8067,-214.5001 197.8067,-211 187.8066,-207.5001 187.8067,-214.5001"/>
</g>
<!-- _ZN8Struct_A17member_function_1E -->
<g id="node5" class="node">
<title>_ZN8Struct_A17member_function_1E</title>
<polygon fill="none" stroke="#000000" points="16,-71 16,-159 161.8486,-159 161.8486,-71 16,-71"/>
<text text-anchor="start" x="24" y="-144.8" font-family="Times,serif" font-weight="bold" font-size="14.00" fill="#000000"> member_function_1() </text>
<polyline fill="none" stroke="#000000" points="16,-137 161.8486,-137 "/>
<text text-anchor="start" x="56.6587" y="-121.8" font-family="Times,serif" font-size="14.00" fill="#000000">return_type</text>
<polyline fill="none" stroke="#000000" points="16,-115 161.8486,-115 "/>
<text text-anchor="start" x="58.3335" y="-99.8" font-family="Times,serif" font-size="14.00" fill="#000000">args_type1</text>
<polyline fill="none" stroke="#000000" points="16,-93 161.8486,-93 "/>
<text text-anchor="start" x="52.8887" y="-77.8" font-family="Times,serif" font-size="14.00" fill="#000000">&amp;args_type2</text>
</g>
<!-- _ZN8Struct_A17member_function_1E&#45;&gt;_ZN19ordinary_function_2E -->
<g id="edge3" class="edge">
<title>_ZN8Struct_A17member_function_1E&#45;&gt;_ZN19ordinary_function_2E</title>
<path fill="none" stroke="#000000" d="M161.8911,-153.3556C181.435,-163.6291 202.1485,-174.5173 220.2479,-184.0314"/>
<polygon fill="#000000" stroke="#000000" points="218.9743,-187.316 229.4544,-188.8709 222.2314,-181.1199 218.9743,-187.316"/>
</g>
<!-- _ZN4mainE -->
<g id="node6" class="node">
<title>_ZN4mainE</title>
<polygon fill="none" stroke="#000000" points="58.7656,-263 58.7656,-307 119.083,-307 119.083,-263 58.7656,-263"/>
<text text-anchor="start" x="66.7656" y="-292.8" font-family="Times,serif" font-weight="bold" font-size="14.00" fill="#000000"> main() </text>
<polyline fill="none" stroke="#000000" points="58.7656,-285 119.083,-285 "/>
<text text-anchor="start" x="87.1743" y="-269.8" font-family="Times,serif" font-size="14.00" fill="#000000"> </text>
</g>
<!-- _ZN4mainE&#45;&gt;_ZN19undeclared_functionE -->
<g id="edge5" class="edge">
<title>_ZN4mainE&#45;&gt;_ZN19undeclared_functionE</title>
<path fill="none" stroke="#000000" d="M119.4494,-300.6435C140.7878,-310.6709 170.2866,-322.7566 197.8486,-328 262.2087,-340.2439 280.95,-340.5255 345.2559,-328 366.4671,-323.8685 388.801,-315.499 407.4842,-307.2329"/>
<polygon fill="#000000" stroke="#000000" points="408.9682,-310.403 416.6182,-303.073 406.0669,-304.0325 408.9682,-310.403"/>
</g>
<!-- _ZN4mainE&#45;&gt;_ZN19ordinary_function_1E -->
<g id="edge2" class="edge">
<title>_ZN4mainE&#45;&gt;_ZN19ordinary_function_1E</title>
<path fill="none" stroke="#000000" d="M119.4921,-285C138.1505,-285 163.0017,-285 187.1975,-285"/>
<polygon fill="#000000" stroke="#000000" points="187.5071,-288.5001 197.507,-285 187.507,-281.5001 187.5071,-288.5001"/>
</g>
<!-- _ZN4mainE&#45;&gt;_ZN19ordinary_function_2E -->
<g id="edge4" class="edge">
<title>_ZN4mainE&#45;&gt;_ZN19ordinary_function_2E</title>
<path fill="none" stroke="#000000" d="M119.253,-275.5487C134.5969,-270.5054 153.4058,-263.9205 169.8486,-257 182.6724,-251.6027 185.2406,-248.8838 197.8486,-243 201.9412,-241.0901 206.1773,-239.1515 210.4554,-237.222"/>
<polygon fill="#000000" stroke="#000000" points="212.1446,-240.3009 219.8481,-233.0272 209.2901,-233.9093 212.1446,-240.3009"/>
</g>
<!-- _ZT8Struct_AE -->
<g id="node7" class="node">
<title>_ZT8Struct_AE</title>
<text text-anchor="middle" x="88.9243" y="-29.8" font-family="Times,serif" font-size="14.00" fill="#000000">Struct_A</text>
</g>
</g>
</svg>
