<?xml version="1.0" encoding="UTF-8" standalone="no"?>
<!DOCTYPE svg PUBLIC "-//W3C//DTD SVG 1.1//EN"
 "http://www.w3.org/Graphics/SVG/1.1/DTD/svg11.dtd">
<!-- Generated by graphviz version 2.40.1 (20161225.0304)
 -->
<!-- Title: demo Pages: 1 -->
<svg width="1129pt" height="670pt"
 viewBox="0.00 0.00 1129.05 670.00" xmlns="http://www.w3.org/2000/svg" xmlns:xlink="http://www.w3.org/1999/xlink">
<g id="graph0" class="graph" transform="scale(1 1) rotate(0) translate(4 666)">
<title>demo</title>
<polygon fill="#ffffff" stroke="transparent" points="-4,4 -4,-666 1125.0508,-666 1125.0508,4 -4,4"/>
<!-- _ZN6String4fromE -->
<g id="node1" class="node">
<title>_ZN6String4fromE</title>
<polygon fill="none" stroke="#000000" points="1120.8243,-282 1026.7323,-282 1026.7323,-246 1120.8243,-246 1120.8243,-282"/>
<text text-anchor="start" x="1034.5059" y="-259.8" font-family="Times,serif" font-size="14.00" fill="#000000">String::from()</text>
</g>
<!-- _ZN11handle_exprE -->
<g id="node2" class="node">
<title>_ZN11handle_exprE</title>
<polygon fill="none" stroke="#000000" points="711.002,-218 711.002,-262 805.5195,-262 805.5195,-218 711.002,-218"/>
<text text-anchor="middle" x="758.2607" y="-246.8" font-family="Times,serif" font-size="14.00" fill="#000000">handle_expr()</text>
<polyline fill="none" stroke="#000000" points="711.002,-240 805.5195,-240 "/>
<text text-anchor="middle" x="758.2607" y="-224.8" font-family="Times,serif" font-size="14.00" fill="#000000">args...</text>
</g>
<!-- _ZN11handle_exprE&#45;&gt;_ZN11handle_exprE -->
<g id="edge17" class="edge">
<title>_ZN11handle_exprE&#45;&gt;_ZN11handle_exprE</title>
<path fill="none" stroke="#000000" d="M732.4209,-262.0792C729.96,-271.957 738.5732,-280.5 758.2607,-280.5 770.5654,-280.5 778.5443,-277.1629 782.1972,-272.2485"/>
<polygon fill="#000000" stroke="#000000" points="785.701,-272.5525 784.1006,-262.0792 778.8205,-271.2646 785.701,-272.5525"/>
</g>
<!-- _ZN11handle_stmtE -->
<g id="node8" class="node">
<title>_ZN11handle_stmtE</title>
<polygon fill="none" stroke="#000000" points="569.5879,-218 569.5879,-262 663.3467,-262 663.3467,-218 569.5879,-218"/>
<text text-anchor="middle" x="616.4673" y="-246.8" font-family="Times,serif" font-size="14.00" fill="#000000">handle_stmt()</text>
<polyline fill="none" stroke="#000000" points="569.5879,-240 663.3467,-240 "/>
<text text-anchor="middle" x="616.4673" y="-224.8" font-family="Times,serif" font-size="14.00" fill="#000000">args...</text>
</g>
<!-- _ZN11handle_exprE&#45;&gt;_ZN11handle_stmtE -->
<g id="edge14" class="edge">
<title>_ZN11handle_exprE&#45;&gt;_ZN11handle_stmtE</title>
<path fill="none" stroke="#000000" d="M710.7683,-246.4119C698.9203,-246.7662 686.0901,-246.8421 673.8218,-246.6393"/>
<polygon fill="#000000" stroke="#000000" points="673.7612,-243.1371 663.6825,-246.4035 673.5983,-250.1352 673.7612,-243.1371"/>
</g>
<!-- _ZN3Vec3newE -->
<g id="node14" class="node">
<title>_ZN3Vec3newE</title>
<polygon fill="none" stroke="#000000" points="954.9279,-316 877.0975,-316 877.0975,-280 954.9279,-280 954.9279,-316"/>
<text text-anchor="start" x="885.3057" y="-293.8" font-family="Times,serif" font-size="14.00" fill="#000000">Vec::new()</text>
</g>
<!-- _ZN11handle_exprE&#45;&gt;_ZN3Vec3newE -->
<g id="edge29" class="edge">
<title>_ZN11handle_exprE&#45;&gt;_ZN3Vec3newE</title>
<path fill="none" stroke="#000000" d="M805.7856,-257.7764C817.463,-262.1218 829.9372,-266.7448 841.5195,-271 849.8692,-274.0675 858.7536,-277.3081 867.3699,-280.4385"/>
<polygon fill="#000000" stroke="#000000" points="866.3472,-283.7906 876.9413,-283.911 868.7345,-277.2103 866.3472,-283.7906"/>
</g>
<!-- _ZN12ident2stringE -->
<g id="node15" class="node">
<title>_ZN12ident2stringE</title>
<polygon fill="none" stroke="#000000" points="869.9092,-163 869.9092,-207 962.1162,-207 962.1162,-163 869.9092,-163"/>
<text text-anchor="middle" x="916.0127" y="-191.8" font-family="Times,serif" font-size="14.00" fill="#000000">ident2string()</text>
<polyline fill="none" stroke="#000000" points="869.9092,-185 962.1162,-185 "/>
<text text-anchor="middle" x="916.0127" y="-169.8" font-family="Times,serif" font-size="14.00" fill="#000000">args...</text>
</g>
<!-- _ZN11handle_exprE&#45;&gt;_ZN12ident2stringE -->
<g id="edge28" class="edge">
<title>_ZN11handle_exprE&#45;&gt;_ZN12ident2stringE</title>
<path fill="none" stroke="#000000" d="M805.5915,-223.4982C822.7443,-217.5179 842.28,-210.7068 860.1021,-204.4931"/>
<polygon fill="#000000" stroke="#000000" points="861.5106,-207.7088 869.8009,-201.1117 859.2061,-201.099 861.5106,-207.7088"/>
</g>
<!-- _ZN6pprust14path_to_stringE -->
<g id="node18" class="node">
<title>_ZN6pprust14path_to_stringE</title>
<polygon fill="none" stroke="#000000" points="990.499,-262 841.5264,-262 841.5264,-226 990.499,-226 990.499,-262"/>
<text text-anchor="start" x="849.5195" y="-239.8" font-family="Times,serif" font-size="14.00" fill="#000000">pprust::path_to_string()</text>
</g>
<!-- _ZN11handle_exprE&#45;&gt;_ZN6pprust14path_to_stringE -->
<g id="edge6" class="edge">
<title>_ZN11handle_exprE&#45;&gt;_ZN6pprust14path_to_stringE</title>
<path fill="none" stroke="#000000" d="M805.5915,-241.2001C813.6801,-241.4052 822.2986,-241.6238 831.0174,-241.8448"/>
<polygon fill="#000000" stroke="#000000" points="831.1873,-245.3502 841.2728,-242.1049 831.3648,-238.3524 831.1873,-245.3502"/>
</g>
<!-- _ZN5parse27parse_crate_from_source_strE -->
<g id="node3" class="node">
<title>_ZN5parse27parse_crate_from_source_strE</title>
<polygon fill="none" stroke="#000000" points="521.9952,-316 296.7451,-316 296.7451,-280 521.9952,-280 521.9952,-316"/>
<text text-anchor="start" x="304.8076" y="-293.8" font-family="Times,serif" font-size="14.00" fill="#000000">parse::parse_crate_from_source_str()</text>
</g>
<!-- _ZN6String3newE -->
<g id="node4" class="node">
<title>_ZN6String3newE</title>
<polygon fill="none" stroke="#000000" points="454.526,-262 364.2142,-262 364.2142,-226 454.526,-226 454.526,-262"/>
<text text-anchor="start" x="372.0425" y="-239.8" font-family="Times,serif" font-size="14.00" fill="#000000">String::new()</text>
</g>
<!-- _ZN11handle_itemE -->
<g id="node5" class="node">
<title>_ZN11handle_itemE</title>
<polygon fill="none" stroke="#000000" points="362.1079,-163 362.1079,-207 456.6323,-207 456.6323,-163 362.1079,-163"/>
<text text-anchor="middle" x="409.3701" y="-191.8" font-family="Times,serif" font-size="14.00" fill="#000000">handle_item()</text>
<polyline fill="none" stroke="#000000" points="362.1079,-185 456.6323,-185 "/>
<text text-anchor="middle" x="409.3701" y="-169.8" font-family="Times,serif" font-size="14.00" fill="#000000">args...</text>
</g>
<!-- _ZN11handle_itemE&#45;&gt;_ZN11handle_stmtE -->
<g id="edge12" class="edge">
<title>_ZN11handle_itemE&#45;&gt;_ZN11handle_stmtE</title>
<path fill="none" stroke="#000000" d="M456.8824,-197.6181C487.5095,-205.7519 527.4958,-216.3713 559.7802,-224.9453"/>
<polygon fill="#000000" stroke="#000000" points="558.97,-228.3514 569.5334,-227.5355 560.7668,-221.5859 558.97,-228.3514"/>
</g>
<!-- _ZN11handle_itemE&#45;&gt;_ZN12ident2stringE -->
<g id="edge1" class="edge">
<title>_ZN11handle_itemE&#45;&gt;_ZN12ident2stringE</title>
<path fill="none" stroke="#000000" d="M457.0338,-185C550.7711,-185 758.7068,-185 859.3104,-185"/>
<polygon fill="#000000" stroke="#000000" points="859.5782,-188.5001 869.5782,-185 859.5781,-181.5001 859.5782,-188.5001"/>
</g>
<!-- _ZN3env4argsE -->
<g id="node6" class="node">
<title>_ZN3env4argsE</title>
<polygon fill="none" stroke="#000000" points="447.7667,-662 370.9736,-662 370.9736,-626 447.7667,-626 447.7667,-662"/>
<text text-anchor="start" x="379.1724" y="-639.8" font-family="Times,serif" font-size="14.00" fill="#000000">env::args()</text>
</g>
<!-- _ZN8get_fileE -->
<g id="node7" class="node">
<title>_ZN8get_fileE</title>
<polygon fill="none" stroke="#000000" points="174.8384,-568 174.8384,-612 242.1558,-612 242.1558,-568 174.8384,-568"/>
<text text-anchor="middle" x="208.4971" y="-596.8" font-family="Times,serif" font-size="14.00" fill="#000000">get_file()</text>
<polyline fill="none" stroke="#000000" points="174.8384,-590 242.1558,-590 "/>
<text text-anchor="middle" x="208.4971" y="-574.8" font-family="Times,serif" font-size="14.00" fill="#000000">args...</text>
</g>
<!-- _ZN8get_fileE&#45;&gt;_ZN3env4argsE -->
<g id="edge25" class="edge">
<title>_ZN8get_fileE&#45;&gt;_ZN3env4argsE</title>
<path fill="none" stroke="#000000" d="M242.3238,-600.8738C258.7085,-606.0043 278.7099,-612.0679 296.8076,-617 317.7901,-622.7183 341.1473,-628.4268 361.1221,-633.112"/>
<polygon fill="#000000" stroke="#000000" points="360.3958,-636.5365 370.9289,-635.3942 361.9824,-629.7186 360.3958,-636.5365"/>
</g>
<!-- _ZN2fs14read_to_stringE -->
<g id="node21" class="node">
<title>_ZN2fs14read_to_stringE</title>
<polygon fill="none" stroke="#000000" points="471.4532,-608 347.2871,-608 347.2871,-572 471.4532,-572 471.4532,-608"/>
<text text-anchor="start" x="355.3286" y="-585.8" font-family="Times,serif" font-size="14.00" fill="#000000">fs::read_to_string()</text>
</g>
<!-- _ZN8get_fileE&#45;&gt;_ZN2fs14read_to_stringE -->
<g id="edge2" class="edge">
<title>_ZN8get_fileE&#45;&gt;_ZN2fs14read_to_stringE</title>
<path fill="none" stroke="#000000" d="M242.5724,-590C268.3281,-590 304.622,-590 336.7804,-590"/>
<polygon fill="#000000" stroke="#000000" points="337.0575,-593.5001 347.0575,-590 337.0574,-586.5001 337.0575,-593.5001"/>
</g>
<!-- _ZN11handle_stmtE&#45;&gt;_ZN11handle_exprE -->
<g id="edge21" class="edge">
<title>_ZN11handle_stmtE&#45;&gt;_ZN11handle_exprE</title>
<path fill="none" stroke="#000000" d="M663.6825,-233.5965C675.515,-233.2378 688.3419,-233.1576 700.6189,-233.356"/>
<polygon fill="#000000" stroke="#000000" points="700.6908,-236.8584 710.7683,-233.5881 700.851,-229.8603 700.6908,-236.8584"/>
</g>
<!-- _ZN4fuckE -->
<g id="node9" class="node">
<title>_ZN4fuckE</title>
<polygon fill="none" stroke="#000000" points="181.4971,-500 181.4971,-544 235.4971,-544 235.4971,-500 181.4971,-500"/>
<text text-anchor="middle" x="208.4971" y="-528.8" font-family="Times,serif" font-size="14.00" fill="#000000">fuck()</text>
<polyline fill="none" stroke="#000000" points="181.4971,-522 235.4971,-522 "/>
<text text-anchor="middle" x="208.4971" y="-506.8" font-family="Times,serif" font-size="14.00" fill="#000000">args...</text>
</g>
<!-- _ZN12generate_dotE -->
<g id="node10" class="node">
<title>_ZN12generate_dotE</title>
<polygon fill="none" stroke="#000000" points="159.6865,-437 159.6865,-481 257.3076,-481 257.3076,-437 159.6865,-437"/>
<text text-anchor="middle" x="208.4971" y="-465.8" font-family="Times,serif" font-size="14.00" fill="#000000">generate_dot()</text>
<polyline fill="none" stroke="#000000" points="159.6865,-459 257.3076,-459 "/>
<text text-anchor="middle" x="208.4971" y="-443.8" font-family="Times,serif" font-size="14.00" fill="#000000">args...</text>
</g>
<!-- _ZN12generate_dotE&#45;&gt;_ZN6String4fromE -->
<g id="edge24" class="edge">
<title>_ZN12generate_dotE&#45;&gt;_ZN6String4fromE</title>
<path fill="none" stroke="#000000" d="M257.4232,-475.9967C333.3133,-500.8019 484.4301,-544 616.4673,-544 616.4673,-544 616.4673,-544 758.2607,-544 909.3456,-544 1021.8217,-362.1709 1059.8016,-291.5656"/>
<polygon fill="#000000" stroke="#000000" points="1063.0827,-292.848 1064.6626,-282.3716 1056.8943,-289.5761 1063.0827,-292.848"/>
</g>
<!-- _ZN13write_to_fileE -->
<g id="node19" class="node">
<title>_ZN13write_to_fileE</title>
<polygon fill="none" stroke="#000000" points="360.9355,-427 360.9355,-471 457.8047,-471 457.8047,-427 360.9355,-427"/>
<text text-anchor="middle" x="409.3701" y="-455.8" font-family="Times,serif" font-size="14.00" fill="#000000">write_to_file()</text>
<polyline fill="none" stroke="#000000" points="360.9355,-449 457.8047,-449 "/>
<text text-anchor="middle" x="409.3701" y="-433.8" font-family="Times,serif" font-size="14.00" fill="#000000">args...</text>
</g>
<!-- _ZN12generate_dotE&#45;&gt;_ZN13write_to_fileE -->
<g id="edge18" class="edge">
<title>_ZN12generate_dotE&#45;&gt;_ZN13write_to_fileE</title>
<path fill="none" stroke="#000000" d="M257.3793,-456.5665C285.4276,-455.1702 320.8354,-453.4075 350.418,-451.9348"/>
<polygon fill="#000000" stroke="#000000" points="350.8036,-455.42 360.6172,-451.4271 350.4555,-448.4287 350.8036,-455.42"/>
</g>
<!-- _ZN15FilePathMapping5emptyE -->
<g id="node11" class="node">
<title>_ZN15FilePathMapping5emptyE</title>
<polygon fill="none" stroke="#000000" points="492.1878,-144 326.5524,-144 326.5524,-108 492.1878,-108 492.1878,-144"/>
<text text-anchor="start" x="334.7114" y="-121.8" font-family="Times,serif" font-size="14.00" fill="#000000">FilePathMapping::empty()</text>
</g>
<!-- _ZN4File4openE -->
<g id="node12" class="node">
<title>_ZN4File4openE</title>
<polygon fill="none" stroke="#000000" points="657.564,-516 575.3705,-516 575.3705,-480 657.564,-480 657.564,-516"/>
<text text-anchor="start" x="583.4189" y="-493.8" font-family="Times,serif" font-size="14.00" fill="#000000">File::open()</text>
</g>
<!-- _ZN9ParseSess3newE -->
<g id="node13" class="node">
<title>_ZN9ParseSess3newE</title>
<polygon fill="none" stroke="#000000" points="465.0191,-90 353.7211,-90 353.7211,-54 465.0191,-54 465.0191,-90"/>
<text text-anchor="start" x="361.5459" y="-67.8" font-family="Times,serif" font-size="14.00" fill="#000000">ParseSess::new()</text>
</g>
<!-- _ZN12ident2stringE&#45;&gt;_ZN6String4fromE -->
<g id="edge11" class="edge">
<title>_ZN12ident2stringE&#45;&gt;_ZN6String4fromE</title>
<path fill="none" stroke="#000000" d="M962.4632,-204.0331C971.8319,-208.1289 981.5501,-212.5652 990.5059,-217 1005.1502,-224.2516 1020.8448,-232.8757 1034.6167,-240.7446"/>
<polygon fill="#000000" stroke="#000000" points="1032.9473,-243.8221 1043.3588,-245.7845 1036.4435,-237.7577 1032.9473,-243.8221"/>
</g>
<!-- _ZN5fuck2E -->
<g id="node16" class="node">
<title>_ZN5fuck2E</title>
<polygon fill="none" stroke="#000000" points="179.897,-374 179.897,-418 237.0972,-418 237.0972,-374 179.897,-374"/>
<text text-anchor="middle" x="208.4971" y="-402.8" font-family="Times,serif" font-size="14.00" fill="#000000">fuck2()</text>
<polyline fill="none" stroke="#000000" points="179.897,-396 237.0972,-396 "/>
<text text-anchor="middle" x="208.4971" y="-380.8" font-family="Times,serif" font-size="14.00" fill="#000000">args...</text>
</g>
<!-- _ZN9BufReader3newE -->
<g id="node17" class="node">
<title>_ZN9BufReader3newE</title>
<polygon fill="none" stroke="#000000" points="675.0366,-462 557.8979,-462 557.8979,-426 675.0366,-426 675.0366,-462"/>
<text text-anchor="start" x="565.9326" y="-439.8" font-family="Times,serif" font-size="14.00" fill="#000000">BufReader::new()</text>
</g>
<!-- _ZN13write_to_fileE&#45;&gt;_ZN4File4openE -->
<g id="edge15" class="edge">
<title>_ZN13write_to_fileE&#45;&gt;_ZN4File4openE</title>
<path fill="none" stroke="#000000" d="M457.9252,-460.4883C490.2123,-468.1276 532.5483,-478.1444 565.3494,-485.9053"/>
<polygon fill="#000000" stroke="#000000" points="564.6641,-489.3397 575.2013,-488.2363 566.2758,-482.5278 564.6641,-489.3397"/>
</g>
<!-- _ZN13write_to_fileE&#45;&gt;_ZN9BufReader3newE -->
<g id="edge26" class="edge">
<title>_ZN13write_to_fileE&#45;&gt;_ZN9BufReader3newE</title>
<path fill="none" stroke="#000000" d="M457.9252,-447.8277C484.6614,-447.1822 518.2883,-446.3704 547.6858,-445.6606"/>
<polygon fill="#000000" stroke="#000000" points="547.9768,-449.1547 557.8894,-445.4143 547.8078,-442.1567 547.9768,-449.1547"/>
</g>
<!-- _ZN4File6createE -->
<g id="node24" class="node">
<title>_ZN4File6createE</title>
<polygon fill="none" stroke="#000000" points="660.7578,-408 572.1768,-408 572.1768,-372 660.7578,-372 660.7578,-408"/>
<text text-anchor="start" x="580.3223" y="-385.8" font-family="Times,serif" font-size="14.00" fill="#000000">File::create()</text>
</g>
<!-- _ZN13write_to_fileE&#45;&gt;_ZN4File6createE -->
<g id="edge3" class="edge">
<title>_ZN13write_to_fileE&#45;&gt;_ZN4File6createE</title>
<path fill="none" stroke="#000000" d="M457.9252,-435.1671C489.2372,-426.2466 530.0003,-414.6336 562.3519,-405.4169"/>
<polygon fill="#000000" stroke="#000000" points="563.444,-408.7452 572.1023,-402.6392 561.526,-402.013 563.444,-408.7452"/>
</g>
<!-- _ZN7HashSet3newE -->
<g id="node20" class="node">
<title>_ZN7HashSet3newE</title>
<polygon fill="none" stroke="#000000" points="460.96,-36 357.7802,-36 357.7802,0 460.96,0 460.96,-36"/>
<text text-anchor="start" x="365.8252" y="-13.8" font-family="Times,serif" font-size="14.00" fill="#000000">HashSet::new()</text>
</g>
<!-- _ZN5fuck1E -->
<g id="node22" class="node">
<title>_ZN5fuck1E</title>
<polygon fill="none" stroke="#000000" points="179.897,-311 179.897,-355 237.0972,-355 237.0972,-311 179.897,-311"/>
<text text-anchor="middle" x="208.4971" y="-339.8" font-family="Times,serif" font-size="14.00" fill="#000000">fuck1()</text>
<polyline fill="none" stroke="#000000" points="179.897,-333 237.0972,-333 "/>
<text text-anchor="middle" x="208.4971" y="-317.8" font-family="Times,serif" font-size="14.00" fill="#000000">args...</text>
</g>
<!-- _ZN13gen_callgraphE -->
<g id="node23" class="node">
<title>_ZN13gen_callgraphE</title>
<polygon fill="none" stroke="#000000" points="156.1865,-193 156.1865,-237 260.8076,-237 260.8076,-193 156.1865,-193"/>
<text text-anchor="middle" x="208.4971" y="-221.8" font-family="Times,serif" font-size="14.00" fill="#000000">gen_callgraph()</text>
<polyline fill="none" stroke="#000000" points="156.1865,-215 260.8076,-215 "/>
<text text-anchor="middle" x="208.4971" y="-199.8" font-family="Times,serif" font-size="14.00" fill="#000000">args...</text>
</g>
<!-- _ZN13gen_callgraphE&#45;&gt;_ZN6String4fromE -->
<g id="edge10" class="edge">
<title>_ZN13gen_callgraphE&#45;&gt;_ZN6String4fromE</title>
<path fill="none" stroke="#000000" d="M219.1766,-237.4316C233.0127,-263.6535 259.8189,-305.891 296.8076,-325 423.2525,-390.3235 474.1456,-344 616.4673,-344 616.4673,-344 616.4673,-344 758.2607,-344 861.8256,-344 893.4682,-361.1854 990.5059,-325 1011.8113,-317.0552 1032.4536,-302.0009 1047.8562,-288.8362"/>
<polygon fill="#000000" stroke="#000000" points="1050.2264,-291.4126 1055.409,-282.1718 1045.595,-286.1638 1050.2264,-291.4126"/>
</g>
<!-- _ZN13gen_callgraphE&#45;&gt;_ZN5parse27parse_crate_from_source_strE -->
<g id="edge27" class="edge">
<title>_ZN13gen_callgraphE&#45;&gt;_ZN5parse27parse_crate_from_source_strE</title>
<path fill="none" stroke="#000000" d="M237.7867,-237.0375C254.3637,-248.5984 275.9084,-262.1571 296.8076,-271 301.6009,-273.0281 306.5763,-274.9222 311.648,-276.6887"/>
<polygon fill="#000000" stroke="#000000" points="310.9044,-280.1285 321.4974,-279.9299 313.0926,-273.4793 310.9044,-280.1285"/>
</g>
<!-- _ZN13gen_callgraphE&#45;&gt;_ZN6String3newE -->
<g id="edge5" class="edge">
<title>_ZN13gen_callgraphE&#45;&gt;_ZN6String3newE</title>
<path fill="none" stroke="#000000" d="M261.0117,-222.5815C289.6073,-226.7099 324.9722,-231.8155 354.0006,-236.0063"/>
<polygon fill="#000000" stroke="#000000" points="353.585,-239.4825 363.9825,-237.4474 354.5853,-232.5543 353.585,-239.4825"/>
</g>
<!-- _ZN13gen_callgraphE&#45;&gt;_ZN11handle_itemE -->
<g id="edge22" class="edge">
<title>_ZN13gen_callgraphE&#45;&gt;_ZN11handle_itemE</title>
<path fill="none" stroke="#000000" d="M261.0117,-207.157C288.8612,-202.9978 323.1315,-197.8796 351.7158,-193.6106"/>
<polygon fill="#000000" stroke="#000000" points="352.594,-197.0183 361.9672,-192.0795 351.5599,-190.0951 352.594,-197.0183"/>
</g>
<!-- _ZN13gen_callgraphE&#45;&gt;_ZN15FilePathMapping5emptyE -->
<g id="edge19" class="edge">
<title>_ZN13gen_callgraphE&#45;&gt;_ZN15FilePathMapping5emptyE</title>
<path fill="none" stroke="#000000" d="M234.3379,-192.9106C251.1476,-179.5793 274.0966,-163.2449 296.8076,-153 303.2936,-150.0742 310.1387,-147.4412 317.1194,-145.076"/>
<polygon fill="#000000" stroke="#000000" points="318.2413,-148.392 326.7017,-142.0145 316.1108,-141.724 318.2413,-148.392"/>
</g>
<!-- _ZN13gen_callgraphE&#45;&gt;_ZN9ParseSess3newE -->
<g id="edge9" class="edge">
<title>_ZN13gen_callgraphE&#45;&gt;_ZN9ParseSess3newE</title>
<path fill="none" stroke="#000000" d="M219.248,-192.9451C233.3286,-166.4544 260.5513,-122.6382 296.8076,-99 310.7487,-89.9108 327.4492,-83.8767 343.665,-79.8722"/>
<polygon fill="#000000" stroke="#000000" points="344.6764,-83.2325 353.67,-77.632 343.1469,-76.4016 344.6764,-83.2325"/>
</g>
<!-- _ZN13gen_callgraphE&#45;&gt;_ZN7HashSet3newE -->
<g id="edge20" class="edge">
<title>_ZN13gen_callgraphE&#45;&gt;_ZN7HashSet3newE</title>
<path fill="none" stroke="#000000" d="M213.6069,-192.9559C223.2743,-156.3589 247.8111,-83.3063 296.8076,-45 311.3682,-33.6163 329.9946,-26.9271 347.8861,-23.0287"/>
<polygon fill="#000000" stroke="#000000" points="348.5606,-26.4632 357.7198,-21.1379 347.2388,-19.5891 348.5606,-26.4632"/>
</g>
<!-- _ZN15print_type_nameE -->
<g id="node25" class="node">
<title>_ZN15print_type_nameE</title>
<polygon fill="none" stroke="#000000" points="0,-468 0,-512 120.1865,-512 120.1865,-468 0,-468"/>
<text text-anchor="middle" x="60.0933" y="-496.8" font-family="Times,serif" font-size="14.00" fill="#000000">print_type_name()</text>
<polyline fill="none" stroke="#000000" points="0,-490 120.1865,-490 "/>
<text text-anchor="middle" x="60.0933" y="-474.8" font-family="Times,serif" font-size="14.00" fill="#000000">args...</text>
</g>
<!-- _ZN8manglingE -->
<g id="node26" class="node">
<title>_ZN8manglingE</title>
<polygon fill="none" stroke="#000000" points="876.9092,-100 876.9092,-144 955.1162,-144 955.1162,-100 876.9092,-100"/>
<text text-anchor="middle" x="916.0127" y="-128.8" font-family="Times,serif" font-size="14.00" fill="#000000">mangling()</text>
<polyline fill="none" stroke="#000000" points="876.9092,-122 955.1162,-122 "/>
<text text-anchor="middle" x="916.0127" y="-106.8" font-family="Times,serif" font-size="14.00" fill="#000000">args...</text>
</g>
<!-- _ZN8manglingE&#45;&gt;_ZN6String4fromE -->
<g id="edge8" class="edge">
<title>_ZN8manglingE&#45;&gt;_ZN6String4fromE</title>
<path fill="none" stroke="#000000" d="M955.2613,-133.8223C967.3046,-138.5927 980.1097,-144.9189 990.5059,-153 1020.1896,-176.0737 1044.6288,-212.2666 1059.1863,-237.0083"/>
<polygon fill="#000000" stroke="#000000" points="1056.2618,-238.9444 1064.272,-245.8788 1062.3345,-235.4627 1056.2618,-238.9444"/>
</g>
<!-- _ZN4mainE -->
<g id="node27" class="node">
<title>_ZN4mainE</title>
<polygon fill="none" stroke="#000000" points="33.0933,-405 33.0933,-449 87.0933,-449 87.0933,-405 33.0933,-405"/>
<text text-anchor="middle" x="60.0933" y="-433.8" font-family="Times,serif" font-size="14.00" fill="#000000">main()</text>
<polyline fill="none" stroke="#000000" points="33.0933,-427 87.0933,-427 "/>
<text text-anchor="middle" x="60.0933" y="-411.8" font-family="Times,serif" font-size="14.00" fill="#000000">args...</text>
</g>
<!-- _ZN4mainE&#45;&gt;_ZN8get_fileE -->
<g id="edge4" class="edge">
<title>_ZN4mainE&#45;&gt;_ZN8get_fileE</title>
<path fill="none" stroke="#000000" d="M87.1358,-436.4153C98.6181,-441.5652 111.3609,-448.9749 120.1865,-459 150.0221,-492.8903 128.3203,-518.4727 156.1865,-554 159.2164,-557.8629 162.775,-561.4711 166.5868,-564.7965"/>
<polygon fill="#000000" stroke="#000000" points="164.6687,-567.7425 174.6781,-571.2159 169.0194,-562.2588 164.6687,-567.7425"/>
</g>
<!-- _ZN4mainE&#45;&gt;_ZN4fuckE -->
<g id="edge16" class="edge">
<title>_ZN4mainE&#45;&gt;_ZN4fuckE</title>
<path fill="none" stroke="#000000" d="M87.2179,-439.7132C97.8322,-445.1269 109.9026,-451.8433 120.1865,-459 137.7577,-471.228 138.899,-478.3741 156.1865,-491 161.3335,-494.7591 166.9623,-498.4694 172.5594,-501.9447"/>
<polygon fill="#000000" stroke="#000000" points="170.8835,-505.0212 181.2548,-507.1859 174.4971,-499.026 170.8835,-505.0212"/>
</g>
<!-- _ZN4mainE&#45;&gt;_ZN12generate_dotE -->
<g id="edge23" class="edge">
<title>_ZN4mainE&#45;&gt;_ZN12generate_dotE</title>
<path fill="none" stroke="#000000" d="M87.3128,-432.8693C104.722,-436.6232 127.9927,-441.641 149.4866,-446.2757"/>
<polygon fill="#000000" stroke="#000000" points="149.0215,-449.7558 159.5346,-448.4423 150.4971,-442.9131 149.0215,-449.7558"/>
</g>
<!-- _ZN4mainE&#45;&gt;_ZN5fuck2E -->
<g id="edge7" class="edge">
<title>_ZN4mainE&#45;&gt;_ZN5fuck2E</title>
<path fill="none" stroke="#000000" d="M87.3128,-421.3141C110.4346,-416.4842 143.8958,-409.4945 169.8018,-404.083"/>
<polygon fill="#000000" stroke="#000000" points="170.6041,-407.4911 179.6771,-402.0202 169.1727,-400.639 170.6041,-407.4911"/>
</g>
<!-- _ZN4mainE&#45;&gt;_ZN5fuck1E -->
<g id="edge13" class="edge">
<title>_ZN4mainE&#45;&gt;_ZN5fuck1E</title>
<path fill="none" stroke="#000000" d="M87.3191,-409.1868C106.4979,-396.6993 132.8195,-379.6825 156.1865,-365 160.9191,-362.0263 165.9106,-358.9265 170.8558,-355.8773"/>
<polygon fill="#000000" stroke="#000000" points="172.9516,-358.6976 179.6412,-350.4817 169.2882,-352.7327 172.9516,-358.6976"/>
</g>
<!-- _ZN4mainE&#45;&gt;_ZN13gen_callgraphE -->
<g id="edge30" class="edge">
<title>_ZN4mainE&#45;&gt;_ZN13gen_callgraphE</title>
<path fill="none" stroke="#000000" d="M75.6946,-404.713C102.3597,-366.6209 156.7447,-288.93 186.9914,-245.7216"/>
<polygon fill="#000000" stroke="#000000" points="190.0146,-247.506 192.8821,-237.3065 184.28,-243.4916 190.0146,-247.506"/>
</g>
</g>
</svg>
