<?xml version="1.0" encoding="UTF-8" standalone="no"?>
<!DOCTYPE svg PUBLIC "-//W3C//DTD SVG 1.1//EN"
 "http://www.w3.org/Graphics/SVG/1.1/DTD/svg11.dtd">
<!-- Generated by graphviz version 2.40.1 (20161225.0304)
 -->
<!-- Title: demo Pages: 1 -->
<svg width="1337pt" height="782pt"
 viewBox="0.00 0.00 1336.94 782.00" xmlns="http://www.w3.org/2000/svg" xmlns:xlink="http://www.w3.org/1999/xlink">
<g id="graph0" class="graph" transform="scale(1 1) rotate(0) translate(4 778)">
<title>demo</title>
<polygon fill="#ffffff" stroke="transparent" points="-4,4 -4,-778 1332.9355,-778 1332.9355,4 -4,4"/>
<g id="clust1" class="cluster">
<title>cluster_ZT4TypeE</title>
<polygon fill="none" stroke="#000000" stroke-width="2" points="8,-460 8,-522 125.002,-522 125.002,-460 8,-460"/>
</g>
<g id="clust2" class="cluster">
<title>cluster_ZT4FuncE</title>
<polygon fill="none" stroke="#000000" stroke-width="2" points="880.9141,-403 880.9141,-528 996.5557,-528 996.5557,-403 880.9141,-403"/>
</g>
<!-- _ZN8BossKind4TypeE -->
<g id="node1" class="node">
<title>_ZN8BossKind4TypeE</title>
<polygon fill="none" stroke="#000000" points="721.9879,-376 605.7358,-376 605.7358,-340 721.9879,-340 721.9879,-376"/>
<text text-anchor="start" x="613.7988" y="-353.8" font-family="Times,serif" font-size="14.00" fill="#000000">BossKind::Type()</text>
</g>
<!-- _ZN5parse26new_parser_from_source_strE -->
<g id="node2" class="node">
<title>_ZN5parse26new_parser_from_source_strE</title>
<polygon fill="none" stroke="#000000" points="569.2861,-520 343.4502,-520 343.4502,-484 569.2861,-484 569.2861,-520"/>
<text text-anchor="start" x="351.4092" y="-497.8" font-family="Times,serif" font-size="14.00" fill="#000000">parse::new_parser_from_source_str()</text>
</g>
<!-- _ZN11handle_itemE -->
<g id="node3" class="node">
<title>_ZN11handle_itemE</title>
<polygon fill="none" stroke="#000000" points="409.106,-259 409.106,-303 503.6304,-303 503.6304,-259 409.106,-259"/>
<text text-anchor="middle" x="456.3682" y="-287.8" font-family="Times,serif" font-size="14.00" fill="#000000">handle_item()</text>
<polyline fill="none" stroke="#000000" points="409.106,-281 503.6304,-281 "/>
<text text-anchor="middle" x="456.3682" y="-265.8" font-family="Times,serif" font-size="14.00" fill="#000000">args...</text>
</g>
<!-- _ZN11handle_itemE&#45;&gt;_ZN8BossKind4TypeE -->
<g id="edge6" class="edge">
<title>_ZN11handle_itemE&#45;&gt;_ZN8BossKind4TypeE</title>
<path fill="none" stroke="#000000" d="M503.6553,-292.4945C524.1053,-297.9512 548.154,-305.0264 569.3271,-313 570.674,-313.5072 593.8379,-324.5322 616.8964,-335.5412"/>
<polygon fill="#000000" stroke="#000000" points="615.49,-338.7482 626.0221,-339.8998 618.5069,-332.4316 615.49,-338.7482"/>
</g>
<!-- _ZN11handle_stmtE -->
<g id="node4" class="node">
<title>_ZN11handle_stmtE</title>
<polygon fill="none" stroke="#000000" points="616.9824,-277 616.9824,-321 710.7412,-321 710.7412,-277 616.9824,-277"/>
<text text-anchor="middle" x="663.8618" y="-305.8" font-family="Times,serif" font-size="14.00" fill="#000000">handle_stmt()</text>
<polyline fill="none" stroke="#000000" points="616.9824,-299 710.7412,-299 "/>
<text text-anchor="middle" x="663.8618" y="-283.8" font-family="Times,serif" font-size="14.00" fill="#000000">args...</text>
</g>
<!-- _ZN11handle_itemE&#45;&gt;_ZN11handle_stmtE -->
<g id="edge11" class="edge">
<title>_ZN11handle_itemE&#45;&gt;_ZN11handle_stmtE</title>
<path fill="none" stroke="#000000" d="M503.7113,-285.107C534.255,-287.7567 574.1697,-291.2192 606.5097,-294.0247"/>
<polygon fill="#000000" stroke="#000000" points="606.4569,-297.5332 616.722,-294.9106 607.062,-290.5594 606.4569,-297.5332"/>
</g>
<!-- _ZN3Vec3newE -->
<g id="node13" class="node">
<title>_ZN3Vec3newE</title>
<polygon fill="none" stroke="#000000" points="1112.6745,-401 1034.8441,-401 1034.8441,-365 1112.6745,-365 1112.6745,-401"/>
<text text-anchor="start" x="1043.0522" y="-378.8" font-family="Times,serif" font-size="14.00" fill="#000000">Vec::new()</text>
</g>
<!-- _ZN11handle_itemE&#45;&gt;_ZN3Vec3newE -->
<g id="edge30" class="edge">
<title>_ZN11handle_itemE&#45;&gt;_ZN3Vec3newE</title>
<path fill="none" stroke="#000000" d="M503.8647,-285.6055C525.7859,-289.7995 550.959,-297.7906 569.3271,-313 596.8836,-335.8176 574.8933,-366.1909 605.3271,-385 640.2535,-406.5857 911.5744,-392.8711 1024.5961,-386.117"/>
<polygon fill="#000000" stroke="#000000" points="1024.9358,-389.603 1034.7064,-385.5061 1024.5135,-382.6157 1024.9358,-389.603"/>
</g>
<!-- _ZN8get_pathE -->
<g id="node19" class="node">
<title>_ZN8get_pathE</title>
<polygon fill="none" stroke="#000000" points="901.9692,-239 901.9692,-283 975.5005,-283 975.5005,-239 901.9692,-239"/>
<text text-anchor="middle" x="938.7349" y="-267.8" font-family="Times,serif" font-size="14.00" fill="#000000">get_path()</text>
<polyline fill="none" stroke="#000000" points="901.9692,-261 975.5005,-261 "/>
<text text-anchor="middle" x="938.7349" y="-245.8" font-family="Times,serif" font-size="14.00" fill="#000000">args...</text>
</g>
<!-- _ZN11handle_itemE&#45;&gt;_ZN8get_pathE -->
<g id="edge36" class="edge">
<title>_ZN11handle_itemE&#45;&gt;_ZN8get_pathE</title>
<path fill="none" stroke="#000000" d="M503.9296,-275.6047C533.1435,-272.521 571.3531,-268.8995 605.3271,-267 707.17,-261.3059 826.7568,-260.6076 891.4217,-260.7256"/>
<polygon fill="#000000" stroke="#000000" points="891.6892,-264.2262 901.6982,-260.7522 891.7074,-257.2262 891.6892,-264.2262"/>
</g>
<!-- _ZN12ident2stringE -->
<g id="node23" class="node">
<title>_ZN12ident2stringE</title>
<polygon fill="none" stroke="#000000" points="1027.6558,-239 1027.6558,-283 1119.8628,-283 1119.8628,-239 1027.6558,-239"/>
<text text-anchor="middle" x="1073.7593" y="-267.8" font-family="Times,serif" font-size="14.00" fill="#000000">ident2string()</text>
<polyline fill="none" stroke="#000000" points="1027.6558,-261 1119.8628,-261 "/>
<text text-anchor="middle" x="1073.7593" y="-245.8" font-family="Times,serif" font-size="14.00" fill="#000000">args...</text>
</g>
<!-- _ZN11handle_itemE&#45;&gt;_ZN12ident2stringE -->
<g id="edge2" class="edge">
<title>_ZN11handle_itemE&#45;&gt;_ZN12ident2stringE</title>
<path fill="none" stroke="#000000" d="M503.9345,-273.502C533.1502,-269.0143 571.3599,-263.3555 605.3271,-259 778.3007,-236.82 825.5207,-194.9582 996.5557,-229 1004.1598,-230.5135 1011.9534,-232.7894 1019.5259,-235.4436"/>
<polygon fill="#000000" stroke="#000000" points="1018.3762,-238.7504 1028.9686,-238.9789 1020.8307,-232.1948 1018.3762,-238.7504"/>
</g>
<!-- _ZN11handle_exprE -->
<g id="node26" class="node">
<title>_ZN11handle_exprE</title>
<polygon fill="none" stroke="#000000" points="758.3965,-277 758.3965,-321 852.9141,-321 852.9141,-277 758.3965,-277"/>
<text text-anchor="middle" x="805.6553" y="-305.8" font-family="Times,serif" font-size="14.00" fill="#000000">handle_expr()</text>
<polyline fill="none" stroke="#000000" points="758.3965,-299 852.9141,-299 "/>
<text text-anchor="middle" x="805.6553" y="-283.8" font-family="Times,serif" font-size="14.00" fill="#000000">args...</text>
</g>
<!-- _ZN11handle_stmtE&#45;&gt;_ZN11handle_exprE -->
<g id="edge5" class="edge">
<title>_ZN11handle_stmtE&#45;&gt;_ZN11handle_exprE</title>
<path fill="none" stroke="#000000" d="M711.077,-292.5965C722.9095,-292.2378 735.7364,-292.1576 748.0134,-292.356"/>
<polygon fill="#000000" stroke="#000000" points="748.0854,-295.8584 758.1628,-292.5881 748.2455,-288.8603 748.0854,-295.8584"/>
</g>
<!-- _ZN2fs14read_to_stringE -->
<g id="node5" class="node">
<title>_ZN2fs14read_to_stringE</title>
<polygon fill="none" stroke="#000000" points="518.4512,-774 394.2851,-774 394.2851,-738 518.4512,-738 518.4512,-774"/>
<text text-anchor="start" x="402.3267" y="-751.8" font-family="Times,serif" font-size="14.00" fill="#000000">fs::read_to_string()</text>
</g>
<!-- _ZN10get_pathexE -->
<g id="node6" class="node">
<title>_ZN10get_pathexE</title>
<polygon fill="none" stroke="#000000" points="895.3623,-302 895.3623,-346 982.1074,-346 982.1074,-302 895.3623,-302"/>
<text text-anchor="middle" x="938.7349" y="-330.8" font-family="Times,serif" font-size="14.00" fill="#000000">get_pathex()</text>
<polyline fill="none" stroke="#000000" points="895.3623,-324 982.1074,-324 "/>
<text text-anchor="middle" x="938.7349" y="-308.8" font-family="Times,serif" font-size="14.00" fill="#000000">args...</text>
</g>
<!-- _ZN10get_pathexE&#45;&gt;_ZN3Vec3newE -->
<g id="edge26" class="edge">
<title>_ZN10get_pathexE&#45;&gt;_ZN3Vec3newE</title>
<path fill="none" stroke="#000000" d="M982.2007,-342.9927C995.9812,-349.0142 1011.2992,-355.7076 1025.4016,-361.8697"/>
<polygon fill="#000000" stroke="#000000" points="1024.3719,-365.2393 1034.9367,-366.0362 1027.1747,-358.8249 1024.3719,-365.2393"/>
</g>
<!-- _ZN10get_pathexE&#45;&gt;_ZN12ident2stringE -->
<g id="edge27" class="edge">
<title>_ZN10get_pathexE&#45;&gt;_ZN12ident2stringE</title>
<path fill="none" stroke="#000000" d="M982.2007,-303.7196C993.7503,-298.3308 1006.3799,-292.438 1018.4686,-286.7976"/>
<polygon fill="#000000" stroke="#000000" points="1019.9985,-289.9461 1027.5807,-282.5461 1017.0387,-283.6026 1019.9985,-289.9461"/>
</g>
<!-- _ZN13write_to_fileE -->
<g id="node7" class="node">
<title>_ZN13write_to_fileE</title>
<polygon fill="none" stroke="#000000" points="407.9336,-75 407.9336,-119 504.8027,-119 504.8027,-75 407.9336,-75"/>
<text text-anchor="middle" x="456.3682" y="-103.8" font-family="Times,serif" font-size="14.00" fill="#000000">write_to_file()</text>
<polyline fill="none" stroke="#000000" points="407.9336,-97 504.8027,-97 "/>
<text text-anchor="middle" x="456.3682" y="-81.8" font-family="Times,serif" font-size="14.00" fill="#000000">args...</text>
</g>
<!-- _ZN4File6createE -->
<g id="node8" class="node">
<title>_ZN4File6createE</title>
<polygon fill="none" stroke="#000000" points="708.1523,-144 619.5713,-144 619.5713,-108 708.1523,-108 708.1523,-144"/>
<text text-anchor="start" x="627.7168" y="-121.8" font-family="Times,serif" font-size="14.00" fill="#000000">File::create()</text>
</g>
<!-- _ZN13write_to_fileE&#45;&gt;_ZN4File6createE -->
<g id="edge21" class="edge">
<title>_ZN13write_to_fileE&#45;&gt;_ZN4File6createE</title>
<path fill="none" stroke="#000000" d="M505.0162,-103.7992C536.2529,-108.165 576.8773,-113.8428 609.2233,-118.3635"/>
<polygon fill="#000000" stroke="#000000" points="609.0237,-121.8696 619.4119,-119.7875 609.9927,-114.937 609.0237,-121.8696"/>
</g>
<!-- _ZN4File4openE -->
<g id="node9" class="node">
<title>_ZN4File4openE</title>
<polygon fill="none" stroke="#000000" points="704.9586,-90 622.7651,-90 622.7651,-54 704.9586,-54 704.9586,-90"/>
<text text-anchor="start" x="630.8135" y="-67.8" font-family="Times,serif" font-size="14.00" fill="#000000">File::open()</text>
</g>
<!-- _ZN13write_to_fileE&#45;&gt;_ZN4File4openE -->
<g id="edge3" class="edge">
<title>_ZN13write_to_fileE&#45;&gt;_ZN4File4openE</title>
<path fill="none" stroke="#000000" d="M505.0162,-91.1386C537.2257,-87.2578 579.4167,-82.1744 612.2206,-78.222"/>
<polygon fill="#000000" stroke="#000000" points="613.0073,-81.6526 622.5168,-76.9815 612.1699,-74.7029 613.0073,-81.6526"/>
</g>
<!-- _ZN9BufReader3newE -->
<g id="node10" class="node">
<title>_ZN9BufReader3newE</title>
<polygon fill="none" stroke="#000000" points="722.4312,-36 605.2925,-36 605.2925,0 722.4312,0 722.4312,-36"/>
<text text-anchor="start" x="613.3271" y="-13.8" font-family="Times,serif" font-size="14.00" fill="#000000">BufReader::new()</text>
</g>
<!-- _ZN13write_to_fileE&#45;&gt;_ZN9BufReader3newE -->
<g id="edge12" class="edge">
<title>_ZN13write_to_fileE&#45;&gt;_ZN9BufReader3newE</title>
<path fill="none" stroke="#000000" d="M505.0162,-78.478C535.4111,-66.9056 574.6947,-51.949 606.5906,-39.8051"/>
<polygon fill="#000000" stroke="#000000" points="608.134,-42.9627 616.2342,-36.1335 605.6432,-36.4208 608.134,-42.9627"/>
</g>
<!-- _ZN15FilePathMapping5emptyE -->
<g id="node11" class="node">
<title>_ZN15FilePathMapping5emptyE</title>
<polygon fill="none" stroke="#000000" points="539.1859,-466 373.5505,-466 373.5505,-430 539.1859,-430 539.1859,-466"/>
<text text-anchor="start" x="381.7095" y="-443.8" font-family="Times,serif" font-size="14.00" fill="#000000">FilePathMapping::empty()</text>
</g>
<!-- _ZN7HashMap3newE -->
<g id="node12" class="node">
<title>_ZN7HashMap3newE</title>
<polygon fill="none" stroke="#000000" points="511.7306,-412 401.0058,-412 401.0058,-376 511.7306,-376 511.7306,-412"/>
<text text-anchor="start" x="408.937" y="-389.8" font-family="Times,serif" font-size="14.00" fill="#000000">HashMap::new()</text>
</g>
<!-- _ZN7HashSet3newE -->
<g id="node14" class="node">
<title>_ZN7HashSet3newE</title>
<polygon fill="none" stroke="#000000" points="507.958,-358 404.7783,-358 404.7783,-322 507.958,-322 507.958,-358"/>
<text text-anchor="start" x="412.8232" y="-335.8" font-family="Times,serif" font-size="14.00" fill="#000000">HashSet::new()</text>
</g>
<!-- _ZN8get_fileE -->
<g id="node15" class="node">
<title>_ZN8get_fileE</title>
<polygon fill="none" stroke="#000000" points="196.5469,-680 196.5469,-724 263.8643,-724 263.8643,-680 196.5469,-680"/>
<text text-anchor="middle" x="230.2056" y="-708.8" font-family="Times,serif" font-size="14.00" fill="#000000">get_file()</text>
<polyline fill="none" stroke="#000000" points="196.5469,-702 263.8643,-702 "/>
<text text-anchor="middle" x="230.2056" y="-686.8" font-family="Times,serif" font-size="14.00" fill="#000000">args...</text>
</g>
<!-- _ZN8get_fileE&#45;&gt;_ZN2fs14read_to_stringE -->
<g id="edge22" class="edge">
<title>_ZN8get_fileE&#45;&gt;_ZN2fs14read_to_stringE</title>
<path fill="none" stroke="#000000" d="M264.0644,-710.0843C295.7119,-717.6407 343.996,-729.1693 384.2636,-738.7839"/>
<polygon fill="#000000" stroke="#000000" points="383.5074,-742.2016 394.0468,-741.1198 385.1331,-735.393 383.5074,-742.2016"/>
</g>
<!-- _ZN3env4argsE -->
<g id="node24" class="node">
<title>_ZN3env4argsE</title>
<polygon fill="none" stroke="#000000" points="494.7647,-720 417.9716,-720 417.9716,-684 494.7647,-684 494.7647,-720"/>
<text text-anchor="start" x="426.1704" y="-697.8" font-family="Times,serif" font-size="14.00" fill="#000000">env::args()</text>
</g>
<!-- _ZN8get_fileE&#45;&gt;_ZN3env4argsE -->
<g id="edge38" class="edge">
<title>_ZN8get_fileE&#45;&gt;_ZN3env4argsE</title>
<path fill="none" stroke="#000000" d="M264.0644,-702C302.2813,-702 364.7588,-702 408.0835,-702"/>
<polygon fill="#000000" stroke="#000000" points="408.1118,-705.5001 418.1117,-702 408.1117,-698.5001 408.1118,-705.5001"/>
</g>
<!-- _ZN13gen_callgraphE -->
<g id="node16" class="node">
<title>_ZN13gen_callgraphE</title>
<polygon fill="none" stroke="#000000" points="177.895,-432 177.895,-476 282.5161,-476 282.5161,-432 177.895,-432"/>
<text text-anchor="middle" x="230.2056" y="-460.8" font-family="Times,serif" font-size="14.00" fill="#000000">gen_callgraph()</text>
<polyline fill="none" stroke="#000000" points="177.895,-454 282.5161,-454 "/>
<text text-anchor="middle" x="230.2056" y="-438.8" font-family="Times,serif" font-size="14.00" fill="#000000">args...</text>
</g>
<!-- _ZN13gen_callgraphE&#45;&gt;_ZN5parse26new_parser_from_source_strE -->
<g id="edge13" class="edge">
<title>_ZN13gen_callgraphE&#45;&gt;_ZN5parse26new_parser_from_source_strE</title>
<path fill="none" stroke="#000000" d="M282.6603,-465.1328C306.1362,-470.1153 334.5615,-476.1482 361.5594,-481.8781"/>
<polygon fill="#000000" stroke="#000000" points="360.9208,-485.3205 371.4296,-483.9729 362.3742,-478.473 360.9208,-485.3205"/>
</g>
<!-- _ZN13gen_callgraphE&#45;&gt;_ZN11handle_itemE -->
<g id="edge29" class="edge">
<title>_ZN13gen_callgraphE&#45;&gt;_ZN11handle_itemE</title>
<path fill="none" stroke="#000000" d="M282.7014,-439.4639C291.8478,-435.042 300.5966,-429.3359 307.4092,-422 342.1265,-384.6159 306.5676,-348.2926 343.4092,-313 358.393,-298.6461 379.3225,-290.6479 399.0995,-286.2204"/>
<polygon fill="#000000" stroke="#000000" points="399.8573,-289.6384 408.9905,-284.2686 398.5021,-282.7708 399.8573,-289.6384"/>
</g>
<!-- _ZN13gen_callgraphE&#45;&gt;_ZN15FilePathMapping5emptyE -->
<g id="edge15" class="edge">
<title>_ZN13gen_callgraphE&#45;&gt;_ZN15FilePathMapping5emptyE</title>
<path fill="none" stroke="#000000" d="M282.6603,-452.6084C306.7173,-451.9702 335.9717,-451.1941 363.5615,-450.4621"/>
<polygon fill="#000000" stroke="#000000" points="363.7345,-453.9589 373.6381,-450.1948 363.5488,-446.9613 363.7345,-453.9589"/>
</g>
<!-- _ZN13gen_callgraphE&#45;&gt;_ZN7HashMap3newE -->
<g id="edge16" class="edge">
<title>_ZN13gen_callgraphE&#45;&gt;_ZN7HashMap3newE</title>
<path fill="none" stroke="#000000" d="M282.7551,-438.0999C301.8031,-432.4905 323.5223,-426.2719 343.4092,-421 358.6777,-416.9524 375.1795,-412.8536 390.73,-409.114"/>
<polygon fill="#000000" stroke="#000000" points="391.875,-412.4391 400.7889,-406.7126 390.2495,-405.6304 391.875,-412.4391"/>
</g>
<!-- _ZN13gen_callgraphE&#45;&gt;_ZN7HashSet3newE -->
<g id="edge25" class="edge">
<title>_ZN13gen_callgraphE&#45;&gt;_ZN7HashSet3newE</title>
<path fill="none" stroke="#000000" d="M282.8793,-437.1917C291.5971,-433.0434 300.1481,-428.0183 307.4092,-422 329.9025,-403.3565 319.5121,-383.8065 343.4092,-367 358.2992,-356.528 376.7357,-350.0842 394.3653,-346.1297"/>
<polygon fill="#000000" stroke="#000000" points="395.5007,-349.472 404.6193,-344.0775 394.1268,-342.6081 395.5007,-349.472"/>
</g>
<!-- _ZN6String3newE -->
<g id="node18" class="node">
<title>_ZN6String3newE</title>
<polygon fill="none" stroke="#000000" points="501.5241,-666 411.2122,-666 411.2122,-630 501.5241,-630 501.5241,-666"/>
<text text-anchor="start" x="419.0405" y="-643.8" font-family="Times,serif" font-size="14.00" fill="#000000">String::new()</text>
</g>
<!-- _ZN13gen_callgraphE&#45;&gt;_ZN6String3newE -->
<g id="edge19" class="edge">
<title>_ZN13gen_callgraphE&#45;&gt;_ZN6String3newE</title>
<path fill="none" stroke="#000000" d="M238.8245,-476.029C254.1517,-512.1981 289.6742,-583.854 343.4092,-621 360.2875,-632.6677 381.5962,-639.3257 401.146,-643.1132"/>
<polygon fill="#000000" stroke="#000000" points="400.7267,-646.5925 411.1762,-644.8435 401.9168,-639.6944 400.7267,-646.5925"/>
</g>
<!-- _ZN6String4fromE -->
<g id="node20" class="node">
<title>_ZN6String4fromE</title>
<polygon fill="none" stroke="#000000" points="1290.9952,-342 1196.9032,-342 1196.9032,-306 1290.9952,-306 1290.9952,-342"/>
<text text-anchor="start" x="1204.6768" y="-319.8" font-family="Times,serif" font-size="14.00" fill="#000000">String::from()</text>
</g>
<!-- _ZN13gen_callgraphE&#45;&gt;_ZN6String4fromE -->
<g id="edge14" class="edge">
<title>_ZN13gen_callgraphE&#45;&gt;_ZN6String4fromE</title>
<path fill="none" stroke="#000000" d="M255.1055,-476.1681C276.7655,-493.9783 309.8656,-517.803 343.4092,-529 478.742,-574.1748 521.1883,-548 663.8618,-548 663.8618,-548 663.8618,-548 938.7349,-548 1070.6487,-548 1183.3178,-410.3263 1225.8407,-350.844"/>
<polygon fill="#000000" stroke="#000000" points="1228.9381,-352.524 1231.828,-342.3309 1223.2124,-348.4971 1228.9381,-352.524"/>
</g>
<!-- _ZN9ParseSess3newE -->
<g id="node21" class="node">
<title>_ZN9ParseSess3newE</title>
<polygon fill="none" stroke="#000000" points="512.0172,-612 400.7192,-612 400.7192,-576 512.0172,-576 512.0172,-612"/>
<text text-anchor="start" x="408.5439" y="-589.8" font-family="Times,serif" font-size="14.00" fill="#000000">ParseSess::new()</text>
</g>
<!-- _ZN13gen_callgraphE&#45;&gt;_ZN9ParseSess3newE -->
<g id="edge8" class="edge">
<title>_ZN13gen_callgraphE&#45;&gt;_ZN9ParseSess3newE</title>
<path fill="none" stroke="#000000" d="M247.8248,-476.3673C268.2806,-500.8644 304.2558,-539.636 343.4092,-562 357.8462,-570.2463 374.5515,-576.4864 390.6137,-581.1615"/>
<polygon fill="#000000" stroke="#000000" points="389.936,-584.6048 400.5056,-583.8742 391.7873,-577.8541 389.936,-584.6048"/>
</g>
<!-- _ZN17pretty_env_logger4initE -->
<g id="node17" class="node">
<title>_ZN17pretty_env_logger4initE</title>
<polygon fill="none" stroke="#000000" points="307.6133,-413 152.7978,-413 152.7978,-377 307.6133,-377 307.6133,-413"/>
<text text-anchor="start" x="161.002" y="-390.8" font-family="Times,serif" font-size="14.00" fill="#000000">pretty_env_logger::init()</text>
</g>
<!-- _ZN8get_pathE&#45;&gt;_ZN3Vec3newE -->
<g id="edge33" class="edge">
<title>_ZN8get_pathE&#45;&gt;_ZN3Vec3newE</title>
<path fill="none" stroke="#000000" d="M975.5566,-276.018C983.1759,-280.348 990.665,-285.657 996.5557,-292 1017.4067,-314.4521 1003.9894,-332.2867 1024.5557,-355 1025.5864,-356.1384 1026.6747,-357.2421 1027.8096,-358.3112"/>
<polygon fill="#000000" stroke="#000000" points="1025.8955,-361.2661 1035.8609,-364.8636 1030.314,-355.8368 1025.8955,-361.2661"/>
</g>
<!-- _ZN8get_pathE&#45;&gt;_ZN12ident2stringE -->
<g id="edge7" class="edge">
<title>_ZN8get_pathE&#45;&gt;_ZN12ident2stringE</title>
<path fill="none" stroke="#000000" d="M975.6309,-261C988.4486,-261 1003.1343,-261 1017.1726,-261"/>
<polygon fill="#000000" stroke="#000000" points="1017.2443,-264.5001 1027.2443,-261 1017.2442,-257.5001 1017.2443,-264.5001"/>
</g>
<!-- _ZN12generate_dotE -->
<g id="node22" class="node">
<title>_ZN12generate_dotE</title>
<polygon fill="none" stroke="#000000" points="181.395,-150 181.395,-194 279.0161,-194 279.0161,-150 181.395,-150"/>
<text text-anchor="middle" x="230.2056" y="-178.8" font-family="Times,serif" font-size="14.00" fill="#000000">generate_dot()</text>
<polyline fill="none" stroke="#000000" points="181.395,-172 279.0161,-172 "/>
<text text-anchor="middle" x="230.2056" y="-156.8" font-family="Times,serif" font-size="14.00" fill="#000000">args...</text>
</g>
<!-- _ZN12generate_dotE&#45;&gt;_ZN13write_to_fileE -->
<g id="edge10" class="edge">
<title>_ZN12generate_dotE&#45;&gt;_ZN13write_to_fileE</title>
<path fill="none" stroke="#000000" d="M279.2795,-155.7261C314.2219,-144.1385 361.3223,-128.5191 398.164,-116.3016"/>
<polygon fill="#000000" stroke="#000000" points="399.389,-119.5829 407.779,-113.1131 397.1856,-112.9387 399.389,-119.5829"/>
</g>
<!-- _ZN12generate_dotE&#45;&gt;_ZN6String4fromE -->
<g id="edge28" class="edge">
<title>_ZN12generate_dotE&#45;&gt;_ZN6String4fromE</title>
<path fill="none" stroke="#000000" d="M279.3066,-172C359.6902,-172 524.3916,-172 663.8618,-172 663.8618,-172 663.8618,-172 938.7349,-172 1024.4435,-172 1047.0532,-189.2044 1122.9629,-229 1158.8763,-247.8276 1194.749,-277.7405 1217.9956,-298.966"/>
<polygon fill="#000000" stroke="#000000" points="1215.6621,-301.5753 1225.3771,-305.8026 1220.4187,-296.4396 1215.6621,-301.5753"/>
</g>
<!-- _ZN12ident2stringE&#45;&gt;_ZN6String4fromE -->
<g id="edge34" class="edge">
<title>_ZN12ident2stringE&#45;&gt;_ZN6String4fromE</title>
<path fill="none" stroke="#000000" d="M1120.2644,-278.215C1140.9257,-285.8633 1165.4377,-294.937 1187.1691,-302.9814"/>
<polygon fill="#000000" stroke="#000000" points="1186.0193,-306.2879 1196.6125,-306.4771 1188.4495,-299.7232 1186.0193,-306.2879"/>
</g>
<!-- _ZN3std10intrinsics9type_nameE -->
<g id="node25" class="node">
<title>_ZN3std10intrinsics9type_nameE</title>
<polygon fill="none" stroke="#000000" points="1328.9219,-139 1158.9766,-139 1158.9766,-103 1328.9219,-103 1328.9219,-139"/>
<text text-anchor="start" x="1166.9629" y="-116.8" font-family="Times,serif" font-size="14.00" fill="#000000">std::intrinsics::type_name()</text>
</g>
<!-- _ZN11handle_exprE&#45;&gt;_ZN11handle_stmtE -->
<g id="edge17" class="edge">
<title>_ZN11handle_exprE&#45;&gt;_ZN11handle_stmtE</title>
<path fill="none" stroke="#000000" d="M758.1628,-305.4119C746.3148,-305.7662 733.4846,-305.8421 721.2163,-305.6393"/>
<polygon fill="#000000" stroke="#000000" points="721.1557,-302.1371 711.077,-305.4035 720.9929,-309.1352 721.1557,-302.1371"/>
</g>
<!-- _ZN11handle_exprE&#45;&gt;_ZN10get_pathexE -->
<g id="edge9" class="edge">
<title>_ZN11handle_exprE&#45;&gt;_ZN10get_pathexE</title>
<path fill="none" stroke="#000000" d="M852.9489,-307.8845C863.3661,-309.8414 874.4719,-311.9277 885.1186,-313.9278"/>
<polygon fill="#000000" stroke="#000000" points="884.6738,-317.4054 895.1481,-315.8119 885.9663,-310.5257 884.6738,-317.4054"/>
</g>
<!-- _ZN11handle_exprE&#45;&gt;_ZN11handle_exprE -->
<g id="edge24" class="edge">
<title>_ZN11handle_exprE&#45;&gt;_ZN11handle_exprE</title>
<path fill="none" stroke="#000000" d="M781.292,-321.0792C778.9717,-330.957 787.0928,-339.5 805.6553,-339.5 817.2568,-339.5 824.7797,-336.1629 828.2239,-331.2485"/>
<polygon fill="#000000" stroke="#000000" points="831.7273,-331.5353 830.0186,-321.0792 824.8338,-330.3188 831.7273,-331.5353"/>
</g>
<!-- _ZN11mangle_typeE -->
<g id="node27" class="node">
<title>_ZN11mangle_typeE</title>
<polygon fill="none" stroke="#000000" points="1024.9419,-302 1024.9419,-346 1122.5767,-346 1122.5767,-302 1024.9419,-302"/>
<text text-anchor="middle" x="1073.7593" y="-330.8" font-family="Times,serif" font-size="14.00" fill="#000000">mangle_type()</text>
<polyline fill="none" stroke="#000000" points="1024.9419,-324 1122.5767,-324 "/>
<text text-anchor="middle" x="1073.7593" y="-308.8" font-family="Times,serif" font-size="14.00" fill="#000000">args...</text>
</g>
<!-- _ZN11mangle_typeE&#45;&gt;_ZN6String4fromE -->
<g id="edge31" class="edge">
<title>_ZN11mangle_typeE&#45;&gt;_ZN6String4fromE</title>
<path fill="none" stroke="#000000" d="M1122.9853,-324C1142.8891,-324 1165.9975,-324 1186.6515,-324"/>
<polygon fill="#000000" stroke="#000000" points="1186.8825,-327.5001 1196.8825,-324 1186.8825,-320.5001 1186.8825,-327.5001"/>
</g>
<!-- _ZN4Func3fmtE -->
<g id="node28" class="node">
<title>_ZN4Func3fmtE</title>
<polygon fill="none" stroke="#000000" points="894.3521,-475 894.3521,-519 983.1177,-519 983.1177,-475 894.3521,-475"/>
<text text-anchor="middle" x="916.3521" y="-503.8" font-family="Times,serif" font-size="14.00" fill="#000000">Func</text>
<polyline fill="none" stroke="#000000" points="938.3521,-497 938.3521,-519 "/>
<text text-anchor="middle" x="960.7349" y="-503.8" font-family="Times,serif" font-size="14.00" fill="#000000">fmt()</text>
<polyline fill="none" stroke="#000000" points="894.3521,-497 983.1177,-497 "/>
<text text-anchor="middle" x="938.7349" y="-481.8" font-family="Times,serif" font-size="14.00" fill="#000000">args...</text>
</g>
<!-- _ZN4Func3fmtE&#45;&gt;_ZN6String4fromE -->
<g id="edge39" class="edge">
<title>_ZN4Func3fmtE&#45;&gt;_ZN6String4fromE</title>
<path fill="none" stroke="#000000" d="M983.4038,-478.553C1021.4248,-462.2332 1077.0212,-436.8917 1122.9629,-410 1154.9935,-391.2511 1189.276,-366.3792 1213.1392,-348.2076"/>
<polygon fill="#000000" stroke="#000000" points="1215.3215,-350.9447 1221.1246,-342.0805 1211.0603,-345.3911 1215.3215,-350.9447"/>
</g>
<!-- _ZN4Type6to_strE -->
<g id="node29" class="node">
<title>_ZN4Type6to_strE</title>
<polygon fill="none" stroke="#000000" points="16,-469 16,-513 117.002,-513 117.002,-469 16,-469"/>
<text text-anchor="middle" x="37.894" y="-497.8" font-family="Times,serif" font-size="14.00" fill="#000000">Type</text>
<polyline fill="none" stroke="#000000" points="59.7881,-491 59.7881,-513 "/>
<text text-anchor="middle" x="88.395" y="-497.8" font-family="Times,serif" font-size="14.00" fill="#000000">to_str()</text>
<polyline fill="none" stroke="#000000" points="16,-491 117.002,-491 "/>
<text text-anchor="middle" x="66.501" y="-475.8" font-family="Times,serif" font-size="14.00" fill="#000000">args...</text>
</g>
<!-- _ZN4Func5cloneE -->
<g id="node30" class="node">
<title>_ZN4Func5cloneE</title>
<polygon fill="none" stroke="#000000" points="888.9141,-412 888.9141,-456 988.5557,-456 988.5557,-412 888.9141,-412"/>
<text text-anchor="middle" x="910.9141" y="-440.8" font-family="Times,serif" font-size="14.00" fill="#000000">Func</text>
<polyline fill="none" stroke="#000000" points="932.9141,-434 932.9141,-456 "/>
<text text-anchor="middle" x="960.7349" y="-440.8" font-family="Times,serif" font-size="14.00" fill="#000000">clone()</text>
<polyline fill="none" stroke="#000000" points="888.9141,-434 988.5557,-434 "/>
<text text-anchor="middle" x="938.7349" y="-418.8" font-family="Times,serif" font-size="14.00" fill="#000000">args...</text>
</g>
<!-- _ZN4Func5cloneE&#45;&gt;_ZN3Vec3newE -->
<g id="edge18" class="edge">
<title>_ZN4Func5cloneE&#45;&gt;_ZN3Vec3newE</title>
<path fill="none" stroke="#000000" d="M988.6293,-415.1544C1000.7219,-410.5869 1013.6253,-405.7132 1025.6345,-401.1772"/>
<polygon fill="#000000" stroke="#000000" points="1026.9231,-404.4319 1035.0413,-397.6242 1024.4496,-397.8834 1026.9231,-404.4319"/>
</g>
<!-- _ZN4mainE -->
<g id="node31" class="node">
<title>_ZN4mainE</title>
<polygon fill="none" stroke="#000000" points="39.501,-395 39.501,-439 93.501,-439 93.501,-395 39.501,-395"/>
<text text-anchor="middle" x="66.501" y="-423.8" font-family="Times,serif" font-size="14.00" fill="#000000">main()</text>
<polyline fill="none" stroke="#000000" points="39.501,-417 93.501,-417 "/>
<text text-anchor="middle" x="66.501" y="-401.8" font-family="Times,serif" font-size="14.00" fill="#000000">args...</text>
</g>
<!-- _ZN4mainE&#45;&gt;_ZN8get_fileE -->
<g id="edge23" class="edge">
<title>_ZN4mainE&#45;&gt;_ZN8get_fileE</title>
<path fill="none" stroke="#000000" d="M93.5062,-430.5104C104.4113,-437.0213 116.4193,-445.6741 125.002,-456 179.4702,-521.532 209.8985,-619.4697 222.7704,-669.7166"/>
<polygon fill="#000000" stroke="#000000" points="219.4403,-670.8282 225.253,-679.6861 226.2328,-669.1366 219.4403,-670.8282"/>
</g>
<!-- _ZN4mainE&#45;&gt;_ZN13gen_callgraphE -->
<g id="edge4" class="edge">
<title>_ZN4mainE&#45;&gt;_ZN13gen_callgraphE</title>
<path fill="none" stroke="#000000" d="M93.5335,-423.1098C113.6565,-427.658 141.9608,-434.0552 167.5957,-439.8491"/>
<polygon fill="#000000" stroke="#000000" points="167.1122,-443.328 177.6378,-442.1188 168.6554,-436.5003 167.1122,-443.328"/>
</g>
<!-- _ZN4mainE&#45;&gt;_ZN17pretty_env_logger4initE -->
<g id="edge35" class="edge">
<title>_ZN4mainE&#45;&gt;_ZN17pretty_env_logger4initE</title>
<path fill="none" stroke="#000000" d="M93.5335,-413.3671C107.3258,-411.5136 124.9615,-409.1436 142.9467,-406.7266"/>
<polygon fill="#000000" stroke="#000000" points="143.5076,-410.1828 152.9523,-405.3819 142.5752,-403.2451 143.5076,-410.1828"/>
</g>
<!-- _ZN4mainE&#45;&gt;_ZN12generate_dotE -->
<g id="edge37" class="edge">
<title>_ZN4mainE&#45;&gt;_ZN12generate_dotE</title>
<path fill="none" stroke="#000000" d="M81.3174,-394.8258C110.6453,-350.9337 176.1465,-252.9048 209.6338,-202.7877"/>
<polygon fill="#000000" stroke="#000000" points="212.6591,-204.5599 215.3047,-194.3006 206.8388,-200.6708 212.6591,-204.5599"/>
</g>
<!-- _ZN11mangle_funcE -->
<g id="node32" class="node">
<title>_ZN11mangle_funcE</title>
<polygon fill="none" stroke="#000000" points="1024.5557,-577 1024.5557,-621 1122.9629,-621 1122.9629,-577 1024.5557,-577"/>
<text text-anchor="middle" x="1073.7593" y="-605.8" font-family="Times,serif" font-size="14.00" fill="#000000">mangle_func()</text>
<polyline fill="none" stroke="#000000" points="1024.5557,-599 1122.9629,-599 "/>
<text text-anchor="middle" x="1073.7593" y="-583.8" font-family="Times,serif" font-size="14.00" fill="#000000">args...</text>
</g>
<!-- _ZN11mangle_funcE&#45;&gt;_ZN6String4fromE -->
<g id="edge20" class="edge">
<title>_ZN11mangle_funcE&#45;&gt;_ZN6String4fromE</title>
<path fill="none" stroke="#000000" d="M1107.5998,-576.8318C1113.1271,-572.3263 1118.4971,-567.3217 1122.9629,-562 1178.8968,-495.3452 1217.8561,-398.4662 1234.6583,-351.5325"/>
<polygon fill="#000000" stroke="#000000" points="1237.9809,-352.6344 1237.997,-342.0396 1231.3774,-350.3119 1237.9809,-352.6344"/>
</g>
<!-- _ZN9type_nameE -->
<g id="node33" class="node">
<title>_ZN9type_nameE</title>
<polygon fill="none" stroke="#000000" points="1030.3867,-99 1030.3867,-143 1117.1318,-143 1117.1318,-99 1030.3867,-99"/>
<text text-anchor="middle" x="1073.7593" y="-127.8" font-family="Times,serif" font-size="14.00" fill="#000000">type_name()</text>
<polyline fill="none" stroke="#000000" points="1030.3867,-121 1117.1318,-121 "/>
<text text-anchor="middle" x="1073.7593" y="-105.8" font-family="Times,serif" font-size="14.00" fill="#000000">args...</text>
</g>
<!-- _ZN9type_nameE&#45;&gt;_ZN6String4fromE -->
<g id="edge1" class="edge">
<title>_ZN9type_nameE&#45;&gt;_ZN6String4fromE</title>
<path fill="none" stroke="#000000" d="M1106.1399,-143.1785C1111.9998,-147.7851 1117.8623,-152.8226 1122.9629,-158 1166.4993,-202.1922 1206.7325,-262.9744 1228.0493,-297.3952"/>
<polygon fill="#000000" stroke="#000000" points="1225.0896,-299.2641 1233.2997,-305.9608 1231.0576,-295.6059 1225.0896,-299.2641"/>
</g>
<!-- _ZN9type_nameE&#45;&gt;_ZN3std10intrinsics9type_nameE -->
<g id="edge32" class="edge">
<title>_ZN9type_nameE&#45;&gt;_ZN3std10intrinsics9type_nameE</title>
<path fill="none" stroke="#000000" d="M1117.1457,-121C1126.9478,-121 1137.7308,-121 1148.743,-121"/>
<polygon fill="#000000" stroke="#000000" points="1148.8991,-124.5001 1158.899,-121 1148.899,-117.5001 1148.8991,-124.5001"/>
</g>
</g>
</svg>
