<?xml version="1.0" encoding="UTF-8" standalone="no"?>
<!DOCTYPE svg PUBLIC "-//W3C//DTD SVG 1.1//EN"
 "http://www.w3.org/Graphics/SVG/1.1/DTD/svg11.dtd">
<!-- Generated by graphviz version 2.40.1 (20161225.0304)
 -->
<!-- Title: demo Pages: 1 -->
<svg width="1369pt" height="733pt"
 viewBox="0.00 0.00 1369.04 732.50" xmlns="http://www.w3.org/2000/svg" xmlns:xlink="http://www.w3.org/1999/xlink">
<g id="graph0" class="graph" transform="scale(1 1) rotate(0) translate(4 728.5)">
<title>demo</title>
<polygon fill="#ffffff" stroke="transparent" points="-4,4 -4,-728.5 1365.0371,-728.5 1365.0371,4 -4,4"/>
<g id="clust1" class="cluster">
<title>cluster_ZT4FuncE</title>
<polygon fill="none" stroke="#000000" stroke-width="2" points="913.0156,-301.5 913.0156,-426.5 1028.6572,-426.5 1028.6572,-301.5 913.0156,-301.5"/>
</g>
<g id="clust2" class="cluster">
<title>cluster_ZT4TypeE</title>
<polygon fill="none" stroke="#000000" stroke-width="2" points="24.0508,-654.5 24.0508,-716.5 141.0527,-716.5 141.0527,-654.5 24.0508,-654.5"/>
</g>
<g id="clust3" class="cluster">
<title>cluster_ZT7impltmp1BE</title>
<polygon fill="none" stroke="#000000" stroke-width="2" points="8,-521.5 8,-646.5 157.1035,-646.5 157.1035,-521.5 8,-521.5"/>
</g>
<!-- _ZN6String4fromE -->
<g id="node1" class="node">
<title>_ZN6String4fromE</title>
<polygon fill="none" stroke="#000000" points="1323.0968,-242.5 1229.0048,-242.5 1229.0048,-206.5 1323.0968,-206.5 1323.0968,-242.5"/>
<text text-anchor="start" x="1236.7783" y="-220.3" font-family="Times,serif" font-size="14.00" fill="#000000">String::from()</text>
</g>
<!-- _ZN11handle_exprE -->
<g id="node2" class="node">
<title>_ZN11handle_exprE</title>
<polygon fill="none" stroke="#000000" points="790.498,-140.5 790.498,-184.5 885.0156,-184.5 885.0156,-140.5 790.498,-140.5"/>
<text text-anchor="middle" x="837.7568" y="-169.3" font-family="Times,serif" font-size="14.00" fill="#000000">handle_expr()</text>
<polyline fill="none" stroke="#000000" points="790.498,-162.5 885.0156,-162.5 "/>
<text text-anchor="middle" x="837.7568" y="-147.3" font-family="Times,serif" font-size="14.00" fill="#000000">args...</text>
</g>
<!-- _ZN11handle_exprE&#45;&gt;_ZN11handle_exprE -->
<g id="edge38" class="edge">
<title>_ZN11handle_exprE&#45;&gt;_ZN11handle_exprE</title>
<path fill="none" stroke="#000000" d="M813.3936,-184.5792C811.0732,-194.457 819.1943,-203 837.7568,-203 849.3584,-203 856.8813,-199.6629 860.3255,-194.7485"/>
<polygon fill="#000000" stroke="#000000" points="863.8289,-195.0353 862.1201,-184.5792 856.9354,-193.8188 863.8289,-195.0353"/>
</g>
<!-- _ZN10get_pathexE -->
<g id="node11" class="node">
<title>_ZN10get_pathexE</title>
<polygon fill="none" stroke="#000000" points="927.4639,-140.5 927.4639,-184.5 1014.209,-184.5 1014.209,-140.5 927.4639,-140.5"/>
<text text-anchor="middle" x="970.8364" y="-169.3" font-family="Times,serif" font-size="14.00" fill="#000000">get_pathex()</text>
<polyline fill="none" stroke="#000000" points="927.4639,-162.5 1014.209,-162.5 "/>
<text text-anchor="middle" x="970.8364" y="-147.3" font-family="Times,serif" font-size="14.00" fill="#000000">args...</text>
</g>
<!-- _ZN11handle_exprE&#45;&gt;_ZN10get_pathexE -->
<g id="edge40" class="edge">
<title>_ZN11handle_exprE&#45;&gt;_ZN10get_pathexE</title>
<path fill="none" stroke="#000000" d="M885.0504,-162.5C895.4676,-162.5 906.5734,-162.5 917.2201,-162.5"/>
<polygon fill="#000000" stroke="#000000" points="917.2497,-166.0001 927.2497,-162.5 917.2496,-159.0001 917.2497,-166.0001"/>
</g>
<!-- _ZN11handle_stmtE -->
<g id="node26" class="node">
<title>_ZN11handle_stmtE</title>
<polygon fill="none" stroke="#000000" points="649.084,-140.5 649.084,-184.5 742.8428,-184.5 742.8428,-140.5 649.084,-140.5"/>
<text text-anchor="middle" x="695.9634" y="-169.3" font-family="Times,serif" font-size="14.00" fill="#000000">handle_stmt()</text>
<polyline fill="none" stroke="#000000" points="649.084,-162.5 742.8428,-162.5 "/>
<text text-anchor="middle" x="695.9634" y="-147.3" font-family="Times,serif" font-size="14.00" fill="#000000">args...</text>
</g>
<!-- _ZN11handle_exprE&#45;&gt;_ZN11handle_stmtE -->
<g id="edge5" class="edge">
<title>_ZN11handle_exprE&#45;&gt;_ZN11handle_stmtE</title>
<path fill="none" stroke="#000000" d="M790.2644,-168.9119C778.4164,-169.2662 765.5862,-169.3421 753.3179,-169.1393"/>
<polygon fill="#000000" stroke="#000000" points="753.2573,-165.6371 743.1785,-168.9035 753.0944,-172.6352 753.2573,-165.6371"/>
</g>
<!-- _ZN9BufReader3newE -->
<g id="node3" class="node">
<title>_ZN9BufReader3newE</title>
<polygon fill="none" stroke="#000000" points="754.5327,-510.5 637.394,-510.5 637.394,-474.5 754.5327,-474.5 754.5327,-510.5"/>
<text text-anchor="start" x="645.4287" y="-488.3" font-family="Times,serif" font-size="14.00" fill="#000000">BufReader::new()</text>
</g>
<!-- _ZN4File6createE -->
<g id="node4" class="node">
<title>_ZN4File6createE</title>
<polygon fill="none" stroke="#000000" points="740.2539,-618.5 651.6729,-618.5 651.6729,-582.5 740.2539,-582.5 740.2539,-618.5"/>
<text text-anchor="start" x="659.8184" y="-596.3" font-family="Times,serif" font-size="14.00" fill="#000000">File::create()</text>
</g>
<!-- _ZN11handle_itemE -->
<g id="node5" class="node">
<title>_ZN11handle_itemE</title>
<polygon fill="none" stroke="#000000" points="441.2075,-264.5 441.2075,-308.5 535.7319,-308.5 535.7319,-264.5 441.2075,-264.5"/>
<text text-anchor="middle" x="488.4697" y="-293.3" font-family="Times,serif" font-size="14.00" fill="#000000">handle_item()</text>
<polyline fill="none" stroke="#000000" points="441.2075,-286.5 535.7319,-286.5 "/>
<text text-anchor="middle" x="488.4697" y="-271.3" font-family="Times,serif" font-size="14.00" fill="#000000">args...</text>
</g>
<!-- _ZN3Vec3newE -->
<g id="node15" class="node">
<title>_ZN3Vec3newE</title>
<polygon fill="none" stroke="#000000" points="1144.776,-301.5 1066.9457,-301.5 1066.9457,-265.5 1144.776,-265.5 1144.776,-301.5"/>
<text text-anchor="start" x="1075.1538" y="-279.3" font-family="Times,serif" font-size="14.00" fill="#000000">Vec::new()</text>
</g>
<!-- _ZN11handle_itemE&#45;&gt;_ZN3Vec3newE -->
<g id="edge2" class="edge">
<title>_ZN11handle_itemE&#45;&gt;_ZN3Vec3newE</title>
<path fill="none" stroke="#000000" d="M535.9678,-293.717C565.1586,-297.7841 603.3661,-302.4494 637.4287,-304.5 689.3655,-307.6266 702.4904,-306.0528 754.498,-304.5 862.5633,-301.2735 989.0746,-292.477 1056.9243,-287.3501"/>
<polygon fill="#000000" stroke="#000000" points="1057.1938,-290.8399 1066.8993,-286.5909 1056.6625,-283.86 1057.1938,-290.8399"/>
</g>
<!-- _ZN8BossKind4TypeE -->
<g id="node18" class="node">
<title>_ZN8BossKind4TypeE</title>
<polygon fill="none" stroke="#000000" points="754.0894,-295.5 637.8373,-295.5 637.8373,-259.5 754.0894,-259.5 754.0894,-295.5"/>
<text text-anchor="start" x="645.9004" y="-273.3" font-family="Times,serif" font-size="14.00" fill="#000000">BossKind::Type()</text>
</g>
<!-- _ZN11handle_itemE&#45;&gt;_ZN8BossKind4TypeE -->
<g id="edge25" class="edge">
<title>_ZN11handle_itemE&#45;&gt;_ZN8BossKind4TypeE</title>
<path fill="none" stroke="#000000" d="M535.8129,-284.4465C563.0005,-283.2672 597.613,-281.7659 627.6991,-280.461"/>
<polygon fill="#000000" stroke="#000000" points="627.8725,-283.9568 637.7114,-280.0267 627.5691,-276.9634 627.8725,-283.9568"/>
</g>
<!-- _ZN12ident2stringE -->
<g id="node23" class="node">
<title>_ZN12ident2stringE</title>
<polygon fill="none" stroke="#000000" points="1059.7573,-139.5 1059.7573,-183.5 1151.9644,-183.5 1151.9644,-139.5 1059.7573,-139.5"/>
<text text-anchor="middle" x="1105.8608" y="-168.3" font-family="Times,serif" font-size="14.00" fill="#000000">ident2string()</text>
<polyline fill="none" stroke="#000000" points="1059.7573,-161.5 1151.9644,-161.5 "/>
<text text-anchor="middle" x="1105.8608" y="-146.3" font-family="Times,serif" font-size="14.00" fill="#000000">args...</text>
</g>
<!-- _ZN11handle_itemE&#45;&gt;_ZN12ident2stringE -->
<g id="edge1" class="edge">
<title>_ZN11handle_itemE&#45;&gt;_ZN12ident2stringE</title>
<path fill="none" stroke="#000000" d="M535.8292,-283.5507C558.3885,-279.7799 584.1496,-271.6671 601.4287,-254.5 642.1389,-214.0535 591.5407,-164.9605 637.4287,-130.5 706.9481,-78.2931 943.2972,-114.0026 1028.6572,-130.5 1035.6769,-131.8567 1042.8684,-133.8477 1049.9028,-136.1771"/>
<polygon fill="#000000" stroke="#000000" points="1048.7723,-139.4897 1059.367,-139.5354 1051.1132,-132.8927 1048.7723,-139.4897"/>
</g>
<!-- _ZN11handle_itemE&#45;&gt;_ZN11handle_stmtE -->
<g id="edge37" class="edge">
<title>_ZN11handle_itemE&#45;&gt;_ZN11handle_stmtE</title>
<path fill="none" stroke="#000000" d="M535.7557,-278.868C556.8868,-274.0453 581.4699,-266.3982 601.4287,-254.5 621.1364,-242.7515 621.0642,-233.5818 637.4287,-217.5 646.0442,-209.0333 655.5313,-199.999 664.3137,-191.7507"/>
<polygon fill="#000000" stroke="#000000" points="666.8983,-194.1257 671.8106,-184.7385 662.1165,-189.0135 666.8983,-194.1257"/>
</g>
<!-- _ZN8get_pathE -->
<g id="node27" class="node">
<title>_ZN8get_pathE</title>
<polygon fill="none" stroke="#000000" points="934.0708,-208.5 934.0708,-252.5 1007.6021,-252.5 1007.6021,-208.5 934.0708,-208.5"/>
<text text-anchor="middle" x="970.8364" y="-237.3" font-family="Times,serif" font-size="14.00" fill="#000000">get_path()</text>
<polyline fill="none" stroke="#000000" points="934.0708,-230.5 1007.6021,-230.5 "/>
<text text-anchor="middle" x="970.8364" y="-215.3" font-family="Times,serif" font-size="14.00" fill="#000000">args...</text>
</g>
<!-- _ZN11handle_itemE&#45;&gt;_ZN8get_pathE -->
<g id="edge11" class="edge">
<title>_ZN11handle_itemE&#45;&gt;_ZN8get_pathE</title>
<path fill="none" stroke="#000000" d="M536.0102,-272.7316C565.0529,-264.8924 603.0908,-255.6378 637.4287,-250.5 738.4726,-235.3814 858.3602,-231.5998 923.2903,-230.7113"/>
<polygon fill="#000000" stroke="#000000" points="923.6531,-234.2073 933.6106,-230.5883 923.5696,-227.2078 923.6531,-234.2073"/>
</g>
<!-- _ZN12generate_dotE -->
<g id="node6" class="node">
<title>_ZN12generate_dotE</title>
<polygon fill="none" stroke="#000000" points="213.4966,-424.5 213.4966,-468.5 311.1177,-468.5 311.1177,-424.5 213.4966,-424.5"/>
<text text-anchor="middle" x="262.3071" y="-453.3" font-family="Times,serif" font-size="14.00" fill="#000000">generate_dot()</text>
<polyline fill="none" stroke="#000000" points="213.4966,-446.5 311.1177,-446.5 "/>
<text text-anchor="middle" x="262.3071" y="-431.3" font-family="Times,serif" font-size="14.00" fill="#000000">args...</text>
</g>
<!-- _ZN12generate_dotE&#45;&gt;_ZN6String4fromE -->
<g id="edge12" class="edge">
<title>_ZN12generate_dotE&#45;&gt;_ZN6String4fromE</title>
<path fill="none" stroke="#000000" d="M311.4081,-446.5C391.7917,-446.5 556.4932,-446.5 695.9634,-446.5 695.9634,-446.5 695.9634,-446.5 970.8364,-446.5 1102.3391,-446.5 1215.2418,-310.0555 1257.8847,-251.1043"/>
<polygon fill="#000000" stroke="#000000" points="1260.9426,-252.8439 1263.8895,-242.6672 1255.2395,-248.785 1260.9426,-252.8439"/>
</g>
<!-- _ZN13write_to_fileE -->
<g id="node19" class="node">
<title>_ZN13write_to_fileE</title>
<polygon fill="none" stroke="#000000" points="440.0352,-475.5 440.0352,-519.5 536.9043,-519.5 536.9043,-475.5 440.0352,-475.5"/>
<text text-anchor="middle" x="488.4697" y="-504.3" font-family="Times,serif" font-size="14.00" fill="#000000">write_to_file()</text>
<polyline fill="none" stroke="#000000" points="440.0352,-497.5 536.9043,-497.5 "/>
<text text-anchor="middle" x="488.4697" y="-482.3" font-family="Times,serif" font-size="14.00" fill="#000000">args...</text>
</g>
<!-- _ZN12generate_dotE&#45;&gt;_ZN13write_to_fileE -->
<g id="edge34" class="edge">
<title>_ZN12generate_dotE&#45;&gt;_ZN13write_to_fileE</title>
<path fill="none" stroke="#000000" d="M311.381,-457.5662C346.1748,-465.4123 393.0232,-475.9767 429.7947,-484.2687"/>
<polygon fill="#000000" stroke="#000000" points="429.3556,-487.7575 439.8806,-486.5431 430.8955,-480.929 429.3556,-487.7575"/>
</g>
<!-- _ZN4File4openE -->
<g id="node7" class="node">
<title>_ZN4File4openE</title>
<polygon fill="none" stroke="#000000" points="737.0601,-564.5 654.8666,-564.5 654.8666,-528.5 737.0601,-528.5 737.0601,-564.5"/>
<text text-anchor="start" x="662.915" y="-542.3" font-family="Times,serif" font-size="14.00" fill="#000000">File::open()</text>
</g>
<!-- _ZN7HashMap3newE -->
<g id="node8" class="node">
<title>_ZN7HashMap3newE</title>
<polygon fill="none" stroke="#000000" points="543.8321,-191.5 433.1073,-191.5 433.1073,-155.5 543.8321,-155.5 543.8321,-191.5"/>
<text text-anchor="start" x="441.0386" y="-169.3" font-family="Times,serif" font-size="14.00" fill="#000000">HashMap::new()</text>
</g>
<!-- _ZN3std10intrinsics9type_nameE -->
<g id="node9" class="node">
<title>_ZN3std10intrinsics9type_nameE</title>
<polygon fill="none" stroke="#000000" points="1361.0234,-40.5 1191.0781,-40.5 1191.0781,-4.5 1361.0234,-4.5 1361.0234,-40.5"/>
<text text-anchor="start" x="1199.0645" y="-18.3" font-family="Times,serif" font-size="14.00" fill="#000000">std::intrinsics::type_name()</text>
</g>
<!-- _ZN3env4argsE -->
<g id="node10" class="node">
<title>_ZN3env4argsE</title>
<polygon fill="none" stroke="#000000" points="526.8663,-628.5 450.0732,-628.5 450.0732,-592.5 526.8663,-592.5 526.8663,-628.5"/>
<text text-anchor="start" x="458.272" y="-606.3" font-family="Times,serif" font-size="14.00" fill="#000000">env::args()</text>
</g>
<!-- _ZN10get_pathexE&#45;&gt;_ZN3Vec3newE -->
<g id="edge13" class="edge">
<title>_ZN10get_pathexE&#45;&gt;_ZN3Vec3newE</title>
<path fill="none" stroke="#000000" d="M1012.8419,-184.665C1018.5728,-188.7837 1024.0567,-193.4134 1028.6572,-198.5 1047.5899,-219.4331 1037.3146,-234.945 1056.6572,-255.5 1057.7097,-256.6184 1058.8169,-257.7046 1059.9684,-258.7583"/>
<polygon fill="#000000" stroke="#000000" points="1058.0961,-261.7419 1068.0971,-265.2393 1062.46,-256.2686 1058.0961,-261.7419"/>
</g>
<!-- _ZN10get_pathexE&#45;&gt;_ZN12ident2stringE -->
<g id="edge32" class="edge">
<title>_ZN10get_pathexE&#45;&gt;_ZN12ident2stringE</title>
<path fill="none" stroke="#000000" d="M1014.3022,-162.1781C1025.5121,-162.0951 1037.7395,-162.0045 1049.5022,-161.9174"/>
<polygon fill="#000000" stroke="#000000" points="1049.7085,-165.4161 1059.6823,-161.842 1049.6566,-158.4163 1049.7085,-165.4161"/>
</g>
<!-- _ZN9ParseSess3newE -->
<g id="node12" class="node">
<title>_ZN9ParseSess3newE</title>
<polygon fill="none" stroke="#000000" points="544.1187,-137.5 432.8207,-137.5 432.8207,-101.5 544.1187,-101.5 544.1187,-137.5"/>
<text text-anchor="start" x="440.6455" y="-115.3" font-family="Times,serif" font-size="14.00" fill="#000000">ParseSess::new()</text>
</g>
<!-- _ZN6String3newE -->
<g id="node13" class="node">
<title>_ZN6String3newE</title>
<polygon fill="none" stroke="#000000" points="533.6257,-45.5 443.3138,-45.5 443.3138,-9.5 533.6257,-9.5 533.6257,-45.5"/>
<text text-anchor="start" x="451.1421" y="-23.3" font-family="Times,serif" font-size="14.00" fill="#000000">String::new()</text>
</g>
<!-- _ZN7HashSet3newE -->
<g id="node14" class="node">
<title>_ZN7HashSet3newE</title>
<polygon fill="none" stroke="#000000" points="540.0596,-417.5 436.8798,-417.5 436.8798,-381.5 540.0596,-381.5 540.0596,-417.5"/>
<text text-anchor="start" x="444.9248" y="-395.3" font-family="Times,serif" font-size="14.00" fill="#000000">HashSet::new()</text>
</g>
<!-- _ZN17pretty_env_logger4initE -->
<g id="node16" class="node">
<title>_ZN17pretty_env_logger4initE</title>
<polygon fill="none" stroke="#000000" points="339.7149,-216.5 184.8994,-216.5 184.8994,-180.5 339.7149,-180.5 339.7149,-216.5"/>
<text text-anchor="start" x="193.1035" y="-194.3" font-family="Times,serif" font-size="14.00" fill="#000000">pretty_env_logger::init()</text>
</g>
<!-- _ZN2fs14read_to_stringE -->
<g id="node17" class="node">
<title>_ZN2fs14read_to_stringE</title>
<polygon fill="none" stroke="#000000" points="550.5528,-574.5 426.3867,-574.5 426.3867,-538.5 550.5528,-538.5 550.5528,-574.5"/>
<text text-anchor="start" x="434.4282" y="-552.3" font-family="Times,serif" font-size="14.00" fill="#000000">fs::read_to_string()</text>
</g>
<!-- _ZN13write_to_fileE&#45;&gt;_ZN9BufReader3newE -->
<g id="edge21" class="edge">
<title>_ZN13write_to_fileE&#45;&gt;_ZN9BufReader3newE</title>
<path fill="none" stroke="#000000" d="M537.1178,-496.3277C563.9052,-495.6822 597.5965,-494.8704 627.0502,-494.1606"/>
<polygon fill="#000000" stroke="#000000" points="627.3606,-497.6542 637.2733,-493.9143 627.1919,-490.6563 627.3606,-497.6542"/>
</g>
<!-- _ZN13write_to_fileE&#45;&gt;_ZN4File6createE -->
<g id="edge15" class="edge">
<title>_ZN13write_to_fileE&#45;&gt;_ZN4File6createE</title>
<path fill="none" stroke="#000000" d="M537.0844,-504.5363C558.1189,-509.2199 582.2553,-516.9228 601.4287,-529.5 622.5558,-543.3588 617.4467,-558.0359 637.4287,-573.5 639.1905,-574.8635 641.0322,-576.1781 642.9308,-577.4433"/>
<polygon fill="#000000" stroke="#000000" points="641.1827,-580.4765 651.5476,-582.672 644.8141,-574.4921 641.1827,-580.4765"/>
</g>
<!-- _ZN13write_to_fileE&#45;&gt;_ZN4File4openE -->
<g id="edge23" class="edge">
<title>_ZN13write_to_fileE&#45;&gt;_ZN4File4openE</title>
<path fill="none" stroke="#000000" d="M537.1178,-508.9883C569.4667,-516.6276 611.8837,-526.6444 644.7476,-534.4053"/>
<polygon fill="#000000" stroke="#000000" points="644.0816,-537.8442 654.6184,-536.7363 645.6905,-531.0316 644.0816,-537.8442"/>
</g>
<!-- _ZN15FilePathMapping5emptyE -->
<g id="node20" class="node">
<title>_ZN15FilePathMapping5emptyE</title>
<polygon fill="none" stroke="#000000" points="571.2874,-363.5 405.652,-363.5 405.652,-327.5 571.2874,-327.5 571.2874,-363.5"/>
<text text-anchor="start" x="413.811" y="-341.3" font-family="Times,serif" font-size="14.00" fill="#000000">FilePathMapping::empty()</text>
</g>
<!-- _ZN13gen_callgraphE -->
<g id="node21" class="node">
<title>_ZN13gen_callgraphE</title>
<polygon fill="none" stroke="#000000" points="209.9966,-235.5 209.9966,-279.5 314.6177,-279.5 314.6177,-235.5 209.9966,-235.5"/>
<text text-anchor="middle" x="262.3071" y="-264.3" font-family="Times,serif" font-size="14.00" fill="#000000">gen_callgraph()</text>
<polyline fill="none" stroke="#000000" points="209.9966,-257.5 314.6177,-257.5 "/>
<text text-anchor="middle" x="262.3071" y="-242.3" font-family="Times,serif" font-size="14.00" fill="#000000">args...</text>
</g>
<!-- _ZN13gen_callgraphE&#45;&gt;_ZN6String4fromE -->
<g id="edge18" class="edge">
<title>_ZN13gen_callgraphE&#45;&gt;_ZN6String4fromE</title>
<path fill="none" stroke="#000000" d="M314.7312,-243.45C323.9946,-238.9774 332.8053,-233.1283 339.5107,-225.5 379.941,-179.5053 328.003,-131.1412 375.5107,-92.5 430.8527,-47.4867 624.6266,-73.5 695.9634,-73.5 695.9634,-73.5 695.9634,-73.5 970.8364,-73.5 1056.4147,-73.5 1079.1718,-89.9531 1155.0645,-129.5 1191.0245,-148.2384 1226.8884,-178.1679 1250.1203,-199.4217"/>
<polygon fill="#000000" stroke="#000000" points="1247.7862,-202.0305 1257.4966,-206.2682 1252.5483,-196.8999 1247.7862,-202.0305"/>
</g>
<!-- _ZN13gen_callgraphE&#45;&gt;_ZN11handle_itemE -->
<g id="edge22" class="edge">
<title>_ZN13gen_callgraphE&#45;&gt;_ZN11handle_itemE</title>
<path fill="none" stroke="#000000" d="M314.7618,-264.2261C349.4415,-268.6729 394.922,-274.5047 430.6464,-279.0855"/>
<polygon fill="#000000" stroke="#000000" points="430.5568,-282.6026 440.9208,-280.403 431.4472,-275.6595 430.5568,-282.6026"/>
</g>
<!-- _ZN13gen_callgraphE&#45;&gt;_ZN7HashMap3newE -->
<g id="edge16" class="edge">
<title>_ZN13gen_callgraphE&#45;&gt;_ZN7HashMap3newE</title>
<path fill="none" stroke="#000000" d="M314.9293,-237.4702C323.2943,-233.7807 331.7435,-229.7429 339.5107,-225.5 356.6061,-216.1616 357.7305,-208.4574 375.5107,-200.5 390.3708,-193.8496 407.0939,-188.7083 423.0267,-184.7859"/>
<polygon fill="#000000" stroke="#000000" points="423.8792,-188.181 432.8212,-182.4985 422.2873,-181.3644 423.8792,-188.181"/>
</g>
<!-- _ZN13gen_callgraphE&#45;&gt;_ZN9ParseSess3newE -->
<g id="edge17" class="edge">
<title>_ZN13gen_callgraphE&#45;&gt;_ZN9ParseSess3newE</title>
<path fill="none" stroke="#000000" d="M314.9812,-241.972C323.8985,-237.6643 332.5188,-232.2538 339.5107,-225.5 367.2629,-198.6931 345.7258,-171.0285 375.5107,-146.5 388.8472,-135.5171 405.9104,-128.8616 422.7117,-124.8669"/>
<polygon fill="#000000" stroke="#000000" points="423.4724,-128.2837 432.5436,-122.8098 422.0388,-121.432 423.4724,-128.2837"/>
</g>
<!-- _ZN13gen_callgraphE&#45;&gt;_ZN6String3newE -->
<g id="edge28" class="edge">
<title>_ZN13gen_callgraphE&#45;&gt;_ZN6String3newE</title>
<path fill="none" stroke="#000000" d="M314.6451,-243.9075C324.0295,-239.3901 332.9082,-233.4074 339.5107,-225.5 387.8965,-167.5519 323.8231,-114.5232 375.5107,-59.5 390.382,-43.6691 412.4452,-35.473 433.1363,-31.2987"/>
<polygon fill="#000000" stroke="#000000" points="433.8942,-34.7195 443.146,-29.5567 432.6939,-27.8231 433.8942,-34.7195"/>
</g>
<!-- _ZN13gen_callgraphE&#45;&gt;_ZN7HashSet3newE -->
<g id="edge3" class="edge">
<title>_ZN13gen_callgraphE&#45;&gt;_ZN7HashSet3newE</title>
<path fill="none" stroke="#000000" d="M278.0087,-279.7878C297.7253,-306.0562 334.0372,-349.086 375.5107,-372.5 391.0692,-381.2836 409.3903,-387.2214 426.6977,-391.2311"/>
<polygon fill="#000000" stroke="#000000" points="426.2318,-394.7105 436.7423,-393.3761 427.6937,-387.8648 426.2318,-394.7105"/>
</g>
<!-- _ZN13gen_callgraphE&#45;&gt;_ZN15FilePathMapping5emptyE -->
<g id="edge24" class="edge">
<title>_ZN13gen_callgraphE&#45;&gt;_ZN15FilePathMapping5emptyE</title>
<path fill="none" stroke="#000000" d="M298.4572,-279.5828C320.1735,-292.0978 348.709,-307.253 375.5107,-317.5 382.1278,-320.0299 389.0512,-322.392 396.073,-324.5848"/>
<polygon fill="#000000" stroke="#000000" points="395.1056,-327.9487 405.6896,-327.47 397.1172,-321.2439 395.1056,-327.9487"/>
</g>
<!-- _ZN5parse26new_parser_from_source_strE -->
<g id="node24" class="node">
<title>_ZN5parse26new_parser_from_source_strE</title>
<polygon fill="none" stroke="#000000" points="601.3877,-245.5 375.5517,-245.5 375.5517,-209.5 601.3877,-209.5 601.3877,-245.5"/>
<text text-anchor="start" x="383.5107" y="-223.3" font-family="Times,serif" font-size="14.00" fill="#000000">parse::new_parser_from_source_str()</text>
</g>
<!-- _ZN13gen_callgraphE&#45;&gt;_ZN5parse26new_parser_from_source_strE -->
<g id="edge9" class="edge">
<title>_ZN13gen_callgraphE&#45;&gt;_ZN5parse26new_parser_from_source_strE</title>
<path fill="none" stroke="#000000" d="M314.7618,-250.542C329.9241,-248.5307 347.151,-246.2456 364.7245,-243.9145"/>
<polygon fill="#000000" stroke="#000000" points="365.6456,-247.3231 375.0985,-242.5385 364.7251,-240.3839 365.6456,-247.3231"/>
</g>
<!-- _ZN8get_fileE -->
<g id="node22" class="node">
<title>_ZN8get_fileE</title>
<polygon fill="none" stroke="#000000" points="228.6484,-534.5 228.6484,-578.5 295.9658,-578.5 295.9658,-534.5 228.6484,-534.5"/>
<text text-anchor="middle" x="262.3071" y="-563.3" font-family="Times,serif" font-size="14.00" fill="#000000">get_file()</text>
<polyline fill="none" stroke="#000000" points="228.6484,-556.5 295.9658,-556.5 "/>
<text text-anchor="middle" x="262.3071" y="-541.3" font-family="Times,serif" font-size="14.00" fill="#000000">args...</text>
</g>
<!-- _ZN8get_fileE&#45;&gt;_ZN3env4argsE -->
<g id="edge29" class="edge">
<title>_ZN8get_fileE&#45;&gt;_ZN3env4argsE</title>
<path fill="none" stroke="#000000" d="M296.166,-564.5843C334.4635,-573.7285 397.1241,-588.6898 440.459,-599.0367"/>
<polygon fill="#000000" stroke="#000000" points="439.6738,-602.4475 450.2133,-601.3657 441.2996,-595.6389 439.6738,-602.4475"/>
</g>
<!-- _ZN8get_fileE&#45;&gt;_ZN2fs14read_to_stringE -->
<g id="edge7" class="edge">
<title>_ZN8get_fileE&#45;&gt;_ZN2fs14read_to_stringE</title>
<path fill="none" stroke="#000000" d="M296.166,-556.5C327.7465,-556.5 375.8934,-556.5 416.1097,-556.5"/>
<polygon fill="#000000" stroke="#000000" points="416.1484,-560.0001 426.1484,-556.5 416.1483,-553.0001 416.1484,-560.0001"/>
</g>
<!-- _ZN12ident2stringE&#45;&gt;_ZN6String4fromE -->
<g id="edge6" class="edge">
<title>_ZN12ident2stringE&#45;&gt;_ZN6String4fromE</title>
<path fill="none" stroke="#000000" d="M1152.366,-178.715C1173.0273,-186.3633 1197.5393,-195.437 1219.2707,-203.4814"/>
<polygon fill="#000000" stroke="#000000" points="1218.1209,-206.7879 1228.7141,-206.9771 1220.551,-200.2232 1218.1209,-206.7879"/>
</g>
<!-- _ZN4add5E -->
<g id="node25" class="node">
<title>_ZN4add5E</title>
<polygon fill="none" stroke="#000000" points="289.3071,-633.5 235.3071,-633.5 235.3071,-597.5 289.3071,-597.5 289.3071,-633.5"/>
<text text-anchor="start" x="244.0381" y="-611.3" font-family="Times,serif" font-size="14.00" fill="#000000">add5()</text>
</g>
<!-- _ZN11handle_stmtE&#45;&gt;_ZN11handle_exprE -->
<g id="edge27" class="edge">
<title>_ZN11handle_stmtE&#45;&gt;_ZN11handle_exprE</title>
<path fill="none" stroke="#000000" d="M743.1785,-156.0965C755.0111,-155.7378 767.838,-155.6576 780.115,-155.856"/>
<polygon fill="#000000" stroke="#000000" points="780.1869,-159.3584 790.2644,-156.0881 780.3471,-152.3603 780.1869,-159.3584"/>
</g>
<!-- _ZN8get_pathE&#45;&gt;_ZN3Vec3newE -->
<g id="edge4" class="edge">
<title>_ZN8get_pathE&#45;&gt;_ZN3Vec3newE</title>
<path fill="none" stroke="#000000" d="M1007.7324,-244.9825C1023.1367,-251.029 1041.2388,-258.1345 1057.6728,-264.5851"/>
<polygon fill="#000000" stroke="#000000" points="1056.5356,-267.8987 1067.1231,-268.2946 1059.0933,-261.3827 1056.5356,-267.8987"/>
</g>
<!-- _ZN8get_pathE&#45;&gt;_ZN12ident2stringE -->
<g id="edge20" class="edge">
<title>_ZN8get_pathE&#45;&gt;_ZN12ident2stringE</title>
<path fill="none" stroke="#000000" d="M1007.7324,-211.6454C1021.9618,-204.374 1038.4932,-195.9261 1053.8853,-188.0605"/>
<polygon fill="#000000" stroke="#000000" points="1055.4782,-191.177 1062.7903,-183.5099 1052.2929,-184.9437 1055.4782,-191.177"/>
</g>
<!-- _ZN11mangle_typeE -->
<g id="node28" class="node">
<title>_ZN11mangle_typeE</title>
<polygon fill="none" stroke="#000000" points="1057.0435,-202.5 1057.0435,-246.5 1154.6782,-246.5 1154.6782,-202.5 1057.0435,-202.5"/>
<text text-anchor="middle" x="1105.8608" y="-231.3" font-family="Times,serif" font-size="14.00" fill="#000000">mangle_type()</text>
<polyline fill="none" stroke="#000000" points="1057.0435,-224.5 1154.6782,-224.5 "/>
<text text-anchor="middle" x="1105.8608" y="-209.3" font-family="Times,serif" font-size="14.00" fill="#000000">args...</text>
</g>
<!-- _ZN11mangle_typeE&#45;&gt;_ZN6String4fromE -->
<g id="edge33" class="edge">
<title>_ZN11mangle_typeE&#45;&gt;_ZN6String4fromE</title>
<path fill="none" stroke="#000000" d="M1155.0868,-224.5C1174.9906,-224.5 1198.099,-224.5 1218.7531,-224.5"/>
<polygon fill="#000000" stroke="#000000" points="1218.9841,-228.0001 1228.9841,-224.5 1218.984,-221.0001 1218.9841,-228.0001"/>
</g>
<!-- _ZN9type_nameE -->
<g id="node29" class="node">
<title>_ZN9type_nameE</title>
<polygon fill="none" stroke="#000000" points="1062.4883,-.5 1062.4883,-44.5 1149.2334,-44.5 1149.2334,-.5 1062.4883,-.5"/>
<text text-anchor="middle" x="1105.8608" y="-29.3" font-family="Times,serif" font-size="14.00" fill="#000000">type_name()</text>
<polyline fill="none" stroke="#000000" points="1062.4883,-22.5 1149.2334,-22.5 "/>
<text text-anchor="middle" x="1105.8608" y="-7.3" font-family="Times,serif" font-size="14.00" fill="#000000">args...</text>
</g>
<!-- _ZN9type_nameE&#45;&gt;_ZN6String4fromE -->
<g id="edge10" class="edge">
<title>_ZN9type_nameE&#45;&gt;_ZN6String4fromE</title>
<path fill="none" stroke="#000000" d="M1138.2294,-44.6903C1144.0904,-49.2959 1149.9564,-54.3299 1155.0645,-59.5 1198.3785,-103.3401 1238.5524,-163.5427 1259.9482,-197.7935"/>
<polygon fill="#000000" stroke="#000000" points="1256.9868,-199.6593 1265.2231,-206.3237 1262.9405,-195.9777 1256.9868,-199.6593"/>
</g>
<!-- _ZN9type_nameE&#45;&gt;_ZN3std10intrinsics9type_nameE -->
<g id="edge19" class="edge">
<title>_ZN9type_nameE&#45;&gt;_ZN3std10intrinsics9type_nameE</title>
<path fill="none" stroke="#000000" d="M1149.2473,-22.5C1159.0494,-22.5 1169.8324,-22.5 1180.8446,-22.5"/>
<polygon fill="#000000" stroke="#000000" points="1181.0006,-26.0001 1191.0006,-22.5 1181.0006,-19.0001 1181.0006,-26.0001"/>
</g>
<!-- _ZN4Type6to_strE -->
<g id="node30" class="node">
<title>_ZN4Type6to_strE</title>
<polygon fill="none" stroke="#000000" points="32.0508,-663.5 32.0508,-707.5 133.0527,-707.5 133.0527,-663.5 32.0508,-663.5"/>
<text text-anchor="middle" x="53.9448" y="-692.3" font-family="Times,serif" font-size="14.00" fill="#000000">Type</text>
<polyline fill="none" stroke="#000000" points="75.8389,-685.5 75.8389,-707.5 "/>
<text text-anchor="middle" x="104.4458" y="-692.3" font-family="Times,serif" font-size="14.00" fill="#000000">to_str()</text>
<polyline fill="none" stroke="#000000" points="32.0508,-685.5 133.0527,-685.5 "/>
<text text-anchor="middle" x="82.5518" y="-670.3" font-family="Times,serif" font-size="14.00" fill="#000000">args...</text>
</g>
<!-- _ZN11mangle_funcE -->
<g id="node31" class="node">
<title>_ZN11mangle_funcE</title>
<polygon fill="none" stroke="#000000" points="1056.6572,-475.5 1056.6572,-519.5 1155.0645,-519.5 1155.0645,-475.5 1056.6572,-475.5"/>
<text text-anchor="middle" x="1105.8608" y="-504.3" font-family="Times,serif" font-size="14.00" fill="#000000">mangle_func()</text>
<polyline fill="none" stroke="#000000" points="1056.6572,-497.5 1155.0645,-497.5 "/>
<text text-anchor="middle" x="1105.8608" y="-482.3" font-family="Times,serif" font-size="14.00" fill="#000000">args...</text>
</g>
<!-- _ZN11mangle_funcE&#45;&gt;_ZN6String4fromE -->
<g id="edge26" class="edge">
<title>_ZN11mangle_funcE&#45;&gt;_ZN6String4fromE</title>
<path fill="none" stroke="#000000" d="M1139.6862,-475.319C1145.2151,-470.8149 1150.5896,-465.8141 1155.0645,-460.5 1210.6001,-394.549 1249.6249,-298.8061 1266.5783,-252.1441"/>
<polygon fill="#000000" stroke="#000000" points="1269.8851,-253.2911 1269.9514,-242.6965 1263.2927,-250.9373 1269.8851,-253.2911"/>
</g>
<!-- _ZN4Func3fmtE -->
<g id="node32" class="node">
<title>_ZN4Func3fmtE</title>
<polygon fill="none" stroke="#000000" points="926.4536,-373.5 926.4536,-417.5 1015.2192,-417.5 1015.2192,-373.5 926.4536,-373.5"/>
<text text-anchor="middle" x="948.4536" y="-402.3" font-family="Times,serif" font-size="14.00" fill="#000000">Func</text>
<polyline fill="none" stroke="#000000" points="970.4536,-395.5 970.4536,-417.5 "/>
<text text-anchor="middle" x="992.8364" y="-402.3" font-family="Times,serif" font-size="14.00" fill="#000000">fmt()</text>
<polyline fill="none" stroke="#000000" points="926.4536,-395.5 1015.2192,-395.5 "/>
<text text-anchor="middle" x="970.8364" y="-380.3" font-family="Times,serif" font-size="14.00" fill="#000000">args...</text>
</g>
<!-- _ZN4Func3fmtE&#45;&gt;_ZN6String4fromE -->
<g id="edge14" class="edge">
<title>_ZN4Func3fmtE&#45;&gt;_ZN6String4fromE</title>
<path fill="none" stroke="#000000" d="M1015.5419,-377.6311C1053.5856,-361.7817 1109.1946,-337.0759 1155.0645,-310.5 1187.1783,-291.894 1221.4503,-267.0043 1245.2886,-248.7896"/>
<polygon fill="#000000" stroke="#000000" points="1247.4777,-251.5213 1253.2646,-242.6465 1243.2064,-245.9755 1247.4777,-251.5213"/>
</g>
<!-- _ZN4mainE -->
<g id="node33" class="node">
<title>_ZN4mainE</title>
<polygon fill="none" stroke="#000000" points="55.5518,-314.5 55.5518,-358.5 109.5518,-358.5 109.5518,-314.5 55.5518,-314.5"/>
<text text-anchor="middle" x="82.5518" y="-343.3" font-family="Times,serif" font-size="14.00" fill="#000000">main()</text>
<polyline fill="none" stroke="#000000" points="55.5518,-336.5 109.5518,-336.5 "/>
<text text-anchor="middle" x="82.5518" y="-321.3" font-family="Times,serif" font-size="14.00" fill="#000000">args...</text>
</g>
<!-- _ZN4mainE&#45;&gt;_ZN12generate_dotE -->
<g id="edge31" class="edge">
<title>_ZN4mainE&#45;&gt;_ZN12generate_dotE</title>
<path fill="none" stroke="#000000" d="M109.8527,-353.2066C138.3427,-370.6409 183.4864,-398.2662 217.2681,-418.9387"/>
<polygon fill="#000000" stroke="#000000" points="215.6758,-422.0676 226.0324,-424.3019 219.3296,-416.0968 215.6758,-422.0676"/>
</g>
<!-- _ZN4mainE&#45;&gt;_ZN17pretty_env_logger4initE -->
<g id="edge39" class="edge">
<title>_ZN4mainE&#45;&gt;_ZN17pretty_env_logger4initE</title>
<path fill="none" stroke="#000000" d="M97.8352,-314.2959C115.9909,-289.4493 148.4704,-249.5367 185.1035,-225.5 187.4965,-223.9299 189.9912,-222.4396 192.5568,-221.0264"/>
<polygon fill="#000000" stroke="#000000" points="194.1542,-224.1408 201.5084,-216.5141 191.0033,-217.89 194.1542,-224.1408"/>
</g>
<!-- _ZN4mainE&#45;&gt;_ZN13gen_callgraphE -->
<g id="edge35" class="edge">
<title>_ZN4mainE&#45;&gt;_ZN13gen_callgraphE</title>
<path fill="none" stroke="#000000" d="M109.8527,-324.5016C134.3297,-313.7443 171.0992,-297.5846 202.395,-283.8305"/>
<polygon fill="#000000" stroke="#000000" points="204.1654,-286.8756 211.9121,-279.6479 201.349,-280.4672 204.1654,-286.8756"/>
</g>
<!-- _ZN4mainE&#45;&gt;_ZN8get_fileE -->
<g id="edge8" class="edge">
<title>_ZN4mainE&#45;&gt;_ZN8get_fileE</title>
<path fill="none" stroke="#000000" d="M97.2461,-358.7381C116.3599,-387.1671 151.3142,-437.4946 185.1035,-477.5 199.5397,-494.592 216.8519,-512.5124 231.4206,-526.9565"/>
<polygon fill="#000000" stroke="#000000" points="229.1741,-529.6561 238.7592,-534.1702 234.0812,-524.664 229.1741,-529.6561"/>
</g>
<!-- _ZN7impltmp1B4add6E -->
<g id="node34" class="node">
<title>_ZN7impltmp1B4add6E</title>
<polygon fill="none" stroke="#000000" points="16,-593.5 16,-637.5 149.1035,-637.5 149.1035,-593.5 16,-593.5"/>
<text text-anchor="middle" x="56.2827" y="-622.3" font-family="Times,serif" font-size="14.00" fill="#000000">impltmp::B</text>
<polyline fill="none" stroke="#000000" points="96.5654,-615.5 96.5654,-637.5 "/>
<text text-anchor="middle" x="122.8345" y="-622.3" font-family="Times,serif" font-size="14.00" fill="#000000">add6()</text>
<polyline fill="none" stroke="#000000" points="16,-615.5 149.1035,-615.5 "/>
<text text-anchor="middle" x="82.5518" y="-600.3" font-family="Times,serif" font-size="14.00" fill="#000000">args...</text>
</g>
<!-- _ZN7impltmp1B4add6E&#45;&gt;_ZN4add5E -->
<g id="edge30" class="edge">
<title>_ZN7impltmp1B4add6E&#45;&gt;_ZN4add5E</title>
<path fill="none" stroke="#000000" d="M149.2306,-615.5C174.8182,-615.5 203.0987,-615.5 224.9766,-615.5"/>
<polygon fill="#000000" stroke="#000000" points="225.1625,-619.0001 235.1625,-615.5 225.1624,-612.0001 225.1625,-619.0001"/>
</g>
<!-- _ZN4Func5cloneE -->
<g id="node35" class="node">
<title>_ZN4Func5cloneE</title>
<polygon fill="none" stroke="#000000" points="921.0156,-310.5 921.0156,-354.5 1020.6572,-354.5 1020.6572,-310.5 921.0156,-310.5"/>
<text text-anchor="middle" x="943.0156" y="-339.3" font-family="Times,serif" font-size="14.00" fill="#000000">Func</text>
<polyline fill="none" stroke="#000000" points="965.0156,-332.5 965.0156,-354.5 "/>
<text text-anchor="middle" x="992.8364" y="-339.3" font-family="Times,serif" font-size="14.00" fill="#000000">clone()</text>
<polyline fill="none" stroke="#000000" points="921.0156,-332.5 1020.6572,-332.5 "/>
<text text-anchor="middle" x="970.8364" y="-317.3" font-family="Times,serif" font-size="14.00" fill="#000000">args...</text>
</g>
<!-- _ZN4Func5cloneE&#45;&gt;_ZN3Vec3newE -->
<g id="edge36" class="edge">
<title>_ZN4Func5cloneE&#45;&gt;_ZN3Vec3newE</title>
<path fill="none" stroke="#000000" d="M1020.7309,-314.3934C1032.8235,-310.0051 1045.7269,-305.3224 1057.736,-300.9644"/>
<polygon fill="#000000" stroke="#000000" points="1058.9366,-304.2521 1067.1428,-297.5507 1056.5487,-297.672 1058.9366,-304.2521"/>
</g>
<!-- _ZN7impltmp1B4add5E -->
<g id="node36" class="node">
<title>_ZN7impltmp1B4add5E</title>
<polygon fill="none" stroke="#000000" points="16,-530.5 16,-574.5 149.1035,-574.5 149.1035,-530.5 16,-530.5"/>
<text text-anchor="middle" x="56.2827" y="-559.3" font-family="Times,serif" font-size="14.00" fill="#000000">impltmp::B</text>
<polyline fill="none" stroke="#000000" points="96.5654,-552.5 96.5654,-574.5 "/>
<text text-anchor="middle" x="122.8345" y="-559.3" font-family="Times,serif" font-size="14.00" fill="#000000">add5()</text>
<polyline fill="none" stroke="#000000" points="16,-552.5 149.1035,-552.5 "/>
<text text-anchor="middle" x="82.5518" y="-537.3" font-family="Times,serif" font-size="14.00" fill="#000000">args...</text>
</g>
</g>
</svg>
