<?xml version="1.0" encoding="UTF-8" standalone="no"?>
<!DOCTYPE svg PUBLIC "-//W3C//DTD SVG 1.1//EN"
 "http://www.w3.org/Graphics/SVG/1.1/DTD/svg11.dtd">
<!-- Generated by graphviz version 2.40.1 (20161225.0304)
 -->
<!-- Title: demo Pages: 1 -->
<svg width="1456pt" height="1474pt"
 viewBox="0.00 0.00 1455.91 1473.50" xmlns="http://www.w3.org/2000/svg" xmlns:xlink="http://www.w3.org/1999/xlink">
<g id="graph0" class="graph" transform="scale(1 1) rotate(0) translate(4 1469.5)">
<title>demo</title>
<polygon fill="#ffffff" stroke="transparent" points="-4,4 -4,-1469.5 1451.9106,-1469.5 1451.9106,4 -4,4"/>
<g id="clust1" class="cluster">
<title>cluster_ZT4FuncE</title>
<polygon fill="none" stroke="#000000" stroke-width="2" points="887.8999,-8 887.8999,-253 1038.4966,-253 1038.4966,-8 887.8999,-8"/>
</g>
<g id="clust2" class="cluster">
<title>cluster_ZT1BE</title>
<polygon fill="none" stroke="#000000" stroke-width="2" points="8,-1105 8,-1243 255.3037,-1243 255.3037,-1105 8,-1105"/>
</g>
<g id="clust3" class="cluster">
<title>cluster_ZT4TypeE</title>
<polygon fill="none" stroke="#000000" stroke-width="2" points="13.2534,-1251 13.2534,-1389 93.4673,-1389 93.4673,-1251 13.2534,-1251"/>
</g>
<!-- _ZN7HashSet3newE -->
<g id="node1" class="node">
<title>_ZN7HashSet3newE</title>
<polygon fill="none" stroke="#000000" points="384.561,-767 384.561,-803 487.6509,-803 487.6509,-767 384.561,-767"/>
<text text-anchor="start" x="392.561" y="-781.8" font-family="Times,serif" font-weight="bold" font-size="14.00" fill="#000000">HashSet::new()</text>
</g>
<!-- _ZN11handle_itemE -->
<g id="node2" class="node">
<title>_ZN11handle_itemE</title>
<polygon fill="none" stroke="#000000" points="385.3438,-421 385.3438,-509 486.8682,-509 486.8682,-421 385.3438,-421"/>
<text text-anchor="start" x="393.3438" y="-494.8" font-family="Times,serif" font-weight="bold" font-size="14.00" fill="#000000"> handle_item() </text>
<polyline fill="none" stroke="#000000" points="385.3438,-487 486.8682,-487 "/>
<text text-anchor="start" x="434.356" y="-471.8" font-family="Times,serif" font-size="14.00" fill="#000000"> </text>
<polyline fill="none" stroke="#000000" points="385.3438,-465 486.8682,-465 "/>
<text text-anchor="start" x="397.8076" y="-449.8" font-family="Times,serif" font-size="14.00" fill="#000000">&amp;mut Record</text>
<polyline fill="none" stroke="#000000" points="385.3438,-443 486.8682,-443 "/>
<text text-anchor="start" x="417.8335" y="-427.8" font-family="Times,serif" font-size="14.00" fill="#000000">&amp;Item</text>
</g>
<!-- _ZN3Vec3newE -->
<g id="node3" class="node">
<title>_ZN3Vec3newE</title>
<polygon fill="none" stroke="#000000" points="1115.5103,-352 1115.5103,-388 1192.9243,-388 1192.9243,-352 1115.5103,-352"/>
<text text-anchor="start" x="1123.5103" y="-366.8" font-family="Times,serif" font-weight="bold" font-size="14.00" fill="#000000">Vec::new()</text>
</g>
<!-- _ZN11handle_itemE&#45;&gt;_ZN3Vec3newE -->
<g id="edge9" class="edge">
<title>_ZN11handle_itemE&#45;&gt;_ZN3Vec3newE</title>
<path fill="none" stroke="#000000" d="M459.3853,-420.6236C484.1935,-378.6427 527.7824,-318.2686 585.0649,-292 768.6749,-207.8003 851.214,-247.3201 1038.4966,-323 1052.4402,-328.6345 1052.9717,-335.4235 1066.4966,-342 1078.755,-347.9607 1092.579,-353.0569 1105.5656,-357.2032"/>
<polygon fill="#000000" stroke="#000000" points="1104.7069,-360.6007 1115.2936,-360.1874 1106.7598,-353.9085 1104.7069,-360.6007"/>
</g>
<!-- _ZN8BossKind4TypeE -->
<g id="node6" class="node">
<title>_ZN8BossKind4TypeE</title>
<polygon fill="none" stroke="#000000" points="585.5366,-470 585.5366,-506 701.6626,-506 701.6626,-470 585.5366,-470"/>
<text text-anchor="start" x="593.5366" y="-484.8" font-family="Times,serif" font-weight="bold" font-size="14.00" fill="#000000">BossKind::Type()</text>
</g>
<!-- _ZN11handle_itemE&#45;&gt;_ZN8BossKind4TypeE -->
<g id="edge5" class="edge">
<title>_ZN11handle_itemE&#45;&gt;_ZN8BossKind4TypeE</title>
<path fill="none" stroke="#000000" d="M487.1304,-470.6559C513.7503,-473.6066 546.6774,-477.2565 575.4484,-480.4457"/>
<polygon fill="#000000" stroke="#000000" points="575.1098,-483.9295 585.4345,-481.5526 575.881,-476.9721 575.1098,-483.9295"/>
</g>
<!-- _ZN11handle_stmtE -->
<g id="node11" class="node">
<title>_ZN11handle_stmtE</title>
<polygon fill="none" stroke="#000000" points="593.2202,-302 593.2202,-412 693.979,-412 693.979,-302 593.2202,-302"/>
<text text-anchor="start" x="601.2202" y="-397.8" font-family="Times,serif" font-weight="bold" font-size="14.00" fill="#000000"> handle_stmt() </text>
<polyline fill="none" stroke="#000000" points="593.2202,-390 693.979,-390 "/>
<text text-anchor="start" x="641.8496" y="-374.8" font-family="Times,serif" font-size="14.00" fill="#000000"> </text>
<polyline fill="none" stroke="#000000" points="593.2202,-368 693.979,-368 "/>
<text text-anchor="start" x="605.3013" y="-352.8" font-family="Times,serif" font-size="14.00" fill="#000000">&amp;mut Record</text>
<polyline fill="none" stroke="#000000" points="593.2202,-346 693.979,-346 "/>
<text text-anchor="start" x="624.1548" y="-330.8" font-family="Times,serif" font-size="14.00" fill="#000000">&amp;Func</text>
<polyline fill="none" stroke="#000000" points="593.2202,-324 693.979,-324 "/>
<text text-anchor="start" x="624.9272" y="-308.8" font-family="Times,serif" font-size="14.00" fill="#000000">&amp;Stmt</text>
</g>
<!-- _ZN11handle_itemE&#45;&gt;_ZN11handle_stmtE -->
<g id="edge34" class="edge">
<title>_ZN11handle_itemE&#45;&gt;_ZN11handle_stmtE</title>
<path fill="none" stroke="#000000" d="M487.1304,-438.4419C516.5087,-423.1505 553.5691,-403.8607 584.2469,-387.8929"/>
<polygon fill="#000000" stroke="#000000" points="585.8772,-390.9902 593.1317,-383.2685 582.6453,-384.7809 585.8772,-390.9902"/>
</g>
<!-- _ZN12ident2stringE -->
<g id="node12" class="node">
<title>_ZN12ident2stringE</title>
<polygon fill="none" stroke="#000000" points="1066.4966,-411 1066.4966,-477 1241.938,-477 1241.938,-411 1066.4966,-411"/>
<text text-anchor="start" x="1112.6138" y="-462.8" font-family="Times,serif" font-weight="bold" font-size="14.00" fill="#000000"> ident2string() </text>
<polyline fill="none" stroke="#000000" points="1066.4966,-455 1241.938,-455 "/>
<text text-anchor="start" x="1137.1035" y="-439.8" font-family="Times,serif" font-size="14.00" fill="#000000">String</text>
<polyline fill="none" stroke="#000000" points="1066.4966,-433 1241.938,-433 "/>
<text text-anchor="start" x="1074.4966" y="-417.8" font-family="Times,serif" font-size="14.00" fill="#000000">&amp;syntex_pos::symbol::Ident</text>
</g>
<!-- _ZN11handle_itemE&#45;&gt;_ZN12ident2stringE -->
<g id="edge19" class="edge">
<title>_ZN11handle_itemE&#45;&gt;_ZN12ident2stringE</title>
<path fill="none" stroke="#000000" d="M487.1074,-486.691C515.3994,-497.5493 551.5469,-509.5247 585.0649,-515 691.6811,-532.4161 965.078,-510.4174 1038.4966,-493 1051.2682,-489.9701 1064.4284,-485.658 1077.0889,-480.8337"/>
<polygon fill="#000000" stroke="#000000" points="1078.6413,-483.9838 1086.6585,-477.0574 1076.0718,-477.4725 1078.6413,-483.9838"/>
</g>
<!-- _ZN8get_pathE -->
<g id="node25" class="node">
<title>_ZN8get_pathE</title>
<polygon fill="none" stroke="#000000" points="903.4775,-418 903.4775,-484 1022.9189,-484 1022.9189,-418 903.4775,-418"/>
<text text-anchor="start" x="930.9326" y="-469.8" font-family="Times,serif" font-weight="bold" font-size="14.00" fill="#000000"> get_path() </text>
<polyline fill="none" stroke="#000000" points="903.4775,-462 1022.9189,-462 "/>
<text text-anchor="start" x="950.7534" y="-446.8" font-family="Times,serif" font-size="14.00" fill="#000000">Path</text>
<polyline fill="none" stroke="#000000" points="903.4775,-440 1022.9189,-440 "/>
<text text-anchor="start" x="911.4775" y="-424.8" font-family="Times,serif" font-size="14.00" fill="#000000">&amp;syntax::ast::Path</text>
</g>
<!-- _ZN11handle_itemE&#45;&gt;_ZN8get_pathE -->
<g id="edge24" class="edge">
<title>_ZN11handle_itemE&#45;&gt;_ZN8get_pathE</title>
<path fill="none" stroke="#000000" d="M487.1188,-463.1646C515.8809,-462.1606 552.4752,-460.9348 585.0649,-460 692.4234,-456.9206 816.9493,-454.1024 892.884,-452.4685"/>
<polygon fill="#000000" stroke="#000000" points="893.3467,-455.9595 903.2694,-452.2459 893.1966,-448.9611 893.3467,-455.9595"/>
</g>
<!-- _ZN3std10intrinsics9type_nameE -->
<g id="node4" class="node">
<title>_ZN3std10intrinsics9type_nameE</title>
<polygon fill="none" stroke="#000000" points="1277.938,-73 1277.938,-109 1447.9106,-109 1447.9106,-73 1277.938,-73"/>
<text text-anchor="start" x="1285.938" y="-87.8" font-family="Times,serif" font-weight="bold" font-size="14.00" fill="#000000">std::intrinsics::type_name()</text>
</g>
<!-- _ZN11handle_exprE -->
<g id="node5" class="node">
<title>_ZN11handle_exprE</title>
<polygon fill="none" stroke="#000000" points="738.1343,-302 738.1343,-412 859.8999,-412 859.8999,-302 738.1343,-302"/>
<text text-anchor="start" x="756.2583" y="-397.8" font-family="Times,serif" font-weight="bold" font-size="14.00" fill="#000000"> handle_expr() </text>
<polyline fill="none" stroke="#000000" points="738.1343,-390 859.8999,-390 "/>
<text text-anchor="start" x="797.2671" y="-374.8" font-family="Times,serif" font-size="14.00" fill="#000000"> </text>
<polyline fill="none" stroke="#000000" points="738.1343,-368 859.8999,-368 "/>
<text text-anchor="start" x="760.7188" y="-352.8" font-family="Times,serif" font-size="14.00" fill="#000000">&amp;mut Record</text>
<polyline fill="none" stroke="#000000" points="738.1343,-346 859.8999,-346 "/>
<text text-anchor="start" x="779.5723" y="-330.8" font-family="Times,serif" font-size="14.00" fill="#000000">&amp;Func</text>
<polyline fill="none" stroke="#000000" points="738.1343,-324 859.8999,-324 "/>
<text text-anchor="start" x="746.1343" y="-308.8" font-family="Times,serif" font-size="14.00" fill="#000000">&amp;syntax::ast::Expr</text>
</g>
<!-- _ZN11handle_exprE&#45;&gt;_ZN11handle_exprE -->
<g id="edge2" class="edge">
<title>_ZN11handle_exprE&#45;&gt;_ZN11handle_exprE</title>
<path fill="none" stroke="#000000" d="M771.4269,-412.1324C774.6309,-422.8729 783.8276,-430.5 799.0171,-430.5 809.4598,-430.5 817.0701,-426.895 821.8479,-421.1518"/>
<polygon fill="#000000" stroke="#000000" points="825.0357,-422.6101 826.6073,-412.1324 818.8448,-419.3431 825.0357,-422.6101"/>
</g>
<!-- _ZN10get_pathexE -->
<g id="node8" class="node">
<title>_ZN10get_pathexE</title>
<polygon fill="none" stroke="#000000" points="903.4775,-333 903.4775,-399 1022.9189,-399 1022.9189,-333 903.4775,-333"/>
<text text-anchor="start" x="924.3257" y="-384.8" font-family="Times,serif" font-weight="bold" font-size="14.00" fill="#000000"> get_pathex() </text>
<polyline fill="none" stroke="#000000" points="903.4775,-377 1022.9189,-377 "/>
<text text-anchor="start" x="942.9775" y="-361.8" font-family="Times,serif" font-size="14.00" fill="#000000">PathEx</text>
<polyline fill="none" stroke="#000000" points="903.4775,-355 1022.9189,-355 "/>
<text text-anchor="start" x="911.4775" y="-339.8" font-family="Times,serif" font-size="14.00" fill="#000000">&amp;syntax::ast::Path</text>
</g>
<!-- _ZN11handle_exprE&#45;&gt;_ZN10get_pathexE -->
<g id="edge3" class="edge">
<title>_ZN11handle_exprE&#45;&gt;_ZN10get_pathexE</title>
<path fill="none" stroke="#000000" d="M860.1521,-360.3513C870.9714,-360.9444 882.3112,-361.566 893.3489,-362.171"/>
<polygon fill="#000000" stroke="#000000" points="893.2005,-365.6681 903.3771,-362.7208 893.5837,-358.6786 893.2005,-365.6681"/>
</g>
<!-- _ZN11handle_exprE&#45;&gt;_ZN11handle_stmtE -->
<g id="edge39" class="edge">
<title>_ZN11handle_exprE&#45;&gt;_ZN11handle_stmtE</title>
<path fill="none" stroke="#000000" d="M737.9597,-363.6103C726.8275,-363.7997 715.2168,-363.7965 704.1008,-363.6007"/>
<polygon fill="#000000" stroke="#000000" points="704.1381,-360.1007 694.0592,-363.3667 703.9749,-367.0988 704.1381,-360.1007"/>
</g>
<!-- _ZN4File6createE -->
<g id="node7" class="node">
<title>_ZN4File6createE</title>
<polygon fill="none" stroke="#000000" points="599.4546,-971 599.4546,-1007 687.7446,-1007 687.7446,-971 599.4546,-971"/>
<text text-anchor="start" x="607.4546" y="-985.8" font-family="Times,serif" font-weight="bold" font-size="14.00" fill="#000000">File::create()</text>
</g>
<!-- _ZN10get_pathexE&#45;&gt;_ZN3Vec3newE -->
<g id="edge33" class="edge">
<title>_ZN10get_pathexE&#45;&gt;_ZN3Vec3newE</title>
<path fill="none" stroke="#000000" d="M1023.1138,-367.2547C1049.5589,-367.8084 1080.2524,-368.4512 1105.2901,-368.9754"/>
<polygon fill="#000000" stroke="#000000" points="1105.2199,-372.4746 1115.291,-369.1849 1105.3665,-365.4762 1105.2199,-372.4746"/>
</g>
<!-- _ZN10get_pathexE&#45;&gt;_ZN12ident2stringE -->
<g id="edge7" class="edge">
<title>_ZN10get_pathexE&#45;&gt;_ZN12ident2stringE</title>
<path fill="none" stroke="#000000" d="M1023.1138,-390.4657C1036.004,-395.7292 1049.9037,-401.405 1063.6657,-407.0245"/>
<polygon fill="#000000" stroke="#000000" points="1062.5761,-410.3601 1073.1572,-410.9002 1065.2224,-403.8795 1062.5761,-410.3601"/>
</g>
<!-- _ZN13write_to_fileE -->
<g id="node9" class="node">
<title>_ZN13write_to_fileE</title>
<polygon fill="none" stroke="#000000" points="384.1714,-971 384.1714,-1037 488.0405,-1037 488.0405,-971 384.1714,-971"/>
<text text-anchor="start" x="392.1714" y="-1022.8" font-family="Times,serif" font-weight="bold" font-size="14.00" fill="#000000"> write_to_file() </text>
<polyline fill="none" stroke="#000000" points="384.1714,-1015 488.0405,-1015 "/>
<text text-anchor="start" x="434.356" y="-999.8" font-family="Times,serif" font-size="14.00" fill="#000000"> </text>
<polyline fill="none" stroke="#000000" points="384.1714,-993 488.0405,-993 "/>
<text text-anchor="start" x="418.9922" y="-977.8" font-family="Times,serif" font-size="14.00" fill="#000000">String</text>
</g>
<!-- _ZN13write_to_fileE&#45;&gt;_ZN4File6createE -->
<g id="edge38" class="edge">
<title>_ZN13write_to_fileE&#45;&gt;_ZN4File6createE</title>
<path fill="none" stroke="#000000" d="M488.1975,-1000.2342C518.9359,-998.0121 557.7965,-995.2028 588.9674,-992.9494"/>
<polygon fill="#000000" stroke="#000000" points="589.4992,-996.4202 599.2208,-992.2082 588.9944,-989.4384 589.4992,-996.4202"/>
</g>
<!-- _ZN9BufReader3newE -->
<g id="node18" class="node">
<title>_ZN9BufReader3newE</title>
<polygon fill="none" stroke="#000000" points="585.0649,-1081 585.0649,-1117 702.1343,-1117 702.1343,-1081 585.0649,-1081"/>
<text text-anchor="start" x="593.0649" y="-1095.8" font-family="Times,serif" font-weight="bold" font-size="14.00" fill="#000000">BufReader::new()</text>
</g>
<!-- _ZN13write_to_fileE&#45;&gt;_ZN9BufReader3newE -->
<g id="edge1" class="edge">
<title>_ZN13write_to_fileE&#45;&gt;_ZN9BufReader3newE</title>
<path fill="none" stroke="#000000" d="M488.1526,-1020.8109C507.7143,-1027.8999 529.855,-1036.8679 549.0649,-1047 566.2948,-1056.0878 568.1561,-1062.328 585.0649,-1072 587.5694,-1073.4326 590.1631,-1074.8505 592.8026,-1076.2421"/>
<polygon fill="#000000" stroke="#000000" points="591.3895,-1079.4498 601.8907,-1080.8554 594.558,-1073.208 591.3895,-1079.4498"/>
</g>
<!-- _ZN4File4openE -->
<g id="node19" class="node">
<title>_ZN4File4openE</title>
<polygon fill="none" stroke="#000000" points="602.5513,-1026 602.5513,-1062 684.6479,-1062 684.6479,-1026 602.5513,-1026"/>
<text text-anchor="start" x="610.5513" y="-1040.8" font-family="Times,serif" font-weight="bold" font-size="14.00" fill="#000000">File::open()</text>
</g>
<!-- _ZN13write_to_fileE&#45;&gt;_ZN4File4openE -->
<g id="edge35" class="edge">
<title>_ZN13write_to_fileE&#45;&gt;_ZN4File4openE</title>
<path fill="none" stroke="#000000" d="M488.1975,-1014.0421C520.0445,-1020.1814 560.61,-1028.0015 592.3091,-1034.1124"/>
<polygon fill="#000000" stroke="#000000" points="591.7854,-1037.5758 602.2672,-1036.0321 593.1105,-1030.7023 591.7854,-1037.5758"/>
</g>
<!-- _ZN15FilePathMapping5emptyE -->
<g id="node10" class="node">
<title>_ZN15FilePathMapping5emptyE</title>
<polygon fill="none" stroke="#000000" points="353.4473,-602 353.4473,-638 518.7646,-638 518.7646,-602 353.4473,-602"/>
<text text-anchor="start" x="361.4473" y="-616.8" font-family="Times,serif" font-weight="bold" font-size="14.00" fill="#000000">FilePathMapping::empty()</text>
</g>
<!-- _ZN11handle_stmtE&#45;&gt;_ZN11handle_exprE -->
<g id="edge32" class="edge">
<title>_ZN11handle_stmtE&#45;&gt;_ZN11handle_exprE</title>
<path fill="none" stroke="#000000" d="M694.0592,-350.6333C704.7812,-350.3195 716.2957,-350.1984 727.6296,-350.2699"/>
<polygon fill="#000000" stroke="#000000" points="727.9197,-353.7734 737.9597,-350.3897 728.001,-346.7739 727.9197,-353.7734"/>
</g>
<!-- _ZN6String4fromE -->
<g id="node13" class="node">
<title>_ZN6String4fromE</title>
<polygon fill="none" stroke="#000000" points="1315.6519,-282 1315.6519,-318 1410.1968,-318 1410.1968,-282 1315.6519,-282"/>
<text text-anchor="start" x="1323.6519" y="-296.8" font-family="Times,serif" font-weight="bold" font-size="14.00" fill="#000000">String::from()</text>
</g>
<!-- _ZN12ident2stringE&#45;&gt;_ZN6String4fromE -->
<g id="edge31" class="edge">
<title>_ZN12ident2stringE&#45;&gt;_ZN6String4fromE</title>
<path fill="none" stroke="#000000" d="M1219.2047,-410.9287C1226.9917,-406.4566 1234.7302,-401.7619 1241.938,-397 1275.6403,-374.734 1311.3964,-345.2481 1335.2221,-324.6538"/>
<polygon fill="#000000" stroke="#000000" points="1337.5815,-327.2403 1342.8246,-318.0337 1332.9846,-321.9612 1337.5815,-327.2403"/>
</g>
<!-- _ZN3env4argsE -->
<g id="node14" class="node">
<title>_ZN3env4argsE</title>
<polygon fill="none" stroke="#000000" points="397.9082,-1111 397.9082,-1147 474.3037,-1147 474.3037,-1111 397.9082,-1111"/>
<text text-anchor="start" x="405.9082" y="-1125.8" font-family="Times,serif" font-weight="bold" font-size="14.00" fill="#000000">env::args()</text>
</g>
<!-- _ZN6String3newE -->
<g id="node15" class="node">
<title>_ZN6String3newE</title>
<polygon fill="none" stroke="#000000" points="390.7783,-877 390.7783,-913 481.4336,-913 481.4336,-877 390.7783,-877"/>
<text text-anchor="start" x="398.7783" y="-891.8" font-family="Times,serif" font-weight="bold" font-size="14.00" fill="#000000">String::new()</text>
</g>
<!-- _ZN8get_fileE -->
<g id="node16" class="node">
<title>_ZN8get_fileE</title>
<polygon fill="none" stroke="#000000" points="172.7847,-1052 172.7847,-1096 247.1021,-1096 247.1021,-1052 172.7847,-1052"/>
<text text-anchor="start" x="180.7847" y="-1081.8" font-family="Times,serif" font-weight="bold" font-size="14.00" fill="#000000"> get_file() </text>
<polyline fill="none" stroke="#000000" points="172.7847,-1074 247.1021,-1074 "/>
<text text-anchor="start" x="192.8296" y="-1058.8" font-family="Times,serif" font-size="14.00" fill="#000000">String</text>
</g>
<!-- _ZN8get_fileE&#45;&gt;_ZN3env4argsE -->
<g id="edge21" class="edge">
<title>_ZN8get_fileE&#45;&gt;_ZN3env4argsE</title>
<path fill="none" stroke="#000000" d="M247.1451,-1083.2795C269.2231,-1088.7672 297.7697,-1095.8288 323.147,-1102 344.3492,-1107.1559 367.8112,-1112.7776 387.8338,-1117.5498"/>
<polygon fill="#000000" stroke="#000000" points="387.1214,-1120.978 397.6602,-1119.8896 388.7429,-1114.1684 387.1214,-1120.978"/>
</g>
<!-- _ZN2fs14read_to_stringE -->
<g id="node24" class="node">
<title>_ZN2fs14read_to_stringE</title>
<polygon fill="none" stroke="#000000" points="374.0645,-1056 374.0645,-1092 498.1475,-1092 498.1475,-1056 374.0645,-1056"/>
<text text-anchor="start" x="382.0645" y="-1070.8" font-family="Times,serif" font-weight="bold" font-size="14.00" fill="#000000">fs::read_to_string()</text>
</g>
<!-- _ZN8get_fileE&#45;&gt;_ZN2fs14read_to_stringE -->
<g id="edge13" class="edge">
<title>_ZN8get_fileE&#45;&gt;_ZN2fs14read_to_stringE</title>
<path fill="none" stroke="#000000" d="M247.2895,-1074C278.8461,-1074 324.9656,-1074 363.7241,-1074"/>
<polygon fill="#000000" stroke="#000000" points="363.9227,-1077.5001 373.9227,-1074 363.9227,-1070.5001 363.9227,-1077.5001"/>
</g>
<!-- _ZN5parse26new_parser_from_source_strE -->
<g id="node17" class="node">
<title>_ZN5parse26new_parser_from_source_strE</title>
<polygon fill="none" stroke="#000000" points="323.147,-822 323.147,-858 549.0649,-858 549.0649,-822 323.147,-822"/>
<text text-anchor="start" x="331.147" y="-836.8" font-family="Times,serif" font-weight="bold" font-size="14.00" fill="#000000">parse::new_parser_from_source_str()</text>
</g>
<!-- _ZN17pretty_env_logger4initE -->
<g id="node20" class="node">
<title>_ZN17pretty_env_logger4initE</title>
<polygon fill="none" stroke="#000000" points="132.7397,-995 132.7397,-1031 287.147,-1031 287.147,-995 132.7397,-995"/>
<text text-anchor="start" x="140.7397" y="-1009.8" font-family="Times,serif" font-weight="bold" font-size="14.00" fill="#000000">pretty_env_logger::init()</text>
</g>
<!-- _ZN12generate_dotE -->
<g id="node21" class="node">
<title>_ZN12generate_dotE</title>
<polygon fill="none" stroke="#000000" points="157.6328,-910 157.6328,-976 262.2539,-976 262.2539,-910 157.6328,-910"/>
<text text-anchor="start" x="165.6328" y="-961.8" font-family="Times,serif" font-weight="bold" font-size="14.00" fill="#000000"> generate_dot() </text>
<polyline fill="none" stroke="#000000" points="157.6328,-954 262.2539,-954 "/>
<text text-anchor="start" x="208.1934" y="-938.8" font-family="Times,serif" font-size="14.00" fill="#000000"> </text>
<polyline fill="none" stroke="#000000" points="157.6328,-932 262.2539,-932 "/>
<text text-anchor="start" x="184.2847" y="-916.8" font-family="Times,serif" font-size="14.00" fill="#000000">&amp;Record</text>
</g>
<!-- _ZN12generate_dotE&#45;&gt;_ZN13write_to_fileE -->
<g id="edge12" class="edge">
<title>_ZN12generate_dotE&#45;&gt;_ZN13write_to_fileE</title>
<path fill="none" stroke="#000000" d="M262.3981,-957.1479C295.7953,-966.1558 339.2092,-977.8653 374.2803,-987.3246"/>
<polygon fill="#000000" stroke="#000000" points="373.3693,-990.7038 383.9357,-989.9288 375.1922,-983.9453 373.3693,-990.7038"/>
</g>
<!-- _ZN12generate_dotE&#45;&gt;_ZN6String4fromE -->
<g id="edge10" class="edge">
<title>_ZN12generate_dotE&#45;&gt;_ZN6String4fromE</title>
<path fill="none" stroke="#000000" d="M262.3445,-942.8012C343.8685,-942.5096 506.0113,-942 643.5996,-942 643.5996,-942 643.5996,-942 963.1982,-942 1256.6527,-942 1342.3856,-452.6414 1359.4224,-328.407"/>
<polygon fill="#000000" stroke="#000000" points="1362.9336,-328.5535 1360.7811,-318.1797 1355.9946,-327.6316 1362.9336,-328.5535"/>
</g>
<!-- _ZN13gen_callgraphE -->
<g id="node22" class="node">
<title>_ZN13gen_callgraphE</title>
<polygon fill="none" stroke="#000000" points="154.1328,-697 154.1328,-763 265.7539,-763 265.7539,-697 154.1328,-697"/>
<text text-anchor="start" x="162.1328" y="-748.8" font-family="Times,serif" font-weight="bold" font-size="14.00" fill="#000000"> gen_callgraph() </text>
<polyline fill="none" stroke="#000000" points="154.1328,-741 265.7539,-741 "/>
<text text-anchor="start" x="189.7295" y="-725.8" font-family="Times,serif" font-size="14.00" fill="#000000">Record</text>
<polyline fill="none" stroke="#000000" points="154.1328,-719 265.7539,-719 "/>
<text text-anchor="start" x="187.3848" y="-703.8" font-family="Times,serif" font-size="14.00" fill="#000000">&amp;String</text>
</g>
<!-- _ZN13gen_callgraphE&#45;&gt;_ZN7HashSet3newE -->
<g id="edge16" class="edge">
<title>_ZN13gen_callgraphE&#45;&gt;_ZN7HashSet3newE</title>
<path fill="none" stroke="#000000" d="M265.7737,-743.9015C284.0507,-748.4277 304.4582,-753.4553 323.147,-758 339.6964,-762.0245 357.6226,-766.3327 374.2153,-770.2992"/>
<polygon fill="#000000" stroke="#000000" points="373.8106,-773.8009 384.3501,-772.7192 375.4364,-766.9923 373.8106,-773.8009"/>
</g>
<!-- _ZN13gen_callgraphE&#45;&gt;_ZN11handle_itemE -->
<g id="edge8" class="edge">
<title>_ZN13gen_callgraphE&#45;&gt;_ZN11handle_itemE</title>
<path fill="none" stroke="#000000" d="M228.0095,-696.7949C248.4611,-660.7838 284.0568,-602.6134 323.147,-559 339.1689,-541.1242 358.6725,-523.6905 376.9341,-508.7887"/>
<polygon fill="#000000" stroke="#000000" points="379.6192,-511.1209 385.2202,-502.1276 375.2334,-505.6652 379.6192,-511.1209"/>
</g>
<!-- _ZN13gen_callgraphE&#45;&gt;_ZN15FilePathMapping5emptyE -->
<g id="edge25" class="edge">
<title>_ZN13gen_callgraphE&#45;&gt;_ZN15FilePathMapping5emptyE</title>
<path fill="none" stroke="#000000" d="M247.685,-696.9875C268.6651,-680.156 295.9666,-660.6281 323.147,-648 329.6976,-644.9566 336.6215,-642.2171 343.6867,-639.756"/>
<polygon fill="#000000" stroke="#000000" points="344.9783,-643.0158 353.387,-636.5703 342.7941,-636.3653 344.9783,-643.0158"/>
</g>
<!-- _ZN13gen_callgraphE&#45;&gt;_ZN6String4fromE -->
<g id="edge40" class="edge">
<title>_ZN13gen_callgraphE&#45;&gt;_ZN6String4fromE</title>
<path fill="none" stroke="#000000" d="M226.6058,-696.7622C245.1776,-663.7045 278.562,-614.7322 323.147,-592 450.2527,-527.1937 500.9261,-573 643.5996,-573 643.5996,-573 643.5996,-573 963.1982,-573 1092.9767,-573 1138.4914,-564.3661 1241.938,-486 1297.6792,-443.7732 1335.2035,-367.9056 1352.3178,-327.3404"/>
<polygon fill="#000000" stroke="#000000" points="1355.5658,-328.6446 1356.1336,-318.065 1349.0922,-325.9814 1355.5658,-328.6446"/>
</g>
<!-- _ZN13gen_callgraphE&#45;&gt;_ZN6String3newE -->
<g id="edge23" class="edge">
<title>_ZN13gen_callgraphE&#45;&gt;_ZN6String3newE</title>
<path fill="none" stroke="#000000" d="M228.3959,-763.1654C247.8272,-794.9571 281.3811,-841.8611 323.147,-868 340.3218,-878.7488 361.4173,-885.2192 380.7096,-889.114"/>
<polygon fill="#000000" stroke="#000000" points="380.1367,-892.5672 390.6035,-890.9249 381.3971,-885.6816 380.1367,-892.5672"/>
</g>
<!-- _ZN13gen_callgraphE&#45;&gt;_ZN5parse26new_parser_from_source_strE -->
<g id="edge18" class="edge">
<title>_ZN13gen_callgraphE&#45;&gt;_ZN5parse26new_parser_from_source_strE</title>
<path fill="none" stroke="#000000" d="M247.0722,-763.1104C268.0874,-780.2722 295.6146,-800.2516 323.147,-813 327.4382,-814.987 331.8913,-816.8365 336.4404,-818.5571"/>
<polygon fill="#000000" stroke="#000000" points="335.2975,-821.8653 345.8922,-821.9105 337.6381,-815.2682 335.2975,-821.8653"/>
</g>
<!-- _ZN7HashMap3newE -->
<g id="node26" class="node">
<title>_ZN7HashMap3newE</title>
<polygon fill="none" stroke="#000000" points="380.6748,-712 380.6748,-748 491.5371,-748 491.5371,-712 380.6748,-712"/>
<text text-anchor="start" x="388.6748" y="-726.8" font-family="Times,serif" font-weight="bold" font-size="14.00" fill="#000000">HashMap::new()</text>
</g>
<!-- _ZN13gen_callgraphE&#45;&gt;_ZN7HashMap3newE -->
<g id="edge11" class="edge">
<title>_ZN13gen_callgraphE&#45;&gt;_ZN7HashMap3newE</title>
<path fill="none" stroke="#000000" d="M265.8487,-730C297.5,-730 337.2611,-730 370.3975,-730"/>
<polygon fill="#000000" stroke="#000000" points="370.4522,-733.5001 380.4522,-730 370.4522,-726.5001 370.4522,-733.5001"/>
</g>
<!-- _ZN9ParseSess3newE -->
<g id="node27" class="node">
<title>_ZN9ParseSess3newE</title>
<polygon fill="none" stroke="#000000" points="380.2817,-657 380.2817,-693 491.9302,-693 491.9302,-657 380.2817,-657"/>
<text text-anchor="start" x="388.2817" y="-671.8" font-family="Times,serif" font-weight="bold" font-size="14.00" fill="#000000">ParseSess::new()</text>
</g>
<!-- _ZN13gen_callgraphE&#45;&gt;_ZN9ParseSess3newE -->
<g id="edge37" class="edge">
<title>_ZN13gen_callgraphE&#45;&gt;_ZN9ParseSess3newE</title>
<path fill="none" stroke="#000000" d="M265.8487,-716.4045C297.3814,-708.7361 336.9633,-699.1103 370.0249,-691.0701"/>
<polygon fill="#000000" stroke="#000000" points="371.1702,-694.3937 380.0599,-688.6297 369.516,-687.5919 371.1702,-694.3937"/>
</g>
<!-- _ZN1B4add5E -->
<g id="node23" class="node">
<title>_ZN1B4add5E</title>
<polygon fill="none" stroke="#000000" points="172.583,-1168 172.583,-1234 247.3037,-1234 247.3037,-1168 172.583,-1168"/>
<text text-anchor="start" x="188.1743" y="-1219.8" font-family="Times,serif" font-weight="bold" font-size="14.00" fill="#000000"> add5() </text>
<polyline fill="none" stroke="#000000" points="172.583,-1212 247.3037,-1212 "/>
<text text-anchor="start" x="200.9985" y="-1196.8" font-family="Times,serif" font-size="14.00" fill="#000000">i32</text>
<polyline fill="none" stroke="#000000" points="172.583,-1190 247.3037,-1190 "/>
<text text-anchor="start" x="180.583" y="-1174.8" font-family="Times,serif" font-size="14.00" fill="#000000">&amp;mut Self</text>
</g>
<!-- _ZN8get_pathE&#45;&gt;_ZN3Vec3newE -->
<g id="edge14" class="edge">
<title>_ZN8get_pathE&#45;&gt;_ZN3Vec3newE</title>
<path fill="none" stroke="#000000" d="M1023.0421,-420.6443C1037.1564,-413.8734 1052.2459,-406.9454 1066.4966,-401 1079.0883,-395.7467 1092.9209,-390.5852 1105.8045,-386.0267"/>
<polygon fill="#000000" stroke="#000000" points="1107.1464,-389.2655 1115.4355,-382.6668 1104.8406,-382.6561 1107.1464,-389.2655"/>
</g>
<!-- _ZN8get_pathE&#45;&gt;_ZN12ident2stringE -->
<g id="edge20" class="edge">
<title>_ZN8get_pathE&#45;&gt;_ZN12ident2stringE</title>
<path fill="none" stroke="#000000" d="M1023.1138,-448.8044C1033.585,-448.4206 1044.7222,-448.0125 1055.9108,-447.6025"/>
<polygon fill="#000000" stroke="#000000" points="1056.3176,-451.09 1066.1827,-447.2261 1056.0612,-444.0947 1056.3176,-451.09"/>
</g>
<!-- _ZN11mangle_typeE -->
<g id="node28" class="node">
<title>_ZN11mangle_typeE</title>
<polygon fill="none" stroke="#000000" points="1101.8999,-182 1101.8999,-248 1206.5347,-248 1206.5347,-182 1101.8999,-182"/>
<text text-anchor="start" x="1109.8999" y="-233.8" font-family="Times,serif" font-weight="bold" font-size="14.00" fill="#000000"> mangle_type() </text>
<polyline fill="none" stroke="#000000" points="1101.8999,-226 1206.5347,-226 "/>
<text text-anchor="start" x="1137.1035" y="-210.8" font-family="Times,serif" font-size="14.00" fill="#000000">String</text>
<polyline fill="none" stroke="#000000" points="1101.8999,-204 1206.5347,-204 "/>
<text text-anchor="start" x="1134.8784" y="-188.8" font-family="Times,serif" font-size="14.00" fill="#000000">&amp;Type</text>
</g>
<!-- _ZN11mangle_typeE&#45;&gt;_ZN6String4fromE -->
<g id="edge15" class="edge">
<title>_ZN11mangle_typeE&#45;&gt;_ZN6String4fromE</title>
<path fill="none" stroke="#000000" d="M1206.6135,-236.3394C1237.9099,-249.0854 1277.5771,-265.2407 1309.1199,-278.0871"/>
<polygon fill="#000000" stroke="#000000" points="1308.0485,-281.4298 1318.63,-281.9603 1310.6888,-274.9469 1308.0485,-281.4298"/>
</g>
<!-- _ZN1B4add6E -->
<g id="node29" class="node">
<title>_ZN1B4add6E</title>
<polygon fill="none" stroke="#000000" points="16,-1168 16,-1234 90.7207,-1234 90.7207,-1168 16,-1168"/>
<text text-anchor="start" x="31.5913" y="-1219.8" font-family="Times,serif" font-weight="bold" font-size="14.00" fill="#000000"> add6() </text>
<polyline fill="none" stroke="#000000" points="16,-1212 90.7207,-1212 "/>
<text text-anchor="start" x="51.6104" y="-1196.8" font-family="Times,serif" font-size="14.00" fill="#000000"> </text>
<polyline fill="none" stroke="#000000" points="16,-1190 90.7207,-1190 "/>
<text text-anchor="start" x="24" y="-1174.8" font-family="Times,serif" font-size="14.00" fill="#000000">&amp;mut Self</text>
</g>
<!-- _ZN1B4add6E&#45;&gt;_ZN1B4add5E -->
<g id="edge26" class="edge">
<title>_ZN1B4add6E&#45;&gt;_ZN1B4add5E</title>
<path fill="none" stroke="#000000" d="M90.8659,-1201C112.2854,-1201 139.3556,-1201 162.2715,-1201"/>
<polygon fill="#000000" stroke="#000000" points="162.4729,-1204.5001 172.4728,-1201 162.4728,-1197.5001 162.4729,-1204.5001"/>
</g>
<!-- _ZN4Type6to_strE -->
<g id="node30" class="node">
<title>_ZN4Type6to_strE</title>
<polygon fill="none" stroke="#000000" points="21.2534,-1314 21.2534,-1380 85.4673,-1380 85.4673,-1314 21.2534,-1314"/>
<text text-anchor="start" x="29.2534" y="-1365.8" font-family="Times,serif" font-weight="bold" font-size="14.00" fill="#000000"> to_str() </text>
<polyline fill="none" stroke="#000000" points="21.2534,-1358 85.4673,-1358 "/>
<text text-anchor="start" x="36.2466" y="-1342.8" font-family="Times,serif" font-size="14.00" fill="#000000">String</text>
<polyline fill="none" stroke="#000000" points="21.2534,-1336 85.4673,-1336 "/>
<text text-anchor="start" x="36.6396" y="-1320.8" font-family="Times,serif" font-size="14.00" fill="#000000">&amp;Self</text>
</g>
<!-- _ZN4Func3fmtE -->
<g id="node31" class="node">
<title>_ZN4Func3fmtE</title>
<polygon fill="none" stroke="#000000" points="895.8999,-71 895.8999,-159 1030.4966,-159 1030.4966,-71 895.8999,-71"/>
<text text-anchor="start" x="945.3154" y="-144.8" font-family="Times,serif" font-weight="bold" font-size="14.00" fill="#000000"> fmt() </text>
<polyline fill="none" stroke="#000000" points="895.8999,-137 1030.4966,-137 "/>
<text text-anchor="start" x="931.6982" y="-121.8" font-family="Times,serif" font-size="14.00" fill="#000000">fmt::Result</text>
<polyline fill="none" stroke="#000000" points="895.8999,-115 1030.4966,-115 "/>
<text text-anchor="start" x="946.4775" y="-99.8" font-family="Times,serif" font-size="14.00" fill="#000000">&amp;Self</text>
<polyline fill="none" stroke="#000000" points="895.8999,-93 1030.4966,-93 "/>
<text text-anchor="start" x="903.8999" y="-77.8" font-family="Times,serif" font-size="14.00" fill="#000000">&amp;mut fmt::Formatter</text>
</g>
<!-- _ZN4Func3fmtE&#45;&gt;_ZN6String4fromE -->
<g id="edge4" class="edge">
<title>_ZN4Func3fmtE&#45;&gt;_ZN6String4fromE</title>
<path fill="none" stroke="#000000" d="M1030.5605,-126.5807C1107.0376,-140.072 1223.6198,-161.8104 1241.938,-172 1286.4971,-196.7863 1324.3395,-243.5904 1345.3098,-273.2126"/>
<polygon fill="#000000" stroke="#000000" points="1342.6938,-275.5828 1351.2649,-281.8107 1348.4483,-271.5971 1342.6938,-275.5828"/>
</g>
<!-- _ZN9type_nameE -->
<g id="node32" class="node">
<title>_ZN9type_nameE</title>
<polygon fill="none" stroke="#000000" points="1107.3447,-58 1107.3447,-124 1201.0898,-124 1201.0898,-58 1107.3447,-58"/>
<text text-anchor="start" x="1115.3447" y="-109.8" font-family="Times,serif" font-weight="bold" font-size="14.00" fill="#000000"> type_name() </text>
<polyline fill="none" stroke="#000000" points="1107.3447,-102 1201.0898,-102 "/>
<text text-anchor="start" x="1137.1035" y="-86.8" font-family="Times,serif" font-size="14.00" fill="#000000">String</text>
<polyline fill="none" stroke="#000000" points="1107.3447,-80 1201.0898,-80 "/>
<text text-anchor="start" x="1144.4966" y="-64.8" font-family="Times,serif" font-size="14.00" fill="#000000">&amp;T</text>
</g>
<!-- _ZN9type_nameE&#45;&gt;_ZN3std10intrinsics9type_nameE -->
<g id="edge29" class="edge">
<title>_ZN9type_nameE&#45;&gt;_ZN3std10intrinsics9type_nameE</title>
<path fill="none" stroke="#000000" d="M1201.3154,-91C1221.0044,-91 1244.6319,-91 1267.6641,-91"/>
<polygon fill="#000000" stroke="#000000" points="1267.8353,-94.5001 1277.8353,-91 1267.8353,-87.5001 1267.8353,-94.5001"/>
</g>
<!-- _ZN9type_nameE&#45;&gt;_ZN6String4fromE -->
<g id="edge17" class="edge">
<title>_ZN9type_nameE&#45;&gt;_ZN6String4fromE</title>
<path fill="none" stroke="#000000" d="M1201.2262,-111.988C1215.1373,-119.4076 1229.8626,-128.5468 1241.938,-139 1287.7271,-178.6382 1326.9419,-238.3446 1347.5161,-272.8152"/>
<polygon fill="#000000" stroke="#000000" points="1344.7303,-274.9829 1352.8147,-281.8308 1350.7652,-271.436 1344.7303,-274.9829"/>
</g>
<!-- _ZN11mangle_funcE -->
<g id="node33" class="node">
<title>_ZN11mangle_funcE</title>
<polygon fill="none" stroke="#000000" points="1101.5137,-267 1101.5137,-333 1206.9209,-333 1206.9209,-267 1101.5137,-267"/>
<text text-anchor="start" x="1109.5137" y="-318.8" font-family="Times,serif" font-weight="bold" font-size="14.00" fill="#000000"> mangle_func() </text>
<polyline fill="none" stroke="#000000" points="1101.5137,-311 1206.9209,-311 "/>
<text text-anchor="start" x="1137.1035" y="-295.8" font-family="Times,serif" font-size="14.00" fill="#000000">String</text>
<polyline fill="none" stroke="#000000" points="1101.5137,-289 1206.9209,-289 "/>
<text text-anchor="start" x="1134.7725" y="-273.8" font-family="Times,serif" font-size="14.00" fill="#000000">&amp;Func</text>
</g>
<!-- _ZN11mangle_funcE&#45;&gt;_ZN6String4fromE -->
<g id="edge27" class="edge">
<title>_ZN11mangle_funcE&#45;&gt;_ZN6String4fromE</title>
<path fill="none" stroke="#000000" d="M1207.1527,-300C1237.0986,-300 1274.5759,-300 1305.2653,-300"/>
<polygon fill="#000000" stroke="#000000" points="1305.3921,-303.5001 1315.3921,-300 1305.3921,-296.5001 1305.3921,-303.5001"/>
</g>
<!-- _ZN10test_tupleE -->
<g id="node34" class="node">
<title>_ZN10test_tupleE</title>
<polygon fill="none" stroke="#000000" points="9.981,-1399 9.981,-1465 96.7397,-1465 96.7397,-1399 9.981,-1399"/>
<text text-anchor="start" x="17.981" y="-1450.8" font-family="Times,serif" font-weight="bold" font-size="14.00" fill="#000000"> test_tuple() </text>
<polyline fill="none" stroke="#000000" points="9.981,-1443 96.7397,-1443 "/>
<text text-anchor="start" x="51.6104" y="-1427.8" font-family="Times,serif" font-size="14.00" fill="#000000"> </text>
<polyline fill="none" stroke="#000000" points="9.981,-1421 96.7397,-1421 "/>
<text text-anchor="start" x="27.3086" y="-1405.8" font-family="Times,serif" font-size="14.00" fill="#000000">(i32, i32)</text>
</g>
<!-- _ZN4Func5cloneE -->
<g id="node35" class="node">
<title>_ZN4Func5cloneE</title>
<polygon fill="none" stroke="#000000" points="931.8774,-178 931.8774,-244 994.519,-244 994.519,-178 931.8774,-178"/>
<text text-anchor="start" x="939.8774" y="-229.8" font-family="Times,serif" font-weight="bold" font-size="14.00" fill="#000000"> clone() </text>
<polyline fill="none" stroke="#000000" points="931.8774,-222 994.519,-222 "/>
<text text-anchor="start" x="951.9224" y="-206.8" font-family="Times,serif" font-size="14.00" fill="#000000">Self</text>
<polyline fill="none" stroke="#000000" points="931.8774,-200 994.519,-200 "/>
<text text-anchor="start" x="946.4775" y="-184.8" font-family="Times,serif" font-size="14.00" fill="#000000">&amp;Self</text>
</g>
<!-- _ZN4Func5cloneE&#45;&gt;_ZN3Vec3newE -->
<g id="edge30" class="edge">
<title>_ZN4Func5cloneE&#45;&gt;_ZN3Vec3newE</title>
<path fill="none" stroke="#000000" d="M994.6614,-224.8457C1009.7652,-232.8906 1027.0271,-244.3529 1038.4966,-259 1062.4988,-289.652 1038.7433,-314.6978 1066.4966,-342 1076.9509,-352.2844 1091.1767,-358.7935 1105.1287,-362.9125"/>
<polygon fill="#000000" stroke="#000000" points="1104.624,-366.397 1115.1816,-365.5092 1106.3747,-359.6194 1104.624,-366.397"/>
</g>
<!-- _ZN4mainE -->
<g id="node36" class="node">
<title>_ZN4mainE</title>
<polygon fill="none" stroke="#000000" points="23.2017,-956 23.2017,-1000 83.519,-1000 83.519,-956 23.2017,-956"/>
<text text-anchor="start" x="31.2017" y="-985.8" font-family="Times,serif" font-weight="bold" font-size="14.00" fill="#000000"> main() </text>
<polyline fill="none" stroke="#000000" points="23.2017,-978 83.519,-978 "/>
<text text-anchor="start" x="51.6104" y="-962.8" font-family="Times,serif" font-size="14.00" fill="#000000"> </text>
</g>
<!-- _ZN4mainE&#45;&gt;_ZN8get_fileE -->
<g id="edge28" class="edge">
<title>_ZN4mainE&#45;&gt;_ZN8get_fileE</title>
<path fill="none" stroke="#000000" d="M77.8406,-1000.2528C92.9287,-1013.2286 113.0915,-1029.2916 132.7397,-1041 142.2309,-1046.6558 152.8698,-1051.8553 163.1446,-1056.373"/>
<polygon fill="#000000" stroke="#000000" points="161.8629,-1059.6312 172.4351,-1060.3237 164.6023,-1053.1895 161.8629,-1059.6312"/>
</g>
<!-- _ZN4mainE&#45;&gt;_ZN17pretty_env_logger4initE -->
<g id="edge22" class="edge">
<title>_ZN4mainE&#45;&gt;_ZN17pretty_env_logger4initE</title>
<path fill="none" stroke="#000000" d="M83.5511,-984.7484C95.032,-987.3146 108.7659,-990.3844 122.885,-993.5404"/>
<polygon fill="#000000" stroke="#000000" points="122.1756,-996.9681 132.6983,-995.7339 123.7027,-990.1367 122.1756,-996.9681"/>
</g>
<!-- _ZN4mainE&#45;&gt;_ZN12generate_dotE -->
<g id="edge36" class="edge">
<title>_ZN4mainE&#45;&gt;_ZN12generate_dotE</title>
<path fill="none" stroke="#000000" d="M83.5511,-971.2516C101.6618,-967.2035 125.379,-961.9021 147.3706,-956.9865"/>
<polygon fill="#000000" stroke="#000000" points="148.3314,-960.3582 157.327,-954.761 146.8043,-953.5268 148.3314,-960.3582"/>
</g>
<!-- _ZN4mainE&#45;&gt;_ZN13gen_callgraphE -->
<g id="edge6" class="edge">
<title>_ZN4mainE&#45;&gt;_ZN13gen_callgraphE</title>
<path fill="none" stroke="#000000" d="M67.256,-955.9917C93.3473,-914.6677 150.0533,-824.8553 183.5915,-771.7367"/>
<polygon fill="#000000" stroke="#000000" points="186.5888,-773.5454 188.9681,-763.2212 180.6698,-769.8082 186.5888,-773.5454"/>
</g>
<!-- _ZT4FuncE -->
<g id="node37" class="node">
<title>_ZT4FuncE</title>
<text text-anchor="middle" x="963.1982" y="-29.8" font-family="Times,serif" font-size="14.00" fill="#000000">Func</text>
</g>
<!-- _ZT1BE -->
<g id="node38" class="node">
<title>_ZT1BE</title>
<text text-anchor="middle" x="53.3604" y="-1126.8" font-family="Times,serif" font-size="14.00" fill="#000000">B</text>
</g>
<!-- _ZT4TypeE -->
<g id="node39" class="node">
<title>_ZT4TypeE</title>
<text text-anchor="middle" x="53.3604" y="-1272.8" font-family="Times,serif" font-size="14.00" fill="#000000">Type</text>
</g>
</g>
</svg>
