<?xml version="1.0" encoding="UTF-8" standalone="no"?>
<!DOCTYPE svg PUBLIC "-//W3C//DTD SVG 1.1//EN"
 "http://www.w3.org/Graphics/SVG/1.1/DTD/svg11.dtd">
<!-- Generated by graphviz version 2.38.0 (20140413.2041)
 -->
<!-- Title: demo Pages: 1 -->
<svg width="1241pt" height="718pt"
 viewBox="0.00 0.00 1241.00 717.57" xmlns="http://www.w3.org/2000/svg" xmlns:xlink="http://www.w3.org/1999/xlink">
<g id="graph0" class="graph" transform="scale(1 1) rotate(0) translate(4 713.574)">
<title>demo</title>
<polygon fill="white" stroke="none" points="-4,4 -4,-713.574 1237,-713.574 1237,4 -4,4"/>
<!-- _ZN5fuck1E -->
<g id="node1" class="node"><title>_ZN5fuck1E</title>
<polygon fill="none" stroke="black" points="425,-625 425,-671 482,-671 482,-625 425,-625"/>
<text text-anchor="middle" x="453.5" y="-655.8" font-family="Times New Roman,serif" font-size="14.00">fuck1()</text>
<polyline fill="none" stroke="black" points="425,-648 482,-648 "/>
<text text-anchor="middle" x="453.5" y="-632.8" font-family="Times New Roman,serif" font-size="14.00">args...</text>
</g>
<!-- _ZN5fuck2E -->
<g id="node2" class="node"><title>_ZN5fuck2E</title>
<polygon fill="none" stroke="black" points="631.5,-599 631.5,-645 688.5,-645 688.5,-599 631.5,-599"/>
<text text-anchor="middle" x="660" y="-629.8" font-family="Times New Roman,serif" font-size="14.00">fuck2()</text>
<polyline fill="none" stroke="black" points="631.5,-622 688.5,-622 "/>
<text text-anchor="middle" x="660" y="-606.8" font-family="Times New Roman,serif" font-size="14.00">args...</text>
</g>
<!-- _ZN5fuck1E&#45;&gt;_ZN5fuck2E -->
<g id="edge9" class="edge"><title>_ZN5fuck1E&#45;&gt;_ZN5fuck2E</title>
<path fill="none" stroke="black" d="M482.08,-644.494C517.985,-639.929 580.899,-631.93 621.22,-626.803"/>
<polygon fill="black" stroke="black" points="621.725,-630.267 631.204,-625.534 620.842,-623.323 621.725,-630.267"/>
</g>
<!-- _ZN6pprust14path_to_stringE -->
<g id="node3" class="node"><title>_ZN6pprust14path_to_stringE</title>
<polygon fill="none" stroke="black" points="1032,-302 883,-302 883,-266 1032,-266 1032,-302"/>
<text text-anchor="start" x="891" y="-280.3" font-family="Times New Roman,serif" font-size="14.00">pprust::path_to_string()</text>
</g>
<!-- _ZN4fuckE -->
<g id="node4" class="node"><title>_ZN4fuckE</title>
<polygon fill="none" stroke="black" points="202.5,-625 202.5,-671 256.5,-671 256.5,-625 202.5,-625"/>
<text text-anchor="middle" x="229.5" y="-655.8" font-family="Times New Roman,serif" font-size="14.00">fuck()</text>
<polyline fill="none" stroke="black" points="202.5,-648 256.5,-648 "/>
<text text-anchor="middle" x="229.5" y="-632.8" font-family="Times New Roman,serif" font-size="14.00">args...</text>
</g>
<!-- _ZN4fuckE&#45;&gt;_ZN5fuck1E -->
<g id="edge31" class="edge"><title>_ZN4fuckE&#45;&gt;_ZN5fuck1E</title>
<path fill="none" stroke="black" d="M256.838,-648C295.968,-648 369.655,-648 414.586,-648"/>
<polygon fill="black" stroke="black" points="414.804,-651.5 424.804,-648 414.804,-644.5 414.804,-651.5"/>
</g>
<!-- _ZN15FilePathMapping5emptyE -->
<g id="node5" class="node"><title>_ZN15FilePathMapping5emptyE</title>
<polygon fill="none" stroke="black" points="534,-568 373,-568 373,-532 534,-532 534,-568"/>
<text text-anchor="start" x="381" y="-546.3" font-family="Times New Roman,serif" font-size="14.00">FilePathMapping::empty()</text>
</g>
<!-- _ZN17pretty_env_logger4initE -->
<g id="node6" class="node"><title>_ZN17pretty_env_logger4initE</title>
<polygon fill="none" stroke="black" points="304,-546 155,-546 155,-510 304,-510 304,-546"/>
<text text-anchor="start" x="163" y="-524.3" font-family="Times New Roman,serif" font-size="14.00">pretty_env_logger::init()</text>
</g>
<!-- _ZN13gen_callgraphE -->
<g id="node7" class="node"><title>_ZN13gen_callgraphE</title>
<polygon fill="none" stroke="black" points="178,-402 178,-448 281,-448 281,-402 178,-402"/>
<text text-anchor="middle" x="229.5" y="-432.8" font-family="Times New Roman,serif" font-size="14.00">gen_callgraph()</text>
<polyline fill="none" stroke="black" points="178,-425 281,-425 "/>
<text text-anchor="middle" x="229.5" y="-409.8" font-family="Times New Roman,serif" font-size="14.00">args...</text>
</g>
<!-- _ZN13gen_callgraphE&#45;&gt;_ZN15FilePathMapping5emptyE -->
<g id="edge20" class="edge"><title>_ZN13gen_callgraphE&#45;&gt;_ZN15FilePathMapping5emptyE</title>
<path fill="none" stroke="black" d="M249.894,-448.013C270.111,-470.506 303.846,-504.05 340,-523 347.352,-526.854 355.263,-530.167 363.359,-533.014"/>
<polygon fill="black" stroke="black" points="362.335,-536.361 372.928,-536.146 364.513,-529.708 362.335,-536.361"/>
</g>
<!-- _ZN7HashSet3newE -->
<g id="node12" class="node"><title>_ZN7HashSet3newE</title>
<polygon fill="none" stroke="black" points="504,-514 403,-514 403,-478 504,-478 504,-514"/>
<text text-anchor="start" x="411" y="-492.3" font-family="Times New Roman,serif" font-size="14.00">HashSet::new()</text>
</g>
<!-- _ZN13gen_callgraphE&#45;&gt;_ZN7HashSet3newE -->
<g id="edge18" class="edge"><title>_ZN13gen_callgraphE&#45;&gt;_ZN7HashSet3newE</title>
<path fill="none" stroke="black" d="M281.241,-443.847C299.657,-450.482 320.683,-457.82 340,-464 357.056,-469.457 375.712,-474.952 392.842,-479.811"/>
<polygon fill="black" stroke="black" points="392.153,-483.253 402.727,-482.593 394.049,-476.515 392.153,-483.253"/>
</g>
<!-- _ZN6String4fromE -->
<g id="node17" class="node"><title>_ZN6String4fromE</title>
<polygon fill="none" stroke="black" points="1196.5,-202 1104.5,-202 1104.5,-166 1196.5,-166 1196.5,-202"/>
<text text-anchor="start" x="1112.5" y="-180.3" font-family="Times New Roman,serif" font-size="14.00">String::from()</text>
</g>
<!-- _ZN13gen_callgraphE&#45;&gt;_ZN6String4fromE -->
<g id="edge7" class="edge"><title>_ZN13gen_callgraphE&#45;&gt;_ZN6String4fromE</title>
<path fill="none" stroke="black" d="M281.235,-429.88C361.386,-437.155 522.258,-450 659,-450 659,-450 659,-450 801,-450 908.671,-450 947.272,-443.44 1032,-377 1088.32,-332.834 1124.05,-253.586 1139.92,-211.698"/>
<polygon fill="black" stroke="black" points="1143.27,-212.733 1143.45,-202.139 1136.71,-210.312 1143.27,-212.733"/>
</g>
<!-- _ZN9ParseSess3newE -->
<g id="node19" class="node"><title>_ZN9ParseSess3newE</title>
<polygon fill="none" stroke="black" points="509,-422 398,-422 398,-386 509,-386 509,-422"/>
<text text-anchor="start" x="406" y="-400.3" font-family="Times New Roman,serif" font-size="14.00">ParseSess::new()</text>
</g>
<!-- _ZN13gen_callgraphE&#45;&gt;_ZN9ParseSess3newE -->
<g id="edge17" class="edge"><title>_ZN13gen_callgraphE&#45;&gt;_ZN9ParseSess3newE</title>
<path fill="none" stroke="black" d="M281.153,-420.208C312.698,-417.225 353.585,-413.357 387.507,-410.148"/>
<polygon fill="black" stroke="black" points="388.167,-413.601 397.793,-409.175 387.508,-406.632 388.167,-413.601"/>
</g>
<!-- _ZN6String3newE -->
<g id="node24" class="node"><title>_ZN6String3newE</title>
<polygon fill="none" stroke="black" points="497,-368 410,-368 410,-332 497,-332 497,-368"/>
<text text-anchor="start" x="418" y="-346.3" font-family="Times New Roman,serif" font-size="14.00">String::new()</text>
</g>
<!-- _ZN13gen_callgraphE&#45;&gt;_ZN6String3newE -->
<g id="edge13" class="edge"><title>_ZN13gen_callgraphE&#45;&gt;_ZN6String3newE</title>
<path fill="none" stroke="black" d="M278.016,-401.973C296.998,-393.357 319.243,-383.979 340,-377 359.204,-370.543 380.741,-364.983 399.791,-360.615"/>
<polygon fill="black" stroke="black" points="400.798,-363.976 409.793,-358.377 399.27,-357.145 400.798,-363.976"/>
</g>
<!-- _ZN5parse26new_parser_from_source_strE -->
<g id="node25" class="node"><title>_ZN5parse26new_parser_from_source_strE</title>
<polygon fill="none" stroke="black" points="567,-314 340,-314 340,-278 567,-278 567,-314"/>
<text text-anchor="start" x="348" y="-292.3" font-family="Times New Roman,serif" font-size="14.00">parse::new_parser_from_source_str()</text>
</g>
<!-- _ZN13gen_callgraphE&#45;&gt;_ZN5parse26new_parser_from_source_strE -->
<g id="edge23" class="edge"><title>_ZN13gen_callgraphE&#45;&gt;_ZN5parse26new_parser_from_source_strE</title>
<path fill="none" stroke="black" d="M248.95,-401.896C268.919,-378.467 302.919,-342.91 340,-323 343.337,-321.208 346.794,-319.534 350.333,-317.969"/>
<polygon fill="black" stroke="black" points="351.934,-321.096 359.872,-314.079 349.291,-314.614 351.934,-321.096"/>
</g>
<!-- _ZN11handle_itemE -->
<g id="node26" class="node"><title>_ZN11handle_itemE</title>
<polygon fill="none" stroke="black" points="407.5,-213 407.5,-259 499.5,-259 499.5,-213 407.5,-213"/>
<text text-anchor="middle" x="453.5" y="-243.8" font-family="Times New Roman,serif" font-size="14.00">handle_item()</text>
<polyline fill="none" stroke="black" points="407.5,-236 499.5,-236 "/>
<text text-anchor="middle" x="453.5" y="-220.8" font-family="Times New Roman,serif" font-size="14.00">args...</text>
</g>
<!-- _ZN13gen_callgraphE&#45;&gt;_ZN11handle_itemE -->
<g id="edge24" class="edge"><title>_ZN13gen_callgraphE&#45;&gt;_ZN11handle_itemE</title>
<path fill="none" stroke="black" d="M240.523,-401.946C256.551,-367.783 291.193,-303.996 340,-269 356.762,-256.981 377.882,-249.306 397.283,-244.42"/>
<polygon fill="black" stroke="black" points="398.289,-247.78 407.24,-242.111 396.707,-240.961 398.289,-247.78"/>
</g>
<!-- _ZN12generate_dotE -->
<g id="node8" class="node"><title>_ZN12generate_dotE</title>
<polygon fill="none" stroke="black" points="180.5,-161 180.5,-207 278.5,-207 278.5,-161 180.5,-161"/>
<text text-anchor="middle" x="229.5" y="-191.8" font-family="Times New Roman,serif" font-size="14.00">generate_dot()</text>
<polyline fill="none" stroke="black" points="180.5,-184 278.5,-184 "/>
<text text-anchor="middle" x="229.5" y="-168.8" font-family="Times New Roman,serif" font-size="14.00">args...</text>
</g>
<!-- _ZN12generate_dotE&#45;&gt;_ZN6String4fromE -->
<g id="edge3" class="edge"><title>_ZN12generate_dotE&#45;&gt;_ZN6String4fromE</title>
<path fill="none" stroke="black" d="M278.696,-184C358.006,-184 521.002,-184 659,-184 659,-184 659,-184 801,-184 904.589,-184 1025.5,-184 1094.22,-184"/>
<polygon fill="black" stroke="black" points="1094.39,-187.5 1104.39,-184 1094.39,-180.5 1094.39,-187.5"/>
</g>
<!-- _ZN13write_to_fileE -->
<g id="node22" class="node"><title>_ZN13write_to_fileE</title>
<polygon fill="none" stroke="black" points="406,-109 406,-155 501,-155 501,-109 406,-109"/>
<text text-anchor="middle" x="453.5" y="-139.8" font-family="Times New Roman,serif" font-size="14.00">write_to_file()</text>
<polyline fill="none" stroke="black" points="406,-132 501,-132 "/>
<text text-anchor="middle" x="453.5" y="-116.8" font-family="Times New Roman,serif" font-size="14.00">args...</text>
</g>
<!-- _ZN12generate_dotE&#45;&gt;_ZN13write_to_fileE -->
<g id="edge16" class="edge"><title>_ZN12generate_dotE&#45;&gt;_ZN13write_to_fileE</title>
<path fill="none" stroke="black" d="M278.671,-172.717C313.174,-164.635 359.753,-153.724 396.011,-145.232"/>
<polygon fill="black" stroke="black" points="397.006,-148.593 405.945,-142.905 395.41,-141.778 397.006,-148.593"/>
</g>
<!-- _ZN3std10intrinsics9type_nameE -->
<g id="node9" class="node"><title>_ZN3std10intrinsics9type_nameE</title>
<polygon fill="none" stroke="black" points="1233,-85 1068,-85 1068,-49 1233,-49 1233,-85"/>
<text text-anchor="start" x="1076" y="-63.3" font-family="Times New Roman,serif" font-size="14.00">std::intrinsics::type_name()</text>
</g>
<!-- _ZN8get_fileE -->
<g id="node10" class="node"><title>_ZN8get_fileE</title>
<polygon fill="none" stroke="black" points="196.5,-49 196.5,-95 262.5,-95 262.5,-49 196.5,-49"/>
<text text-anchor="middle" x="229.5" y="-79.8" font-family="Times New Roman,serif" font-size="14.00">get_file()</text>
<polyline fill="none" stroke="black" points="196.5,-72 262.5,-72 "/>
<text text-anchor="middle" x="229.5" y="-56.8" font-family="Times New Roman,serif" font-size="14.00">args...</text>
</g>
<!-- _ZN3env4argsE -->
<g id="node11" class="node"><title>_ZN3env4argsE</title>
<polygon fill="none" stroke="black" points="490.5,-90 416.5,-90 416.5,-54 490.5,-54 490.5,-90"/>
<text text-anchor="start" x="424.5" y="-68.3" font-family="Times New Roman,serif" font-size="14.00">env::args()</text>
</g>
<!-- _ZN8get_fileE&#45;&gt;_ZN3env4argsE -->
<g id="edge15" class="edge"><title>_ZN8get_fileE&#45;&gt;_ZN3env4argsE</title>
<path fill="none" stroke="black" d="M262.781,-72C300.553,-72 363.383,-72 406.309,-72"/>
<polygon fill="black" stroke="black" points="406.496,-75.5001 416.496,-72 406.496,-68.5001 406.496,-75.5001"/>
</g>
<!-- _ZN2fs14read_to_stringE -->
<g id="node15" class="node"><title>_ZN2fs14read_to_stringE</title>
<polygon fill="none" stroke="black" points="515,-36 392,-36 392,-0 515,-0 515,-36"/>
<text text-anchor="start" x="400" y="-14.3" font-family="Times New Roman,serif" font-size="14.00">fs::read_to_string()</text>
</g>
<!-- _ZN8get_fileE&#45;&gt;_ZN2fs14read_to_stringE -->
<g id="edge21" class="edge"><title>_ZN8get_fileE&#45;&gt;_ZN2fs14read_to_stringE</title>
<path fill="none" stroke="black" d="M262.589,-64.032C284.409,-58.6277 313.936,-51.341 340,-45 353.506,-41.7142 367.931,-38.2318 381.791,-34.8992"/>
<polygon fill="black" stroke="black" points="382.857,-38.2429 391.763,-32.504 381.222,-31.4366 382.857,-38.2429"/>
</g>
<!-- _ZN11handle_exprE -->
<g id="node13" class="node"><title>_ZN11handle_exprE</title>
<polygon fill="none" stroke="black" points="753,-232 753,-278 847,-278 847,-232 753,-232"/>
<text text-anchor="middle" x="800" y="-262.8" font-family="Times New Roman,serif" font-size="14.00">handle_expr()</text>
<polyline fill="none" stroke="black" points="753,-255 847,-255 "/>
<text text-anchor="middle" x="800" y="-239.8" font-family="Times New Roman,serif" font-size="14.00">args...</text>
</g>
<!-- _ZN11handle_exprE&#45;&gt;_ZN6pprust14path_to_stringE -->
<g id="edge34" class="edge"><title>_ZN11handle_exprE&#45;&gt;_ZN6pprust14path_to_stringE</title>
<path fill="none" stroke="black" d="M847.234,-263.622C855.365,-265.139 864.049,-266.758 872.835,-268.397"/>
<polygon fill="black" stroke="black" points="872.301,-271.858 882.773,-270.25 873.584,-264.976 872.301,-271.858"/>
</g>
<!-- _ZN11handle_exprE&#45;&gt;_ZN11handle_exprE -->
<g id="edge14" class="edge"><title>_ZN11handle_exprE&#45;&gt;_ZN11handle_exprE</title>
<path fill="none" stroke="black" d="M774.064,-278.045C771.941,-287.988 780.586,-296.5 800,-296.5 812.437,-296.5 820.455,-293.006 824.053,-287.882"/>
<polygon fill="black" stroke="black" points="827.493,-288.525 825.936,-278.045 820.618,-287.209 827.493,-288.525"/>
</g>
<!-- _ZN3Vec3newE -->
<g id="node14" class="node"><title>_ZN3Vec3newE</title>
<polygon fill="none" stroke="black" points="996,-248 919,-248 919,-212 996,-212 996,-248"/>
<text text-anchor="start" x="927" y="-226.3" font-family="Times New Roman,serif" font-size="14.00">Vec::new()</text>
</g>
<!-- _ZN11handle_exprE&#45;&gt;_ZN3Vec3newE -->
<g id="edge25" class="edge"><title>_ZN11handle_exprE&#45;&gt;_ZN3Vec3newE</title>
<path fill="none" stroke="black" d="M847.234,-247.567C866.674,-244.441 889.279,-240.807 908.867,-237.658"/>
<polygon fill="black" stroke="black" points="909.485,-241.104 918.803,-236.061 908.374,-234.192 909.485,-241.104"/>
</g>
<!-- _ZN12ident2stringE -->
<g id="node18" class="node"><title>_ZN12ident2stringE</title>
<polygon fill="none" stroke="black" points="912.5,-321 912.5,-367 1002.5,-367 1002.5,-321 912.5,-321"/>
<text text-anchor="middle" x="957.5" y="-351.8" font-family="Times New Roman,serif" font-size="14.00">ident2string()</text>
<polyline fill="none" stroke="black" points="912.5,-344 1002.5,-344 "/>
<text text-anchor="middle" x="957.5" y="-328.8" font-family="Times New Roman,serif" font-size="14.00">args...</text>
</g>
<!-- _ZN11handle_exprE&#45;&gt;_ZN12ident2stringE -->
<g id="edge12" class="edge"><title>_ZN11handle_exprE&#45;&gt;_ZN12ident2stringE</title>
<path fill="none" stroke="black" d="M832.095,-278.158C847.081,-288.813 865.553,-301.227 883,-311 889.376,-314.572 896.212,-318.06 903.053,-321.35"/>
<polygon fill="black" stroke="black" points="901.803,-324.63 912.343,-325.704 904.773,-318.291 901.803,-324.63"/>
</g>
<!-- _ZN11handle_stmtE -->
<g id="node21" class="node"><title>_ZN11handle_stmtE</title>
<polygon fill="none" stroke="black" points="613.5,-232 613.5,-278 706.5,-278 706.5,-232 613.5,-232"/>
<text text-anchor="middle" x="660" y="-262.8" font-family="Times New Roman,serif" font-size="14.00">handle_stmt()</text>
<polyline fill="none" stroke="black" points="613.5,-255 706.5,-255 "/>
<text text-anchor="middle" x="660" y="-239.8" font-family="Times New Roman,serif" font-size="14.00">args...</text>
</g>
<!-- _ZN11handle_exprE&#45;&gt;_ZN11handle_stmtE -->
<g id="edge27" class="edge"><title>_ZN11handle_exprE&#45;&gt;_ZN11handle_stmtE</title>
<path fill="none" stroke="black" d="M752.535,-261.419C741.07,-261.767 728.672,-261.841 716.814,-261.639"/>
<polygon fill="black" stroke="black" points="716.651,-258.134 706.569,-261.391 716.481,-265.132 716.651,-258.134"/>
</g>
<!-- _ZN4File4openE -->
<g id="node16" class="node"><title>_ZN4File4openE</title>
<polygon fill="none" stroke="black" points="700,-156 620,-156 620,-120 700,-120 700,-156"/>
<text text-anchor="start" x="628" y="-134.3" font-family="Times New Roman,serif" font-size="14.00">File::open()</text>
</g>
<!-- _ZN12ident2stringE&#45;&gt;_ZN6String4fromE -->
<g id="edge11" class="edge"><title>_ZN12ident2stringE&#45;&gt;_ZN6String4fromE</title>
<path fill="none" stroke="black" d="M1002.84,-327.558C1012.86,-322.918 1023.14,-317.367 1032,-311 1072.01,-282.247 1108.99,-238.2 1130.39,-210.263"/>
<polygon fill="black" stroke="black" points="1133.29,-212.235 1136.52,-202.145 1127.7,-208.017 1133.29,-212.235"/>
</g>
<!-- _ZN9BufReader3newE -->
<g id="node20" class="node"><title>_ZN9BufReader3newE</title>
<polygon fill="none" stroke="black" points="717,-102 603,-102 603,-66 717,-66 717,-102"/>
<text text-anchor="start" x="611" y="-80.3" font-family="Times New Roman,serif" font-size="14.00">BufReader::new()</text>
</g>
<!-- _ZN11handle_stmtE&#45;&gt;_ZN11handle_exprE -->
<g id="edge6" class="edge"><title>_ZN11handle_stmtE&#45;&gt;_ZN11handle_exprE</title>
<path fill="none" stroke="black" d="M706.569,-248.609C717.984,-248.246 730.371,-248.158 742.256,-248.346"/>
<polygon fill="black" stroke="black" points="742.458,-251.851 752.535,-248.581 742.618,-244.853 742.458,-251.851"/>
</g>
<!-- _ZN13write_to_fileE&#45;&gt;_ZN4File4openE -->
<g id="edge32" class="edge"><title>_ZN13write_to_fileE&#45;&gt;_ZN4File4openE</title>
<path fill="none" stroke="black" d="M501.16,-133.369C533.497,-134.318 576.491,-135.579 609.441,-136.546"/>
<polygon fill="black" stroke="black" points="609.661,-140.054 619.759,-136.849 609.866,-133.057 609.661,-140.054"/>
</g>
<!-- _ZN13write_to_fileE&#45;&gt;_ZN9BufReader3newE -->
<g id="edge30" class="edge"><title>_ZN13write_to_fileE&#45;&gt;_ZN9BufReader3newE</title>
<path fill="none" stroke="black" d="M501.16,-121.048C528.273,-114.684 562.879,-106.562 592.774,-99.5446"/>
<polygon fill="black" stroke="black" points="593.778,-102.904 602.714,-97.2115 592.178,-96.0892 593.778,-102.904"/>
</g>
<!-- _ZN4File6createE -->
<g id="node23" class="node"><title>_ZN4File6createE</title>
<polygon fill="none" stroke="black" points="702.5,-48 617.5,-48 617.5,-12 702.5,-12 702.5,-48"/>
<text text-anchor="start" x="625.5" y="-26.3" font-family="Times New Roman,serif" font-size="14.00">File::create()</text>
</g>
<!-- _ZN13write_to_fileE&#45;&gt;_ZN4File6createE -->
<g id="edge29" class="edge"><title>_ZN13write_to_fileE&#45;&gt;_ZN4File6createE</title>
<path fill="none" stroke="black" d="M501.122,-124.621C522.427,-119.724 547.255,-111.76 567,-99 587.649,-85.6554 583.513,-71.9904 603,-57 604.807,-55.6098 606.697,-54.2651 608.645,-52.968"/>
<polygon fill="black" stroke="black" points="610.75,-55.7841 617.468,-47.5914 607.107,-49.8066 610.75,-55.7841"/>
</g>
<!-- _ZN11handle_itemE&#45;&gt;_ZN12ident2stringE -->
<g id="edge5" class="edge"><title>_ZN11handle_itemE&#45;&gt;_ZN12ident2stringE</title>
<path fill="none" stroke="black" d="M499.551,-246.995C520.405,-252.646 545.31,-260.199 567,-269 583.764,-275.802 585.835,-282.286 603,-288 705.551,-322.14 831.946,-335.74 902.436,-340.951"/>
<polygon fill="black" stroke="black" points="902.198,-344.442 912.421,-341.66 902.694,-337.46 902.198,-344.442"/>
</g>
<!-- _ZN11handle_itemE&#45;&gt;_ZN11handle_stmtE -->
<g id="edge2" class="edge"><title>_ZN11handle_itemE&#45;&gt;_ZN11handle_stmtE</title>
<path fill="none" stroke="black" d="M499.632,-240.193C530.093,-243.023 570.512,-246.779 603.022,-249.799"/>
<polygon fill="black" stroke="black" points="602.996,-253.312 613.277,-250.752 603.643,-246.342 602.996,-253.312"/>
</g>
<!-- _ZN15print_type_nameE -->
<g id="node27" class="node"><title>_ZN15print_type_nameE</title>
<polygon fill="none" stroke="black" points="0,-570 0,-616 119,-616 119,-570 0,-570"/>
<text text-anchor="middle" x="59.5" y="-600.8" font-family="Times New Roman,serif" font-size="14.00">print_type_name()</text>
<polyline fill="none" stroke="black" points="0,-593 119,-593 "/>
<text text-anchor="middle" x="59.5" y="-577.8" font-family="Times New Roman,serif" font-size="14.00">args...</text>
</g>
<!-- _ZN8manglingE -->
<g id="node28" class="node"><title>_ZN8manglingE</title>
<polygon fill="none" stroke="black" points="920,-109 920,-155 995,-155 995,-109 920,-109"/>
<text text-anchor="middle" x="957.5" y="-139.8" font-family="Times New Roman,serif" font-size="14.00">mangling()</text>
<polyline fill="none" stroke="black" points="920,-132 995,-132 "/>
<text text-anchor="middle" x="957.5" y="-116.8" font-family="Times New Roman,serif" font-size="14.00">args...</text>
</g>
<!-- _ZN8manglingE&#45;&gt;_ZN6String4fromE -->
<g id="edge26" class="edge"><title>_ZN8manglingE&#45;&gt;_ZN6String4fromE</title>
<path fill="none" stroke="black" d="M995.327,-142.026C1023.4,-149.669 1062.52,-160.319 1094.32,-168.979"/>
<polygon fill="black" stroke="black" points="1093.8,-172.464 1104.37,-171.714 1095.64,-165.71 1093.8,-172.464"/>
</g>
<!-- _ZN4mainE -->
<g id="node29" class="node"><title>_ZN4mainE</title>
<polygon fill="none" stroke="black" points="32.5,-505 32.5,-551 86.5,-551 86.5,-505 32.5,-505"/>
<text text-anchor="middle" x="59.5" y="-535.8" font-family="Times New Roman,serif" font-size="14.00">main()</text>
<polyline fill="none" stroke="black" points="32.5,-528 86.5,-528 "/>
<text text-anchor="middle" x="59.5" y="-512.8" font-family="Times New Roman,serif" font-size="14.00">args...</text>
</g>
<!-- _ZN4mainE&#45;&gt;_ZN5fuck1E -->
<g id="edge33" class="edge"><title>_ZN4mainE&#45;&gt;_ZN5fuck1E</title>
<path fill="none" stroke="black" d="M86.5709,-537.472C97.9718,-542.802 110.627,-550.525 119,-561 153.766,-604.495 110.327,-647.762 155,-681 232.567,-738.712 354.518,-695.111 415.374,-666.973"/>
<polygon fill="black" stroke="black" points="417.058,-670.049 424.6,-662.608 414.064,-663.721 417.058,-670.049"/>
</g>
<!-- _ZN4mainE&#45;&gt;_ZN5fuck2E -->
<g id="edge8" class="edge"><title>_ZN4mainE&#45;&gt;_ZN5fuck2E</title>
<path fill="none" stroke="black" d="M86.7196,-536.608C105.544,-542.513 131.613,-550.132 155,-555 327.376,-590.882 537.115,-611.524 621.341,-618.891"/>
<polygon fill="black" stroke="black" points="621.182,-622.39 631.446,-619.763 621.784,-615.416 621.182,-622.39"/>
</g>
<!-- _ZN4mainE&#45;&gt;_ZN4fuckE -->
<g id="edge22" class="edge"><title>_ZN4mainE&#45;&gt;_ZN4fuckE</title>
<path fill="none" stroke="black" d="M86.5142,-539.654C97.2518,-545.201 109.402,-552.49 119,-561 139.22,-578.928 134.456,-592.443 155,-610 166.139,-619.519 180.07,-627.485 192.799,-633.625"/>
<polygon fill="black" stroke="black" points="191.685,-636.965 202.234,-637.959 194.608,-630.604 191.685,-636.965"/>
</g>
<!-- _ZN4mainE&#45;&gt;_ZN17pretty_env_logger4initE -->
<g id="edge10" class="edge"><title>_ZN4mainE&#45;&gt;_ZN17pretty_env_logger4initE</title>
<path fill="none" stroke="black" d="M86.75,-528C102.604,-528 123.777,-528 144.916,-528"/>
<polygon fill="black" stroke="black" points="144.935,-531.5 154.935,-528 144.935,-524.5 144.935,-531.5"/>
</g>
<!-- _ZN4mainE&#45;&gt;_ZN13gen_callgraphE -->
<g id="edge19" class="edge"><title>_ZN4mainE&#45;&gt;_ZN13gen_callgraphE</title>
<path fill="none" stroke="black" d="M86.75,-511.906C112.2,-496.303 151.358,-472.295 182.074,-453.463"/>
<polygon fill="black" stroke="black" points="184.206,-456.262 190.902,-448.051 180.547,-450.294 184.206,-456.262"/>
</g>
<!-- _ZN4mainE&#45;&gt;_ZN12generate_dotE -->
<g id="edge1" class="edge"><title>_ZN4mainE&#45;&gt;_ZN12generate_dotE</title>
<path fill="none" stroke="black" d="M71.7838,-504.895C101.014,-445.043 179.25,-284.846 212.833,-216.081"/>
<polygon fill="black" stroke="black" points="216.022,-217.526 217.265,-207.004 209.732,-214.454 216.022,-217.526"/>
</g>
<!-- _ZN4mainE&#45;&gt;_ZN8get_fileE -->
<g id="edge35" class="edge"><title>_ZN4mainE&#45;&gt;_ZN8get_fileE</title>
<path fill="none" stroke="black" d="M62.275,-504.9C67.7975,-443.656 88.5065,-273.449 155,-151 164.806,-132.943 179.702,-115.856 193.526,-102.223"/>
<polygon fill="black" stroke="black" points="196.25,-104.462 201.057,-95.0209 191.411,-99.4033 196.25,-104.462"/>
</g>
<!-- _ZN9type_nameE -->
<g id="node30" class="node"><title>_ZN9type_nameE</title>
<polygon fill="none" stroke="black" points="914.5,-44 914.5,-90 1000.5,-90 1000.5,-44 914.5,-44"/>
<text text-anchor="middle" x="957.5" y="-74.8" font-family="Times New Roman,serif" font-size="14.00">type_name()</text>
<polyline fill="none" stroke="black" points="914.5,-67 1000.5,-67 "/>
<text text-anchor="middle" x="957.5" y="-51.8" font-family="Times New Roman,serif" font-size="14.00">args...</text>
</g>
<!-- _ZN9type_nameE&#45;&gt;_ZN3std10intrinsics9type_nameE -->
<g id="edge28" class="edge"><title>_ZN9type_nameE&#45;&gt;_ZN3std10intrinsics9type_nameE</title>
<path fill="none" stroke="black" d="M1000.89,-67C1017.72,-67 1037.77,-67 1057.62,-67"/>
<polygon fill="black" stroke="black" points="1057.65,-70.5001 1067.65,-67 1057.65,-63.5001 1057.65,-70.5001"/>
</g>
<!-- _ZN9type_nameE&#45;&gt;_ZN6String4fromE -->
<g id="edge4" class="edge"><title>_ZN9type_nameE&#45;&gt;_ZN6String4fromE</title>
<path fill="none" stroke="black" d="M1000.85,-83.5853C1011.25,-88.1591 1022.21,-93.4139 1032,-99 1063.36,-116.89 1096.45,-141.406 1119.5,-159.513"/>
<polygon fill="black" stroke="black" points="1117.5,-162.398 1127.51,-165.87 1121.85,-156.913 1117.5,-162.398"/>
</g>
</g>
</svg>
